<svg width="47" height="47" viewBox="0 0 47 47" fill="none" xmlns="http://www.w3.org/2000/svg">
<path d="M23.7441 1.00781H23.7471C25.4367 1.10627 26.8346 2.32921 27.3154 3.97168L27.3457 4.07422C27.3469 4.07847 27.3484 4.08267 27.3496 4.08691L27.4062 4.29102L27.4229 4.30762C27.8712 5.53581 28.9483 6.48182 30.1416 6.99707C31.4253 7.55132 33.0162 7.68612 34.4463 7.02148L34.4912 7L34.5342 6.97461C36.1404 6.02399 38.2568 6.2877 39.5703 7.76465V7.76562C40.5446 8.8632 40.7694 10.3966 40.2793 11.7676L40.2627 11.8135L40.2598 11.8242C40.2584 11.8272 40.2572 11.8309 40.2559 11.834C40.2506 11.846 40.2439 11.8623 40.2363 11.8809C40.1925 11.9873 40.1583 12.0675 40.1221 12.1445L40.1084 12.1748L40.0957 12.207C39.7021 13.2162 39.3747 14.673 39.6768 16.0996C39.9962 17.6077 41.0016 18.9729 43.0283 19.6689L43.0449 19.6748L43.0615 19.6797C44.6333 20.1604 45.8035 21.4718 45.9727 23.0674L45.9844 23.2529C46.1056 25.2692 44.7351 26.9846 42.875 27.4014L42.8213 27.4141L42.7686 27.4316C40.7546 28.122 39.7634 29.4314 39.501 30.9229C39.2568 32.311 39.6686 33.7089 40.0947 34.6699L40.1172 34.7197L40.1455 34.7686C40.1473 34.7723 40.1501 34.7787 40.1543 34.7881C40.1605 34.8018 40.1668 34.8153 40.1768 34.8379C40.1856 34.858 40.1969 34.8848 40.21 34.9131L40.2168 34.9277L40.2236 34.9414C40.2295 34.9531 40.2369 34.9682 40.25 34.9961C40.255 35.0066 40.2616 35.0196 40.2686 35.0342L40.2705 35.04L40.2822 35.0684C40.8933 36.5812 40.5375 38.3978 39.2197 39.5654C37.9279 40.7098 36.0268 40.8195 34.5098 39.9492H34.5088C32.9111 38.9518 31.2081 39.132 29.9209 39.7666C29.276 40.0846 28.7124 40.5247 28.2852 41.0186C27.8925 41.4724 27.5728 42.0251 27.459 42.6182C27.4457 42.656 27.4286 42.7078 27.416 42.7705V42.7734C27.0381 44.6866 25.2979 46.1054 23.2461 45.9844H23.2471C21.4637 45.876 19.9992 44.5112 19.6016 42.7285C19.5086 42.0929 19.1707 41.5003 18.7529 41.0195C18.3251 40.5273 17.7612 40.0897 17.1162 39.7744C15.822 39.1419 14.1099 38.9692 12.5078 39.9814V39.9805C10.9458 40.9306 8.87731 40.7207 7.54785 39.3516L7.4209 39.2148C6.52817 38.2084 6.26805 36.8372 6.60938 35.5508L6.62793 35.4785L6.62988 35.4766L6.64941 35.4111C6.7231 35.1657 6.82179 34.9188 6.93945 34.6885L6.97559 34.6182L7 34.543C7.34475 33.482 7.56021 32.0561 7.19824 30.6934C6.81897 29.2659 5.82267 27.991 3.94434 27.3467L3.9209 27.3389L3.89746 27.332L3.5752 27.2236C1.99616 26.6184 0.898938 25.0515 1.00781 23.2412V23.2393C1.11198 21.4451 2.50147 19.9709 4.29297 19.5928L4.40137 19.5703L4.50293 19.5234C6.14113 18.7722 6.95971 17.4894 7.24609 16.1387C7.52216 14.8362 7.30306 13.5002 6.9668 12.4951L6.93945 12.4121L6.89746 12.334L6.74805 12.0312C6.07259 10.4934 6.40739 8.61777 7.75977 7.41992C9.04975 6.27725 10.9562 6.1705 12.4756 7.04199L12.5127 7.06348L12.5518 7.08203C13.9789 7.74522 15.5532 7.61613 16.8252 7.06152C18.054 6.5257 19.143 5.5255 19.5508 4.23242C19.5656 4.19686 19.5825 4.15461 19.5957 4.10547C19.5989 4.09368 19.5998 4.08119 19.6025 4.06934L19.6035 4.07031C20.0455 2.23069 21.7489 0.886771 23.7441 1.00781ZM40.2471 34.9658C40.2461 34.9628 40.245 34.9597 40.2441 34.957C40.2418 34.9491 40.2399 34.9404 40.2383 34.9346C40.2397 34.9402 40.2429 34.9513 40.2471 34.9658ZM19.4902 4.35547C19.4943 4.34831 19.503 4.33212 19.5127 4.31348L19.5137 4.31445C19.5071 4.32769 19.5014 4.33893 19.4971 4.34668C19.495 4.35043 19.4924 4.35342 19.4912 4.35547H19.4902Z" fill="#CA7FFE" stroke="#2D262D" stroke-width="2"/>
<path d="M23.7139 1.50684H23.7178C25.1786 1.59187 26.4161 2.65711 26.8398 4.12793L26.8652 4.21387L26.959 4.55176L26.9961 4.58887C27.5251 5.9231 28.695 6.91707 29.9434 7.45605C31.3297 8.05463 33.0715 8.21101 34.6562 7.47461L34.7246 7.44336L34.7881 7.40527C36.1949 6.57242 38.0468 6.80444 39.1963 8.09668V8.09766C40.0367 9.04442 40.2437 10.3811 39.8086 11.5986L39.792 11.6475C39.7867 11.6596 39.7801 11.6741 39.7734 11.6904C39.729 11.7984 39.7001 11.8676 39.6699 11.9316L39.6484 11.9775L39.6299 12.0254C39.2166 13.0849 38.8578 14.6461 39.1875 16.2031C39.5432 17.8827 40.6722 19.3892 42.8662 20.1426L42.915 20.1582C44.3076 20.584 45.3172 21.7294 45.4736 23.0938L45.4854 23.2832C45.5914 25.048 44.3929 26.5496 42.7656 26.9141L42.6846 26.9316L42.6064 26.958C40.4334 27.7029 39.3052 29.1518 39.0088 30.8359C38.7397 32.3652 39.1939 33.8711 39.6377 34.8721L39.6719 34.9482L39.7139 35.0205L39.6982 34.9941C39.7031 35.005 39.7082 35.0151 39.7188 35.0391C39.7278 35.0596 39.7407 35.0901 39.7559 35.123L39.7656 35.1445L39.7764 35.165C39.7791 35.1705 39.7832 35.18 39.7969 35.209C39.7997 35.2149 39.8037 35.2221 39.8076 35.2305L39.8184 35.2559C40.3535 36.5806 40.041 38.1698 38.8877 39.1914C37.7738 40.1781 36.1106 40.291 34.7588 39.5156L34.7578 39.5166C32.9881 38.4195 31.104 38.6263 29.7002 39.3184C28.9965 39.6653 28.379 40.1462 27.9072 40.6914C27.4851 41.1793 27.1179 41.7963 26.9766 42.4854C26.9601 42.5355 26.9406 42.5988 26.9258 42.6729L26.9248 42.6768C26.5941 44.35 25.0724 45.5909 23.2764 45.4854H23.2773C21.7407 45.392 20.4429 44.2089 20.0889 42.6182C19.9703 41.8744 19.5811 41.2106 19.1309 40.6924C18.6581 40.1484 18.04 39.6694 17.3359 39.3252C15.9221 38.6342 14.024 38.4355 12.248 39.5537C10.8348 40.4133 8.95062 40.1863 7.79492 38.8828C7.0252 38.0149 6.78955 36.8212 7.09277 35.6787L7.10156 35.6426L7.12793 35.5557C7.19305 35.3387 7.28087 35.1194 7.38477 34.916L7.43848 34.8105L7.47559 34.6973C7.83826 33.581 8.07674 32.0515 7.68164 30.5645C7.26075 28.9804 6.14703 27.574 4.10645 26.874L4.07129 26.8613L4.03613 26.8516L3.75391 26.7568C2.36996 26.2265 1.41176 24.8542 1.50684 23.2715V23.2676C1.59665 21.7242 2.7998 20.419 4.39648 20.082L4.55957 20.0479L4.71191 19.9775C6.50842 19.1535 7.41968 17.7315 7.73535 16.2432C8.03562 14.827 7.79586 13.3965 7.44141 12.3369L7.39941 12.2109L7.33594 12.0957L7.20605 11.8301C6.61406 10.4827 6.9091 8.84144 8.0918 7.79395C9.20286 6.80997 10.8714 6.69845 12.2266 7.47559L12.2822 7.50781L12.3408 7.53516C13.9212 8.26964 15.6477 8.12117 17.0254 7.52051C18.3417 6.94649 19.5515 5.86108 20.0195 4.41016C20.0396 4.36042 20.0602 4.30181 20.0781 4.23535C20.0824 4.21941 20.0831 4.20254 20.0869 4.18652L20.0898 4.1875C20.477 2.57555 21.9687 1.40097 23.7139 1.50684ZM19.9609 4.53809C19.9505 4.55895 19.9414 4.57654 19.9346 4.58887C19.9321 4.59334 19.9285 4.59653 19.9268 4.59961C19.9341 4.58665 19.9466 4.56313 19.96 4.53711L19.9609 4.53809Z" fill="#C8F423" stroke="white" stroke-width="3"/>
<mask id="mask0_6892_11397" style="mask-type:alpha" maskUnits="userSpaceOnUse" x="0" y="0" width="47" height="47">
<path d="M23.7441 1.00781H23.7471C25.4367 1.10627 26.8346 2.32921 27.3154 3.97168L27.3457 4.07422C27.3469 4.07847 27.3484 4.08267 27.3496 4.08691L27.4062 4.29102L27.4229 4.30762C27.8712 5.53581 28.9483 6.48182 30.1416 6.99707C31.4253 7.55132 33.0162 7.68612 34.4463 7.02148L34.4912 7L34.5342 6.97461C36.1404 6.02399 38.2568 6.2877 39.5703 7.76465V7.76562C40.5446 8.8632 40.7694 10.3966 40.2793 11.7676L40.2627 11.8135L40.2598 11.8242C40.2584 11.8272 40.2572 11.8309 40.2559 11.834C40.2506 11.846 40.2439 11.8623 40.2363 11.8809C40.1925 11.9873 40.1583 12.0675 40.1221 12.1445L40.1084 12.1748L40.0957 12.207C39.7021 13.2162 39.3747 14.673 39.6768 16.0996C39.9962 17.6077 41.0016 18.9729 43.0283 19.6689L43.0449 19.6748L43.0615 19.6797C44.6333 20.1604 45.8035 21.4718 45.9727 23.0674L45.9844 23.2529C46.1056 25.2692 44.7351 26.9846 42.875 27.4014L42.8213 27.4141L42.7686 27.4316C40.7546 28.122 39.7634 29.4314 39.501 30.9229C39.2568 32.311 39.6686 33.7089 40.0947 34.6699L40.1172 34.7197L40.1455 34.7686C40.1473 34.7723 40.1501 34.7787 40.1543 34.7881C40.1605 34.8018 40.1668 34.8153 40.1768 34.8379C40.1856 34.858 40.1969 34.8848 40.21 34.9131L40.2168 34.9277L40.2236 34.9414C40.2295 34.9531 40.2369 34.9682 40.25 34.9961C40.255 35.0066 40.2616 35.0196 40.2686 35.0342L40.2705 35.04L40.2822 35.0684C40.8933 36.5812 40.5375 38.3978 39.2197 39.5654C37.9279 40.7098 36.0268 40.8195 34.5098 39.9492H34.5088C32.9111 38.9518 31.2081 39.132 29.9209 39.7666C29.276 40.0846 28.7124 40.5247 28.2852 41.0186C27.8925 41.4724 27.5728 42.0251 27.459 42.6182C27.4457 42.656 27.4286 42.7078 27.416 42.7705V42.7734C27.0381 44.6866 25.2979 46.1054 23.2461 45.9844H23.2471C21.4637 45.876 19.9992 44.5112 19.6016 42.7285C19.5086 42.0929 19.1707 41.5003 18.7529 41.0195C18.3251 40.5273 17.7612 40.0897 17.1162 39.7744C15.822 39.1419 14.1099 38.9692 12.5078 39.9814V39.9805C10.9458 40.9306 8.87731 40.7207 7.54785 39.3516L7.4209 39.2148C6.52817 38.2084 6.26805 36.8372 6.60938 35.5508L6.62793 35.4785L6.62988 35.4766L6.64941 35.4111C6.7231 35.1657 6.82179 34.9188 6.93945 34.6885L6.97559 34.6182L7 34.543C7.34475 33.482 7.56021 32.0561 7.19824 30.6934C6.81897 29.2659 5.82267 27.991 3.94434 27.3467L3.9209 27.3389L3.89746 27.332L3.5752 27.2236C1.99616 26.6184 0.898938 25.0515 1.00781 23.2412V23.2393C1.11198 21.4451 2.50147 19.9709 4.29297 19.5928L4.40137 19.5703L4.50293 19.5234C6.14113 18.7722 6.95971 17.4894 7.24609 16.1387C7.52216 14.8362 7.30306 13.5002 6.9668 12.4951L6.93945 12.4121L6.89746 12.334L6.74805 12.0312C6.07259 10.4934 6.40739 8.61777 7.75977 7.41992C9.04975 6.27725 10.9562 6.1705 12.4756 7.04199L12.5127 7.06348L12.5518 7.08203C13.9789 7.74522 15.5532 7.61613 16.8252 7.06152C18.054 6.5257 19.143 5.5255 19.5508 4.23242C19.5656 4.19686 19.5825 4.15461 19.5957 4.10547C19.5989 4.09368 19.5998 4.08119 19.6025 4.06934L19.6035 4.07031C20.0455 2.23069 21.7489 0.886771 23.7441 1.00781ZM40.2471 34.9658C40.2461 34.9628 40.245 34.9597 40.2441 34.957C40.2418 34.9491 40.2399 34.9404 40.2383 34.9346C40.2397 34.9402 40.2429 34.9513 40.2471 34.9658ZM19.4902 4.35547C19.4943 4.34831 19.503 4.33212 19.5127 4.31348L19.5137 4.31445C19.5071 4.32769 19.5014 4.33893 19.4971 4.34668C19.495 4.35043 19.4924 4.35342 19.4912 4.35547H19.4902Z" fill="white" stroke="#2D262D" stroke-width="2"/>
</mask>
<g mask="url(#mask0_6892_11397)">
<g opacity="0.32">
<path d="M23.353 23.6381L18.1001 0H28.6059L23.353 23.6381Z" fill="url(#paint0_radial_6892_11397)"/>
<path d="M23.353 23.6381L36.3532 3.20901L43.7819 10.6378L23.353 23.6381Z" fill="url(#paint1_radial_6892_11397)"/>
<path d="M23.353 23.6381L46.9911 18.3851V28.8909L23.353 23.6381Z" fill="url(#paint2_radial_6892_11397)"/>
<path d="M23.3534 23.638L43.7824 36.6384L36.3537 44.0671L23.3534 23.638Z" fill="url(#paint3_radial_6892_11397)"/>
<path d="M23.353 23.6381L18.1001 47.2763H28.6059L23.353 23.6381Z" fill="url(#paint4_radial_6892_11397)"/>
<path d="M23.3526 23.6382L2.92354 36.6385L10.3523 44.0673L23.3526 23.6382Z" fill="url(#paint5_radial_6892_11397)"/>
<path d="M23.353 23.6381L-0.285156 18.3849V28.8907L23.353 23.6381Z" fill="url(#paint6_radial_6892_11397)"/>
<path d="M23.3534 23.638L10.3528 3.20885L2.92403 10.6376L23.3534 23.638Z" fill="url(#paint7_radial_6892_11397)"/>
</g>
<path d="M22.2576 31.0781V19.1016C21.3279 20.6484 19.8474 21.4805 17.8162 21.5977L17.1014 18C18.5389 17.9453 19.7342 17.582 20.6873 16.9102C21.6404 16.2305 22.2849 15.3516 22.6209 14.2734H25.9842V31.0781H22.2576Z" fill="#2D262D"/>
<path d="M23.7744 0.508789H23.7754C25.7117 0.621401 27.2819 2.02647 27.8057 3.86621L27.8252 3.93457C27.8257 3.93625 27.8267 3.93778 27.8271 3.93945L27.8525 4.03027L27.8584 4.03613C28.2238 5.14898 29.2013 6.0465 30.3398 6.53809C31.5208 7.04796 32.96 7.16011 34.2354 6.56738L34.2578 6.55762L34.2793 6.54492C36.0851 5.4759 38.4667 5.77123 39.9443 7.43359C41.0524 8.68189 41.2949 10.4113 40.75 11.9355L40.7422 11.959L40.7363 11.9824L40.7354 11.9854V11.9863C40.7331 11.9915 40.7304 11.9973 40.7266 12.0059C40.7205 12.0191 40.709 12.0449 40.6982 12.0713C40.6552 12.1759 40.6175 12.2675 40.5752 12.3574L40.5674 12.373L40.5615 12.3887C40.1875 13.3475 39.8915 14.6998 40.166 15.9961C40.4492 17.3331 41.3314 18.5576 43.1914 19.1963L43.207 19.2021C44.9721 19.7418 46.3113 21.2376 46.4756 23.0859L46.4746 23.0898L46.4834 23.2236C46.6195 25.4914 45.0766 27.421 42.9834 27.8896L42.957 27.8955L42.9307 27.9043C41.0756 28.5402 40.2217 29.711 39.9932 31.0098C39.7739 32.2567 40.1434 33.5458 40.5518 34.4668L40.5635 34.4922L40.5771 34.5166C40.6036 34.562 40.6094 34.5856 40.6641 34.7041L40.667 34.7109L40.6709 34.7178C40.6799 34.7357 40.6895 34.7564 40.7021 34.7832C40.7105 34.801 40.7208 34.8219 40.7314 34.8438L40.7393 34.8672L40.7451 34.8818C41.4322 36.5831 41.0337 38.6269 39.5508 39.9404C38.0826 41.2408 35.9481 41.3483 34.2666 40.3867C32.839 39.4841 31.3141 39.6367 30.1416 40.2148C29.5555 40.5039 29.0458 40.9034 28.6631 41.3457C28.2982 41.7674 28.0265 42.2564 27.9414 42.751C27.9392 42.7564 27.9373 42.7633 27.9346 42.7705C27.9261 42.7932 27.9146 42.8272 27.9062 42.8691V42.8701C27.481 45.0229 25.523 46.6197 23.2158 46.4834H23.2168C21.1812 46.3598 19.5461 44.8048 19.1104 42.8223L19.1084 42.8047C19.0344 42.2914 18.7545 41.7832 18.376 41.3477C17.993 40.9069 17.4827 40.5102 16.8965 40.2236C15.7932 39.6844 14.3794 39.5217 13.0283 40.2549L12.7676 40.4082C10.9557 41.5102 8.53458 41.2249 7.04688 39.5469C6.03098 38.4016 5.74621 36.8525 6.12598 35.4219L6.14355 35.3594V35.3379C6.14448 35.3358 6.14538 35.3335 6.14648 35.3311L6.16113 35.2998L6.1709 35.2676C6.25317 34.9935 6.36264 34.7184 6.49414 34.4609L6.5127 34.4258L6.52441 34.3887C6.85128 33.3827 7.04394 32.0599 6.71484 30.8213C6.37715 29.5504 5.49824 28.4079 3.78223 27.8193L3.77051 27.8154L3.75879 27.8125L3.57617 27.7549C1.70659 27.1278 0.382089 25.3168 0.508789 23.2109V23.21C0.627549 21.1653 2.20331 19.5227 4.18945 19.1035L4.24414 19.0918L4.29492 19.0693C5.77428 18.3909 6.49968 17.248 6.75684 16.0352C7.00882 14.8466 6.81115 13.605 6.49316 12.6543L6.47852 12.6123L6.45801 12.5732L6.37012 12.4043C5.50752 10.6459 5.85562 8.43915 7.42871 7.0459C8.89759 5.74476 11.0411 5.64268 12.7246 6.6084L12.7432 6.61914L12.7627 6.62793C14.0365 7.21992 15.4586 7.11203 16.625 6.60352C17.7757 6.10182 18.7517 5.17608 19.0918 4.03027C19.0982 4.01401 19.1076 3.99646 19.1133 3.97559C19.1152 3.96864 19.1156 3.9611 19.1172 3.9541C19.6137 1.88655 21.5288 0.372561 23.7744 0.508789Z" stroke="#2D262D"/>
</g>
<defs>
<radialGradient id="paint0_radial_6892_11397" cx="0" cy="0" r="1" gradientUnits="userSpaceOnUse" gradientTransform="translate(23.353 23.6381) rotate(90) scale(23.6381)">
<stop stop-color="white"/>
<stop offset="1" stop-color="white" stop-opacity="0"/>
</radialGradient>
<radialGradient id="paint1_radial_6892_11397" cx="0" cy="0" r="1" gradientUnits="userSpaceOnUse" gradientTransform="translate(23.353 23.6381) rotate(90) scale(23.6381)">
<stop stop-color="white"/>
<stop offset="1" stop-color="white" stop-opacity="0"/>
</radialGradient>
<radialGradient id="paint2_radial_6892_11397" cx="0" cy="0" r="1" gradientUnits="userSpaceOnUse" gradientTransform="translate(23.353 23.6381) rotate(90) scale(23.6381)">
<stop stop-color="white"/>
<stop offset="1" stop-color="white" stop-opacity="0"/>
</radialGradient>
<radialGradient id="paint3_radial_6892_11397" cx="0" cy="0" r="1" gradientUnits="userSpaceOnUse" gradientTransform="translate(23.353 23.6381) rotate(90) scale(23.6381)">
<stop stop-color="white"/>
<stop offset="1" stop-color="white" stop-opacity="0"/>
</radialGradient>
<radialGradient id="paint4_radial_6892_11397" cx="0" cy="0" r="1" gradientUnits="userSpaceOnUse" gradientTransform="translate(23.353 23.6381) rotate(90) scale(23.6381)">
<stop stop-color="white"/>
<stop offset="1" stop-color="white" stop-opacity="0"/>
</radialGradient>
<radialGradient id="paint5_radial_6892_11397" cx="0" cy="0" r="1" gradientUnits="userSpaceOnUse" gradientTransform="translate(23.353 23.6381) rotate(90) scale(23.6381)">
<stop stop-color="white"/>
<stop offset="1" stop-color="white" stop-opacity="0"/>
</radialGradient>
<radialGradient id="paint6_radial_6892_11397" cx="0" cy="0" r="1" gradientUnits="userSpaceOnUse" gradientTransform="translate(23.353 23.6381) rotate(90) scale(23.6381)">
<stop stop-color="white"/>
<stop offset="1" stop-color="white" stop-opacity="0"/>
</radialGradient>
<radialGradient id="paint7_radial_6892_11397" cx="0" cy="0" r="1" gradientUnits="userSpaceOnUse" gradientTransform="translate(23.353 23.6381) rotate(90) scale(23.6381)">
<stop stop-color="white"/>
<stop offset="1" stop-color="white" stop-opacity="0"/>
</radialGradient>
</defs>
</svg>
