<svg width="47" height="47" viewBox="0 0 47 47" fill="none" xmlns="http://www.w3.org/2000/svg">
<path d="M23.7441 1.01465H23.7471C25.4367 1.11311 26.8346 2.33604 27.3154 3.97852L27.3457 4.08105C27.3469 4.08531 27.3484 4.0895 27.3496 4.09375L27.4062 4.29785L27.4229 4.31445C27.8712 5.54265 28.9483 6.48865 30.1416 7.00391C31.4253 7.55815 33.0162 7.69295 34.4463 7.02832L34.4912 7.00684L34.5342 6.98145C36.1404 6.03083 38.2568 6.29454 39.5703 7.77148V7.77246C40.5446 8.87003 40.7694 10.4034 40.2793 11.7744L40.2627 11.8203L40.2598 11.8311C40.2584 11.8341 40.2572 11.8377 40.2559 11.8408C40.2506 11.8528 40.2439 11.8691 40.2363 11.8877C40.1925 11.9941 40.1583 12.0743 40.1221 12.1514L40.1084 12.1816L40.0957 12.2139C39.7021 13.223 39.3747 14.6798 39.6768 16.1064C39.9962 17.6146 41.0016 18.9797 43.0283 19.6758L43.0449 19.6816L43.0615 19.6865C44.6333 20.1672 45.8035 21.4786 45.9727 23.0742L45.9844 23.2598C46.1056 25.276 44.7351 26.9915 42.875 27.4082L42.8213 27.4209L42.7686 27.4385C40.7546 28.1289 39.7634 29.4383 39.501 30.9297C39.2568 32.3178 39.6686 33.7157 40.0947 34.6768L40.1172 34.7266L40.1455 34.7754C40.1473 34.7792 40.1501 34.7855 40.1543 34.7949C40.1605 34.8086 40.1668 34.8221 40.1768 34.8447C40.1856 34.8648 40.1969 34.8916 40.21 34.9199L40.2168 34.9346L40.2236 34.9482C40.2295 34.9599 40.2369 34.975 40.25 35.0029C40.255 35.0135 40.2616 35.0264 40.2686 35.041L40.2705 35.0469L40.2822 35.0752C40.8933 36.588 40.5375 38.4046 39.2197 39.5723C37.9279 40.7166 36.0268 40.8263 34.5098 39.9561H34.5088C32.9111 38.9586 31.2081 39.1388 29.9209 39.7734C29.276 40.0914 28.7124 40.5316 28.2852 41.0254C27.8925 41.4792 27.5728 42.0319 27.459 42.625C27.4457 42.6628 27.4286 42.7146 27.416 42.7773V42.7803C27.0381 44.6934 25.2979 46.1123 23.2461 45.9912H23.2471C21.4637 45.8829 19.9992 44.518 19.6016 42.7354C19.5086 42.0997 19.1707 41.5071 18.7529 41.0264C18.3251 40.5341 17.7612 40.0965 17.1162 39.7812C15.822 39.1487 14.1099 38.976 12.5078 39.9883V39.9873C10.9458 40.9375 8.87731 40.7275 7.54785 39.3584L7.4209 39.2217C6.52817 38.2152 6.26805 36.8441 6.60938 35.5576L6.62793 35.4854L6.62988 35.4834L6.64941 35.418C6.7231 35.1725 6.82179 34.9257 6.93945 34.6953L6.97559 34.625L7 34.5498C7.34475 33.4888 7.56021 32.063 7.19824 30.7002C6.81897 29.2727 5.82267 27.9978 3.94434 27.3535L3.9209 27.3457L3.89746 27.3389L3.5752 27.2305C1.99616 26.6253 0.898938 25.0583 1.00781 23.248V23.2461C1.11198 21.4519 2.50147 19.9777 4.29297 19.5996L4.40137 19.5771L4.50293 19.5303C6.14113 18.779 6.95971 17.4962 7.24609 16.1455C7.52216 14.8431 7.30306 13.5071 6.9668 12.502L6.93945 12.4189L6.89746 12.3408L6.74805 12.0381C6.07259 10.5002 6.40739 8.62461 7.75977 7.42676C9.04975 6.28409 10.9562 6.17734 12.4756 7.04883L12.5127 7.07031L12.5518 7.08887C13.9789 7.75205 15.5532 7.62297 16.8252 7.06836C18.054 6.53254 19.143 5.53233 19.5508 4.23926C19.5656 4.20369 19.5825 4.16145 19.5957 4.1123C19.5989 4.10052 19.5998 4.08803 19.6025 4.07617L19.6035 4.07715C20.0455 2.23752 21.7489 0.893607 23.7441 1.01465ZM40.2471 34.9727C40.2461 34.9697 40.245 34.9666 40.2441 34.9639C40.2418 34.956 40.2399 34.9472 40.2383 34.9414C40.2397 34.947 40.2429 34.9581 40.2471 34.9727ZM19.4902 4.3623C19.4943 4.35515 19.503 4.33896 19.5127 4.32031L19.5137 4.32129C19.5071 4.33453 19.5014 4.34576 19.4971 4.35352C19.495 4.35727 19.4924 4.36026 19.4912 4.3623H19.4902Z" fill="#CA7FFE" stroke="#2D262D" stroke-width="2"/>
<path d="M23.7139 1.51367H23.7178C25.1786 1.5987 26.4161 2.66395 26.8398 4.13477L26.8652 4.2207L26.959 4.55859L26.9961 4.5957C27.5251 5.92994 28.695 6.9239 29.9434 7.46289C31.3297 8.06147 33.0715 8.21785 34.6562 7.48145L34.7246 7.4502L34.7881 7.41211C36.1949 6.57926 38.0468 6.81127 39.1963 8.10352V8.10449C40.0367 9.05126 40.2437 10.3879 39.8086 11.6055L39.792 11.6543C39.7867 11.6665 39.7801 11.6809 39.7734 11.6973C39.729 11.8053 39.7001 11.8744 39.6699 11.9385L39.6484 11.9844L39.6299 12.0322C39.2166 13.0917 38.8578 14.653 39.1875 16.21C39.5432 17.8895 40.6722 19.396 42.8662 20.1494L42.915 20.165C44.3076 20.5909 45.3172 21.7362 45.4736 23.1006L45.4854 23.29C45.5914 25.0549 44.3929 26.5564 42.7656 26.9209L42.6846 26.9385L42.6064 26.9648C40.4334 27.7097 39.3052 29.1586 39.0088 30.8428C38.7397 32.372 39.1939 33.8779 39.6377 34.8789L39.6719 34.9551L39.7139 35.0273L39.6982 35.001C39.7031 35.0118 39.7082 35.022 39.7188 35.0459C39.7278 35.0664 39.7407 35.097 39.7559 35.1299L39.7656 35.1514L39.7764 35.1719C39.7791 35.1773 39.7832 35.1869 39.7969 35.2158C39.7997 35.2218 39.8037 35.2289 39.8076 35.2373L39.8184 35.2627C40.3535 36.5874 40.041 38.1766 38.8877 39.1982C37.7738 40.185 36.1106 40.2979 34.7588 39.5225L34.7578 39.5234C32.9881 38.4264 31.104 38.6331 29.7002 39.3252C28.9965 39.6721 28.379 40.153 27.9072 40.6982C27.4851 41.1862 27.1179 41.8031 26.9766 42.4922C26.9601 42.5424 26.9406 42.6056 26.9258 42.6797L26.9248 42.6836C26.5941 44.3568 25.0724 45.5978 23.2764 45.4922H23.2773C21.7407 45.3988 20.4429 44.2157 20.0889 42.625C19.9703 41.8813 19.5811 41.2174 19.1309 40.6992C18.6581 40.1552 18.04 39.6762 17.3359 39.332C15.9221 38.641 14.024 38.4423 12.248 39.5605C10.8348 40.4202 8.95062 40.1932 7.79492 38.8896C7.0252 38.0217 6.78955 36.828 7.09277 35.6855L7.10156 35.6494L7.12793 35.5625C7.19305 35.3455 7.28087 35.1263 7.38477 34.9229L7.43848 34.8174L7.47559 34.7041C7.83826 33.5879 8.07674 32.0584 7.68164 30.5713C7.26075 28.9873 6.14703 27.5808 4.10645 26.8809L4.07129 26.8682L4.03613 26.8584L3.75391 26.7637C2.36996 26.2334 1.41176 24.861 1.50684 23.2783V23.2744C1.59665 21.7311 2.7998 20.4259 4.39648 20.0889L4.55957 20.0547L4.71191 19.9844C6.50842 19.1603 7.41968 17.7383 7.73535 16.25C8.03562 14.8338 7.79586 13.4034 7.44141 12.3438L7.39941 12.2178L7.33594 12.1025L7.20605 11.8369C6.61406 10.4895 6.9091 8.84827 8.0918 7.80078C9.20286 6.8168 10.8714 6.70528 12.2266 7.48242L12.2822 7.51465L12.3408 7.54199C13.9212 8.27648 15.6477 8.12801 17.0254 7.52734C18.3417 6.95332 19.5515 5.86792 20.0195 4.41699C20.0396 4.36725 20.0602 4.30864 20.0781 4.24219C20.0824 4.22625 20.0831 4.20938 20.0869 4.19336L20.0898 4.19434C20.477 2.58239 21.9687 1.40781 23.7139 1.51367ZM19.9609 4.54492C19.9505 4.56578 19.9414 4.58338 19.9346 4.5957C19.9321 4.60018 19.9285 4.60336 19.9268 4.60645C19.9341 4.59349 19.9466 4.56997 19.96 4.54395L19.9609 4.54492Z" fill="#C8F423" stroke="white" stroke-width="3"/>
<mask id="mask0_6892_11425" style="mask-type:alpha" maskUnits="userSpaceOnUse" x="0" y="0" width="47" height="47">
<path d="M23.7441 1.01465H23.7471C25.4367 1.11311 26.8346 2.33604 27.3154 3.97852L27.3457 4.08105C27.3469 4.08531 27.3484 4.0895 27.3496 4.09375L27.4062 4.29785L27.4229 4.31445C27.8712 5.54265 28.9483 6.48865 30.1416 7.00391C31.4253 7.55815 33.0162 7.69295 34.4463 7.02832L34.4912 7.00684L34.5342 6.98145C36.1404 6.03083 38.2568 6.29454 39.5703 7.77148V7.77246C40.5446 8.87003 40.7694 10.4034 40.2793 11.7744L40.2627 11.8203L40.2598 11.8311C40.2584 11.8341 40.2572 11.8377 40.2559 11.8408C40.2506 11.8528 40.2439 11.8691 40.2363 11.8877C40.1925 11.9941 40.1583 12.0743 40.1221 12.1514L40.1084 12.1816L40.0957 12.2139C39.7021 13.223 39.3747 14.6798 39.6768 16.1064C39.9962 17.6146 41.0016 18.9797 43.0283 19.6758L43.0449 19.6816L43.0615 19.6865C44.6333 20.1672 45.8035 21.4786 45.9727 23.0742L45.9844 23.2598C46.1056 25.276 44.7351 26.9915 42.875 27.4082L42.8213 27.4209L42.7686 27.4385C40.7546 28.1289 39.7634 29.4383 39.501 30.9297C39.2568 32.3178 39.6686 33.7157 40.0947 34.6768L40.1172 34.7266L40.1455 34.7754C40.1473 34.7792 40.1501 34.7855 40.1543 34.7949C40.1605 34.8086 40.1668 34.8221 40.1768 34.8447C40.1856 34.8648 40.1969 34.8916 40.21 34.9199L40.2168 34.9346L40.2236 34.9482C40.2295 34.9599 40.2369 34.975 40.25 35.0029C40.255 35.0135 40.2616 35.0264 40.2686 35.041L40.2705 35.0469L40.2822 35.0752C40.8933 36.588 40.5375 38.4046 39.2197 39.5723C37.9279 40.7166 36.0268 40.8263 34.5098 39.9561H34.5088C32.9111 38.9586 31.2081 39.1388 29.9209 39.7734C29.276 40.0914 28.7124 40.5316 28.2852 41.0254C27.8925 41.4792 27.5728 42.0319 27.459 42.625C27.4457 42.6628 27.4286 42.7146 27.416 42.7773V42.7803C27.0381 44.6934 25.2979 46.1123 23.2461 45.9912H23.2471C21.4637 45.8829 19.9992 44.518 19.6016 42.7354C19.5086 42.0997 19.1707 41.5071 18.7529 41.0264C18.3251 40.5341 17.7612 40.0965 17.1162 39.7812C15.822 39.1487 14.1099 38.976 12.5078 39.9883V39.9873C10.9458 40.9375 8.87731 40.7275 7.54785 39.3584L7.4209 39.2217C6.52817 38.2152 6.26805 36.8441 6.60938 35.5576L6.62793 35.4854L6.62988 35.4834L6.64941 35.418C6.7231 35.1725 6.82179 34.9257 6.93945 34.6953L6.97559 34.625L7 34.5498C7.34475 33.4888 7.56021 32.063 7.19824 30.7002C6.81897 29.2727 5.82267 27.9978 3.94434 27.3535L3.9209 27.3457L3.89746 27.3389L3.5752 27.2305C1.99616 26.6253 0.898938 25.0583 1.00781 23.248V23.2461C1.11198 21.4519 2.50147 19.9777 4.29297 19.5996L4.40137 19.5771L4.50293 19.5303C6.14113 18.779 6.95971 17.4962 7.24609 16.1455C7.52216 14.8431 7.30306 13.5071 6.9668 12.502L6.93945 12.4189L6.89746 12.3408L6.74805 12.0381C6.07259 10.5002 6.40739 8.62461 7.75977 7.42676C9.04975 6.28409 10.9562 6.17734 12.4756 7.04883L12.5127 7.07031L12.5518 7.08887C13.9789 7.75205 15.5532 7.62297 16.8252 7.06836C18.054 6.53254 19.143 5.53233 19.5508 4.23926C19.5656 4.20369 19.5825 4.16145 19.5957 4.1123C19.5989 4.10052 19.5998 4.08803 19.6025 4.07617L19.6035 4.07715C20.0455 2.23752 21.7489 0.893607 23.7441 1.01465ZM40.2471 34.9727C40.2461 34.9697 40.245 34.9666 40.2441 34.9639C40.2418 34.956 40.2399 34.9472 40.2383 34.9414C40.2397 34.947 40.2429 34.9581 40.2471 34.9727ZM19.4902 4.3623C19.4943 4.35515 19.503 4.33896 19.5127 4.32031L19.5137 4.32129C19.5071 4.33453 19.5014 4.34576 19.4971 4.35352C19.495 4.35727 19.4924 4.36026 19.4912 4.3623H19.4902Z" fill="white" stroke="#2D262D" stroke-width="2"/>
</mask>
<g mask="url(#mask0_6892_11425)">
<g opacity="0.32">
<path d="M23.353 23.645L18.1001 0.00683594H28.6059L23.353 23.645Z" fill="url(#paint0_radial_6892_11425)"/>
<path d="M23.353 23.645L36.3532 3.21585L43.7819 10.6446L23.353 23.645Z" fill="url(#paint1_radial_6892_11425)"/>
<path d="M23.353 23.645L46.9911 18.3919V28.8977L23.353 23.645Z" fill="url(#paint2_radial_6892_11425)"/>
<path d="M23.3534 23.6449L43.7824 36.6452L36.3537 44.0739L23.3534 23.6449Z" fill="url(#paint3_radial_6892_11425)"/>
<path d="M23.353 23.645L18.1001 47.2831H28.6059L23.353 23.645Z" fill="url(#paint4_radial_6892_11425)"/>
<path d="M23.3526 23.645L2.92354 36.6454L10.3523 44.0741L23.3526 23.645Z" fill="url(#paint5_radial_6892_11425)"/>
<path d="M23.353 23.645L-0.285156 18.3917V28.8976L23.353 23.645Z" fill="url(#paint6_radial_6892_11425)"/>
<path d="M23.3534 23.6449L10.3528 3.21569L2.92403 10.6444L23.3534 23.6449Z" fill="url(#paint7_radial_6892_11425)"/>
</g>
<path d="M24.0779 31.085V27.4873H16.3435V24.124C17.3123 23.249 18.0428 22.4014 18.5349 21.5811C18.9959 20.7998 19.3045 19.9912 19.4607 19.1553C19.6248 18.3115 19.7068 17.21 19.7068 15.8506V14.2803H23.3045V15.8506C23.3045 17.6553 23.0896 19.2139 22.6599 20.5264C22.2303 21.8389 21.4881 23.0771 20.4334 24.2412H24.0779V19.4717H27.6756V24.2412H30.2654V27.4873H27.6756V31.085H24.0779Z" fill="#2D262D"/>
<path d="M23.7744 0.515625H23.7754C25.7117 0.628237 27.2819 2.0333 27.8057 3.87305L27.8252 3.94141C27.8257 3.94308 27.8267 3.94461 27.8271 3.94629L27.8525 4.03711L27.8584 4.04297C28.2238 5.15581 29.2013 6.05334 30.3398 6.54492C31.5208 7.0548 32.96 7.16694 34.2354 6.57422L34.2578 6.56445L34.2793 6.55176C36.0851 5.48274 38.4667 5.77807 39.9443 7.44043C41.0524 8.68872 41.2949 10.4181 40.75 11.9424L40.7422 11.9658L40.7363 11.9893L40.7354 11.9922V11.9932C40.7331 11.9984 40.7304 12.0042 40.7266 12.0127C40.7205 12.026 40.709 12.0518 40.6982 12.0781C40.6552 12.1827 40.6175 12.2743 40.5752 12.3643L40.5674 12.3799L40.5615 12.3955C40.1875 13.3543 39.8915 14.7067 40.166 16.0029C40.4492 17.3399 41.3314 18.5644 43.1914 19.2031L43.207 19.209C44.9721 19.7486 46.3113 21.2444 46.4756 23.0928L46.4746 23.0967L46.4834 23.2305C46.6195 25.4982 45.0766 27.4278 42.9834 27.8965L42.957 27.9023L42.9307 27.9111C41.0756 28.547 40.2217 29.7179 39.9932 31.0166C39.7739 32.2635 40.1434 33.5526 40.5518 34.4736L40.5635 34.499L40.5771 34.5234C40.6036 34.5688 40.6094 34.5925 40.6641 34.7109L40.667 34.7178L40.6709 34.7246C40.6799 34.7426 40.6895 34.7632 40.7021 34.79C40.7105 34.8078 40.7208 34.8288 40.7314 34.8506L40.7393 34.874L40.7451 34.8887C41.4322 36.5899 41.0337 38.6337 39.5508 39.9473C38.0826 41.2477 35.9481 41.3551 34.2666 40.3936C32.839 39.4909 31.3141 39.6436 30.1416 40.2217C29.5555 40.5107 29.0458 40.9102 28.6631 41.3525C28.2982 41.7743 28.0265 42.2632 27.9414 42.7578C27.9392 42.7632 27.9373 42.7702 27.9346 42.7773C27.9261 42.8 27.9146 42.8341 27.9062 42.876V42.877C27.481 45.0297 25.523 46.6266 23.2158 46.4902H23.2168C21.1812 46.3666 19.5461 44.8116 19.1104 42.8291L19.1084 42.8115C19.0344 42.2982 18.7545 41.7901 18.376 41.3545C17.993 40.9137 17.4827 40.517 16.8965 40.2305C15.7932 39.6912 14.3794 39.5285 13.0283 40.2617L12.7676 40.415C10.9557 41.517 8.53458 41.2317 7.04688 39.5537C6.03098 38.4084 5.74621 36.8593 6.12598 35.4287L6.14355 35.3662V35.3447C6.14448 35.3426 6.14538 35.3403 6.14648 35.3379L6.16113 35.3066L6.1709 35.2744C6.25317 35.0003 6.36264 34.7252 6.49414 34.4678L6.5127 34.4326L6.52441 34.3955C6.85128 33.3895 7.04394 32.0667 6.71484 30.8281C6.37715 29.5573 5.49824 28.4148 3.78223 27.8262L3.77051 27.8223L3.75879 27.8193L3.57617 27.7617C1.70659 27.1346 0.382089 25.3236 0.508789 23.2178V23.2168C0.627549 21.1721 2.20331 19.5295 4.18945 19.1104L4.24414 19.0986L4.29492 19.0762C5.77428 18.3977 6.49968 17.2548 6.75684 16.042C7.00882 14.8534 6.81115 13.6118 6.49316 12.6611L6.47852 12.6191L6.45801 12.5801L6.37012 12.4111C5.50752 10.6527 5.85562 8.44599 7.42871 7.05273C8.89759 5.75159 11.0411 5.64952 12.7246 6.61523L12.7432 6.62598L12.7627 6.63477C14.0365 7.22676 15.4586 7.11886 16.625 6.61035C17.7757 6.10866 18.7517 5.18292 19.0918 4.03711C19.0982 4.02084 19.1076 4.0033 19.1133 3.98242C19.1152 3.97547 19.1156 3.96794 19.1172 3.96094C19.6137 1.89338 21.5288 0.379397 23.7744 0.515625Z" stroke="#2D262D"/>
</g>
<defs>
<radialGradient id="paint0_radial_6892_11425" cx="0" cy="0" r="1" gradientUnits="userSpaceOnUse" gradientTransform="translate(23.353 23.645) rotate(90) scale(23.6381)">
<stop stop-color="white"/>
<stop offset="1" stop-color="white" stop-opacity="0"/>
</radialGradient>
<radialGradient id="paint1_radial_6892_11425" cx="0" cy="0" r="1" gradientUnits="userSpaceOnUse" gradientTransform="translate(23.353 23.645) rotate(90) scale(23.6381)">
<stop stop-color="white"/>
<stop offset="1" stop-color="white" stop-opacity="0"/>
</radialGradient>
<radialGradient id="paint2_radial_6892_11425" cx="0" cy="0" r="1" gradientUnits="userSpaceOnUse" gradientTransform="translate(23.353 23.645) rotate(90) scale(23.6381)">
<stop stop-color="white"/>
<stop offset="1" stop-color="white" stop-opacity="0"/>
</radialGradient>
<radialGradient id="paint3_radial_6892_11425" cx="0" cy="0" r="1" gradientUnits="userSpaceOnUse" gradientTransform="translate(23.353 23.645) rotate(90) scale(23.6381)">
<stop stop-color="white"/>
<stop offset="1" stop-color="white" stop-opacity="0"/>
</radialGradient>
<radialGradient id="paint4_radial_6892_11425" cx="0" cy="0" r="1" gradientUnits="userSpaceOnUse" gradientTransform="translate(23.353 23.645) rotate(90) scale(23.6381)">
<stop stop-color="white"/>
<stop offset="1" stop-color="white" stop-opacity="0"/>
</radialGradient>
<radialGradient id="paint5_radial_6892_11425" cx="0" cy="0" r="1" gradientUnits="userSpaceOnUse" gradientTransform="translate(23.353 23.645) rotate(90) scale(23.6381)">
<stop stop-color="white"/>
<stop offset="1" stop-color="white" stop-opacity="0"/>
</radialGradient>
<radialGradient id="paint6_radial_6892_11425" cx="0" cy="0" r="1" gradientUnits="userSpaceOnUse" gradientTransform="translate(23.353 23.645) rotate(90) scale(23.6381)">
<stop stop-color="white"/>
<stop offset="1" stop-color="white" stop-opacity="0"/>
</radialGradient>
<radialGradient id="paint7_radial_6892_11425" cx="0" cy="0" r="1" gradientUnits="userSpaceOnUse" gradientTransform="translate(23.353 23.645) rotate(90) scale(23.6381)">
<stop stop-color="white"/>
<stop offset="1" stop-color="white" stop-opacity="0"/>
</radialGradient>
</defs>
</svg>
