<svg width="47" height="47" viewBox="0 0 47 47" fill="none" xmlns="http://www.w3.org/2000/svg">
<path d="M23.7441 1.01172H23.7471C25.4367 1.11018 26.8346 2.33311 27.3154 3.97559L27.3457 4.07812C27.3469 4.08238 27.3484 4.08657 27.3496 4.09082L27.4062 4.29492L27.4229 4.31152C27.8712 5.53972 28.9483 6.48572 30.1416 7.00098C31.4253 7.55522 33.0162 7.69003 34.4463 7.02539L34.4912 7.00391L34.5342 6.97852C36.1404 6.0279 38.2568 6.29161 39.5703 7.76855V7.76953C40.5446 8.8671 40.7694 10.4005 40.2793 11.7715L40.2627 11.8174L40.2598 11.8281C40.2584 11.8311 40.2572 11.8348 40.2559 11.8379C40.2506 11.8499 40.2439 11.8662 40.2363 11.8848C40.1925 11.9912 40.1583 12.0714 40.1221 12.1484L40.1084 12.1787L40.0957 12.2109C39.7021 13.2201 39.3747 14.6769 39.6768 16.1035C39.9962 17.6117 41.0016 18.9768 43.0283 19.6729L43.0449 19.6787L43.0615 19.6836C44.6333 20.1643 45.8035 21.4757 45.9727 23.0713L45.9844 23.2568C46.1056 25.2731 44.7351 26.9885 42.875 27.4053L42.8213 27.418L42.7686 27.4355C40.7546 28.126 39.7634 29.4353 39.501 30.9268C39.2568 32.3149 39.6686 33.7128 40.0947 34.6738L40.1172 34.7236L40.1455 34.7725C40.1473 34.7762 40.1501 34.7826 40.1543 34.792C40.1605 34.8057 40.1668 34.8192 40.1768 34.8418C40.1856 34.8619 40.1969 34.8887 40.21 34.917L40.2168 34.9316L40.2236 34.9453C40.2295 34.957 40.2369 34.9721 40.25 35C40.255 35.0105 40.2616 35.0235 40.2686 35.0381L40.2705 35.0439L40.2822 35.0723C40.8933 36.5851 40.5375 38.4017 39.2197 39.5693C37.9279 40.7137 36.0268 40.8234 34.5098 39.9531H34.5088C32.9111 38.9557 31.2081 39.1359 29.9209 39.7705C29.276 40.0885 28.7124 40.5287 28.2852 41.0225C27.8925 41.4763 27.5728 42.029 27.459 42.6221C27.4457 42.6599 27.4286 42.7117 27.416 42.7744V42.7773C27.0381 44.6905 25.2979 46.1094 23.2461 45.9883H23.2471C21.4637 45.88 19.9992 44.5151 19.6016 42.7324C19.5086 42.0968 19.1707 41.5042 18.7529 41.0234C18.3251 40.5312 17.7612 40.0936 17.1162 39.7783C15.822 39.1458 14.1099 38.9731 12.5078 39.9854V39.9844C10.9458 40.9345 8.87731 40.7246 7.54785 39.3555L7.4209 39.2188C6.52817 38.2123 6.26805 36.8411 6.60938 35.5547L6.62793 35.4824L6.62988 35.4805L6.64941 35.415C6.7231 35.1696 6.82179 34.9227 6.93945 34.6924L6.97559 34.6221L7 34.5469C7.34475 33.4859 7.56021 32.06 7.19824 30.6973C6.81897 29.2698 5.82267 27.9949 3.94434 27.3506L3.9209 27.3428L3.89746 27.3359L3.5752 27.2275C1.99616 26.6223 0.898938 25.0554 1.00781 23.2451V23.2432C1.11198 21.449 2.50147 19.9748 4.29297 19.5967L4.40137 19.5742L4.50293 19.5273C6.14113 18.7761 6.95971 17.4933 7.24609 16.1426C7.52216 14.8401 7.30306 13.5042 6.9668 12.499L6.93945 12.416L6.89746 12.3379L6.74805 12.0352C6.07259 10.4973 6.40739 8.62168 7.75977 7.42383C9.04975 6.28116 10.9562 6.17441 12.4756 7.0459L12.5127 7.06738L12.5518 7.08594C13.9789 7.74913 15.5532 7.62004 16.8252 7.06543C18.054 6.52961 19.143 5.5294 19.5508 4.23633C19.5656 4.20076 19.5825 4.15852 19.5957 4.10938C19.5989 4.09759 19.5998 4.0851 19.6025 4.07324L19.6035 4.07422C20.0455 2.23459 21.7489 0.890677 23.7441 1.01172ZM40.2471 34.9697C40.2461 34.9668 40.245 34.9636 40.2441 34.9609C40.2418 34.953 40.2399 34.9443 40.2383 34.9385C40.2397 34.9441 40.2429 34.9552 40.2471 34.9697ZM19.4902 4.35938C19.4943 4.35222 19.503 4.33603 19.5127 4.31738L19.5137 4.31836C19.5071 4.3316 19.5014 4.34283 19.4971 4.35059C19.495 4.35434 19.4924 4.35733 19.4912 4.35938H19.4902Z" fill="#CA7FFE" stroke="#2D262D" stroke-width="2"/>
<path d="M23.7139 1.51074H23.7178C25.1786 1.59577 26.4161 2.66102 26.8398 4.13184L26.8652 4.21777L26.959 4.55566L26.9961 4.59277C27.5251 5.92701 28.695 6.92097 29.9434 7.45996C31.3297 8.05854 33.0715 8.21492 34.6562 7.47852L34.7246 7.44727L34.7881 7.40918C36.1949 6.57633 38.0468 6.80834 39.1963 8.10059V8.10156C40.0367 9.04833 40.2437 10.385 39.8086 11.6025L39.792 11.6514C39.7867 11.6635 39.7801 11.678 39.7734 11.6943C39.729 11.8023 39.7001 11.8715 39.6699 11.9355L39.6484 11.9814L39.6299 12.0293C39.2166 13.0888 38.8578 14.65 39.1875 16.207C39.5432 17.8866 40.6722 19.3931 42.8662 20.1465L42.915 20.1621C44.3076 20.5879 45.3172 21.7333 45.4736 23.0977L45.4854 23.2871C45.5914 25.0519 44.3929 26.5535 42.7656 26.918L42.6846 26.9355L42.6064 26.9619C40.4334 27.7068 39.3052 29.1557 39.0088 30.8398C38.7397 32.3691 39.1939 33.875 39.6377 34.876L39.6719 34.9521L39.7139 35.0244L39.6982 34.998C39.7031 35.0089 39.7082 35.019 39.7188 35.043C39.7278 35.0635 39.7407 35.094 39.7559 35.127L39.7656 35.1484L39.7764 35.1689C39.7791 35.1744 39.7832 35.1839 39.7969 35.2129C39.7997 35.2188 39.8037 35.226 39.8076 35.2344L39.8184 35.2598C40.3535 36.5845 40.041 38.1737 38.8877 39.1953C37.7738 40.182 36.1106 40.295 34.7588 39.5195L34.7578 39.5205C32.9881 38.4234 31.104 38.6302 29.7002 39.3223C28.9965 39.6692 28.379 40.1501 27.9072 40.6953C27.4851 41.1832 27.1179 41.8002 26.9766 42.4893C26.9601 42.5394 26.9406 42.6027 26.9258 42.6768L26.9248 42.6807C26.5941 44.3539 25.0724 45.5948 23.2764 45.4893H23.2773C21.7407 45.3959 20.4429 44.2128 20.0889 42.6221C19.9703 41.8783 19.5811 41.2145 19.1309 40.6963C18.6581 40.1523 18.04 39.6733 17.3359 39.3291C15.9221 38.6381 14.024 38.4394 12.248 39.5576C10.8348 40.4172 8.95062 40.1903 7.79492 38.8867C7.0252 38.0188 6.78955 36.8251 7.09277 35.6826L7.10156 35.6465L7.12793 35.5596C7.19305 35.3426 7.28087 35.1233 7.38477 34.9199L7.43848 34.8145L7.47559 34.7012C7.83826 33.5849 8.07674 32.0554 7.68164 30.5684C7.26075 28.9843 6.14703 27.5779 4.10645 26.8779L4.07129 26.8652L4.03613 26.8555L3.75391 26.7607C2.36996 26.2304 1.41176 24.8581 1.50684 23.2754V23.2715C1.59665 21.7281 2.7998 20.4229 4.39648 20.0859L4.55957 20.0518L4.71191 19.9814C6.50842 19.1574 7.41968 17.7354 7.73535 16.2471C8.03562 14.8309 7.79586 13.4004 7.44141 12.3408L7.39941 12.2148L7.33594 12.0996L7.20605 11.834C6.61406 10.4866 6.9091 8.84534 8.0918 7.79785C9.20286 6.81387 10.8714 6.70235 12.2266 7.47949L12.2822 7.51172L12.3408 7.53906C13.9212 8.27355 15.6477 8.12508 17.0254 7.52441C18.3417 6.95039 19.5515 5.86499 20.0195 4.41406C20.0396 4.36432 20.0602 4.30571 20.0781 4.23926C20.0824 4.22332 20.0831 4.20645 20.0869 4.19043L20.0898 4.19141C20.477 2.57946 21.9687 1.40488 23.7139 1.51074ZM19.9609 4.54199C19.9505 4.56285 19.9414 4.58045 19.9346 4.59277C19.9321 4.59725 19.9285 4.60043 19.9268 4.60352C19.9341 4.59056 19.9466 4.56704 19.96 4.54102L19.9609 4.54199Z" fill="#C8F423" stroke="white" stroke-width="3"/>
<mask id="mask0_6892_11418" style="mask-type:alpha" maskUnits="userSpaceOnUse" x="0" y="0" width="47" height="47">
<path d="M23.7441 1.01172H23.7471C25.4367 1.11018 26.8346 2.33311 27.3154 3.97559L27.3457 4.07812C27.3469 4.08238 27.3484 4.08657 27.3496 4.09082L27.4062 4.29492L27.4229 4.31152C27.8712 5.53972 28.9483 6.48572 30.1416 7.00098C31.4253 7.55522 33.0162 7.69003 34.4463 7.02539L34.4912 7.00391L34.5342 6.97852C36.1404 6.0279 38.2568 6.29161 39.5703 7.76855V7.76953C40.5446 8.8671 40.7694 10.4005 40.2793 11.7715L40.2627 11.8174L40.2598 11.8281C40.2584 11.8311 40.2572 11.8348 40.2559 11.8379C40.2506 11.8499 40.2439 11.8662 40.2363 11.8848C40.1925 11.9912 40.1583 12.0714 40.1221 12.1484L40.1084 12.1787L40.0957 12.2109C39.7021 13.2201 39.3747 14.6769 39.6768 16.1035C39.9962 17.6117 41.0016 18.9768 43.0283 19.6729L43.0449 19.6787L43.0615 19.6836C44.6333 20.1643 45.8035 21.4757 45.9727 23.0713L45.9844 23.2568C46.1056 25.2731 44.7351 26.9885 42.875 27.4053L42.8213 27.418L42.7686 27.4355C40.7546 28.126 39.7634 29.4353 39.501 30.9268C39.2568 32.3149 39.6686 33.7128 40.0947 34.6738L40.1172 34.7236L40.1455 34.7725C40.1473 34.7762 40.1501 34.7826 40.1543 34.792C40.1605 34.8057 40.1668 34.8192 40.1768 34.8418C40.1856 34.8619 40.1969 34.8887 40.21 34.917L40.2168 34.9316L40.2236 34.9453C40.2295 34.957 40.2369 34.9721 40.25 35C40.255 35.0105 40.2616 35.0235 40.2686 35.0381L40.2705 35.0439L40.2822 35.0723C40.8933 36.5851 40.5375 38.4017 39.2197 39.5693C37.9279 40.7137 36.0268 40.8234 34.5098 39.9531H34.5088C32.9111 38.9557 31.2081 39.1359 29.9209 39.7705C29.276 40.0885 28.7124 40.5287 28.2852 41.0225C27.8925 41.4763 27.5728 42.029 27.459 42.6221C27.4457 42.6599 27.4286 42.7117 27.416 42.7744V42.7773C27.0381 44.6905 25.2979 46.1094 23.2461 45.9883H23.2471C21.4637 45.88 19.9992 44.5151 19.6016 42.7324C19.5086 42.0968 19.1707 41.5042 18.7529 41.0234C18.3251 40.5312 17.7612 40.0936 17.1162 39.7783C15.822 39.1458 14.1099 38.9731 12.5078 39.9854V39.9844C10.9458 40.9345 8.87731 40.7246 7.54785 39.3555L7.4209 39.2188C6.52817 38.2123 6.26805 36.8411 6.60938 35.5547L6.62793 35.4824L6.62988 35.4805L6.64941 35.415C6.7231 35.1696 6.82179 34.9227 6.93945 34.6924L6.97559 34.6221L7 34.5469C7.34475 33.4859 7.56021 32.06 7.19824 30.6973C6.81897 29.2698 5.82267 27.9949 3.94434 27.3506L3.9209 27.3428L3.89746 27.3359L3.5752 27.2275C1.99616 26.6223 0.898938 25.0554 1.00781 23.2451V23.2432C1.11198 21.449 2.50147 19.9748 4.29297 19.5967L4.40137 19.5742L4.50293 19.5273C6.14113 18.7761 6.95971 17.4933 7.24609 16.1426C7.52216 14.8401 7.30306 13.5042 6.9668 12.499L6.93945 12.416L6.89746 12.3379L6.74805 12.0352C6.07259 10.4973 6.40739 8.62168 7.75977 7.42383C9.04975 6.28116 10.9562 6.17441 12.4756 7.0459L12.5127 7.06738L12.5518 7.08594C13.9789 7.74913 15.5532 7.62004 16.8252 7.06543C18.054 6.52961 19.143 5.5294 19.5508 4.23633C19.5656 4.20076 19.5825 4.15852 19.5957 4.10938C19.5989 4.09759 19.5998 4.0851 19.6025 4.07324L19.6035 4.07422C20.0455 2.23459 21.7489 0.890677 23.7441 1.01172ZM40.2471 34.9697C40.2461 34.9668 40.245 34.9636 40.2441 34.9609C40.2418 34.953 40.2399 34.9443 40.2383 34.9385C40.2397 34.9441 40.2429 34.9552 40.2471 34.9697ZM19.4902 4.35938C19.4943 4.35222 19.503 4.33603 19.5127 4.31738L19.5137 4.31836C19.5071 4.3316 19.5014 4.34283 19.4971 4.35059C19.495 4.35434 19.4924 4.35733 19.4912 4.35938H19.4902Z" fill="white" stroke="#2D262D" stroke-width="2"/>
</mask>
<g mask="url(#mask0_6892_11418)">
<g opacity="0.32">
<path d="M23.353 23.6421L18.1001 0.00390625H28.6059L23.353 23.6421Z" fill="url(#paint0_radial_6892_11418)"/>
<path d="M23.353 23.6421L36.3532 3.21292L43.7819 10.6417L23.353 23.6421Z" fill="url(#paint1_radial_6892_11418)"/>
<path d="M23.353 23.6421L46.9911 18.389V28.8948L23.353 23.6421Z" fill="url(#paint2_radial_6892_11418)"/>
<path d="M23.3534 23.6419L43.7824 36.6423L36.3537 44.071L23.3534 23.6419Z" fill="url(#paint3_radial_6892_11418)"/>
<path d="M23.353 23.6421L18.1001 47.2802H28.6059L23.353 23.6421Z" fill="url(#paint4_radial_6892_11418)"/>
<path d="M23.3526 23.6421L2.92354 36.6424L10.3523 44.0712L23.3526 23.6421Z" fill="url(#paint5_radial_6892_11418)"/>
<path d="M23.353 23.6421L-0.285156 18.3888V28.8947L23.353 23.6421Z" fill="url(#paint6_radial_6892_11418)"/>
<path d="M23.3534 23.6419L10.3528 3.21276L2.92403 10.6415L23.3534 23.6419Z" fill="url(#paint7_radial_6892_11418)"/>
</g>
<path d="M16.4373 25.7979L19.8006 24.3682C19.8553 25.5166 20.1717 26.4033 20.7498 27.0283C21.3279 27.6533 22.0896 27.9658 23.0349 27.9658C23.8474 27.9658 24.5115 27.7275 25.0271 27.251C25.5428 26.7666 25.8006 26.1221 25.8006 25.3174C25.8006 24.5205 25.5389 23.876 25.0154 23.3838C24.4998 22.8838 23.8474 22.6338 23.0584 22.6338C22.1599 22.6338 21.4334 22.9697 20.8787 23.6416L18.8396 21.1221L23.0584 17.5244H17.281V14.2783H28.5545V16.9268L24.5935 20.2783C25.1873 20.2783 25.7615 20.3994 26.3162 20.6416C26.8787 20.876 27.3787 21.2041 27.8162 21.626C28.2615 22.0479 28.617 22.5791 28.8826 23.2197C29.1482 23.8604 29.281 24.5596 29.281 25.3174C29.281 27.1143 28.7029 28.5635 27.5467 29.665C26.3982 30.7666 24.8943 31.3174 23.0349 31.3174C21.2146 31.3174 19.742 30.833 18.617 29.8643C17.492 28.8877 16.7654 27.5322 16.4373 25.7979Z" fill="#2D262D"/>
<path d="M23.7744 0.512695H23.7754C25.7117 0.625307 27.2819 2.03037 27.8057 3.87012L27.8252 3.93848C27.8257 3.94015 27.8267 3.94169 27.8271 3.94336L27.8525 4.03418L27.8584 4.04004C28.2238 5.15288 29.2013 6.05041 30.3398 6.54199C31.5208 7.05187 32.96 7.16401 34.2354 6.57129L34.2578 6.56152L34.2793 6.54883C36.0851 5.47981 38.4667 5.77514 39.9443 7.4375C41.0524 8.68579 41.2949 10.4152 40.75 11.9395L40.7422 11.9629L40.7363 11.9863L40.7354 11.9893V11.9902C40.7331 11.9954 40.7304 12.0012 40.7266 12.0098C40.7205 12.023 40.709 12.0488 40.6982 12.0752C40.6552 12.1798 40.6175 12.2714 40.5752 12.3613L40.5674 12.377L40.5615 12.3926C40.1875 13.3514 39.8915 14.7038 40.166 16C40.4492 17.337 41.3314 18.5615 43.1914 19.2002L43.207 19.2061C44.9721 19.7457 46.3113 21.2415 46.4756 23.0898L46.4746 23.0938L46.4834 23.2275C46.6195 25.4953 45.0766 27.4249 42.9834 27.8936L42.957 27.8994L42.9307 27.9082C41.0756 28.5441 40.2217 29.715 39.9932 31.0137C39.7739 32.2606 40.1434 33.5497 40.5518 34.4707L40.5635 34.4961L40.5771 34.5205C40.6036 34.5659 40.6094 34.5895 40.6641 34.708L40.667 34.7148L40.6709 34.7217C40.6799 34.7396 40.6895 34.7603 40.7021 34.7871C40.7105 34.8049 40.7208 34.8258 40.7314 34.8477L40.7393 34.8711L40.7451 34.8857C41.4322 36.587 41.0337 38.6308 39.5508 39.9443C38.0826 41.2447 35.9481 41.3522 34.2666 40.3906C32.839 39.488 31.3141 39.6406 30.1416 40.2188C29.5555 40.5078 29.0458 40.9073 28.6631 41.3496C28.2982 41.7713 28.0265 42.2603 27.9414 42.7549C27.9392 42.7603 27.9373 42.7672 27.9346 42.7744C27.9261 42.7971 27.9146 42.8311 27.9062 42.873V42.874C27.481 45.0268 25.523 46.6236 23.2158 46.4873H23.2168C21.1812 46.3637 19.5461 44.8087 19.1104 42.8262L19.1084 42.8086C19.0344 42.2953 18.7545 41.7872 18.376 41.3516C17.993 40.9108 17.4827 40.5141 16.8965 40.2275C15.7932 39.6883 14.3794 39.5256 13.0283 40.2588L12.7676 40.4121C10.9557 41.5141 8.53458 41.2288 7.04688 39.5508C6.03098 38.4055 5.74621 36.8564 6.12598 35.4258L6.14355 35.3633V35.3418C6.14448 35.3397 6.14538 35.3374 6.14648 35.335L6.16113 35.3037L6.1709 35.2715C6.25317 34.9974 6.36264 34.7223 6.49414 34.4648L6.5127 34.4297L6.52441 34.3926C6.85128 33.3866 7.04394 32.0638 6.71484 30.8252C6.37715 29.5543 5.49824 28.4118 3.78223 27.8232L3.77051 27.8193L3.75879 27.8164L3.57617 27.7588C1.70659 27.1317 0.382089 25.3207 0.508789 23.2148V23.2139C0.627549 21.1692 2.20331 19.5266 4.18945 19.1074L4.24414 19.0957L4.29492 19.0732C5.77428 18.3948 6.49968 17.2519 6.75684 16.0391C7.00882 14.8505 6.81115 13.6089 6.49316 12.6582L6.47852 12.6162L6.45801 12.5771L6.37012 12.4082C5.50752 10.6498 5.85562 8.44306 7.42871 7.0498C8.89759 5.74866 11.0411 5.64659 12.7246 6.6123L12.7432 6.62305L12.7627 6.63184C14.0365 7.22383 15.4586 7.11593 16.625 6.60742C17.7757 6.10573 18.7517 5.17999 19.0918 4.03418C19.0982 4.01791 19.1076 4.00037 19.1133 3.97949C19.1152 3.97254 19.1156 3.96501 19.1172 3.95801C19.6137 1.89045 21.5288 0.376467 23.7744 0.512695Z" stroke="#2D262D"/>
</g>
<defs>
<radialGradient id="paint0_radial_6892_11418" cx="0" cy="0" r="1" gradientUnits="userSpaceOnUse" gradientTransform="translate(23.353 23.6421) rotate(90) scale(23.6381)">
<stop stop-color="white"/>
<stop offset="1" stop-color="white" stop-opacity="0"/>
</radialGradient>
<radialGradient id="paint1_radial_6892_11418" cx="0" cy="0" r="1" gradientUnits="userSpaceOnUse" gradientTransform="translate(23.353 23.6421) rotate(90) scale(23.6381)">
<stop stop-color="white"/>
<stop offset="1" stop-color="white" stop-opacity="0"/>
</radialGradient>
<radialGradient id="paint2_radial_6892_11418" cx="0" cy="0" r="1" gradientUnits="userSpaceOnUse" gradientTransform="translate(23.353 23.6421) rotate(90) scale(23.6381)">
<stop stop-color="white"/>
<stop offset="1" stop-color="white" stop-opacity="0"/>
</radialGradient>
<radialGradient id="paint3_radial_6892_11418" cx="0" cy="0" r="1" gradientUnits="userSpaceOnUse" gradientTransform="translate(23.353 23.6421) rotate(90) scale(23.6381)">
<stop stop-color="white"/>
<stop offset="1" stop-color="white" stop-opacity="0"/>
</radialGradient>
<radialGradient id="paint4_radial_6892_11418" cx="0" cy="0" r="1" gradientUnits="userSpaceOnUse" gradientTransform="translate(23.353 23.6421) rotate(90) scale(23.6381)">
<stop stop-color="white"/>
<stop offset="1" stop-color="white" stop-opacity="0"/>
</radialGradient>
<radialGradient id="paint5_radial_6892_11418" cx="0" cy="0" r="1" gradientUnits="userSpaceOnUse" gradientTransform="translate(23.353 23.6421) rotate(90) scale(23.6381)">
<stop stop-color="white"/>
<stop offset="1" stop-color="white" stop-opacity="0"/>
</radialGradient>
<radialGradient id="paint6_radial_6892_11418" cx="0" cy="0" r="1" gradientUnits="userSpaceOnUse" gradientTransform="translate(23.353 23.6421) rotate(90) scale(23.6381)">
<stop stop-color="white"/>
<stop offset="1" stop-color="white" stop-opacity="0"/>
</radialGradient>
<radialGradient id="paint7_radial_6892_11418" cx="0" cy="0" r="1" gradientUnits="userSpaceOnUse" gradientTransform="translate(23.353 23.6421) rotate(90) scale(23.6381)">
<stop stop-color="white"/>
<stop offset="1" stop-color="white" stop-opacity="0"/>
</radialGradient>
</defs>
</svg>
