<svg width="47" height="47" viewBox="0 0 47 47" fill="none" xmlns="http://www.w3.org/2000/svg">
<path d="M23.7441 1.00977H23.7471C25.4367 1.10823 26.8346 2.33116 27.3154 3.97363L27.3457 4.07617C27.3469 4.08042 27.3484 4.08462 27.3496 4.08887L27.4062 4.29297L27.4229 4.30957C27.8712 5.53777 28.9483 6.48377 30.1416 6.99902C31.4253 7.55327 33.0162 7.68807 34.4463 7.02344L34.4912 7.00195L34.5342 6.97656C36.1404 6.02594 38.2568 6.28965 39.5703 7.7666V7.76758C40.5446 8.86515 40.7694 10.3986 40.2793 11.7695L40.2627 11.8154L40.2598 11.8262C40.2584 11.8292 40.2572 11.8328 40.2559 11.8359C40.2506 11.8479 40.2439 11.8642 40.2363 11.8828C40.1925 11.9892 40.1583 12.0694 40.1221 12.1465L40.1084 12.1768L40.0957 12.209C39.7021 13.2181 39.3747 14.6749 39.6768 16.1016C39.9962 17.6097 41.0016 18.9748 43.0283 19.6709L43.0449 19.6768L43.0615 19.6816C44.6333 20.1623 45.8035 21.4737 45.9727 23.0693L45.9844 23.2549C46.1056 25.2712 44.7351 26.9866 42.875 27.4033L42.8213 27.416L42.7686 27.4336C40.7546 28.124 39.7634 29.4334 39.501 30.9248C39.2568 32.3129 39.6686 33.7108 40.0947 34.6719L40.1172 34.7217L40.1455 34.7705C40.1473 34.7743 40.1501 34.7806 40.1543 34.79C40.1605 34.8038 40.1668 34.8173 40.1768 34.8398C40.1856 34.86 40.1969 34.8867 40.21 34.915L40.2168 34.9297L40.2236 34.9434C40.2295 34.955 40.2369 34.9701 40.25 34.998C40.255 35.0086 40.2616 35.0215 40.2686 35.0361L40.2705 35.042L40.2822 35.0703C40.8933 36.5831 40.5375 38.3998 39.2197 39.5674C37.9279 40.7117 36.0268 40.8214 34.5098 39.9512H34.5088C32.9111 38.9538 31.2081 39.1339 29.9209 39.7686C29.276 40.0865 28.7124 40.5267 28.2852 41.0205C27.8925 41.4744 27.5728 42.0271 27.459 42.6201C27.4457 42.6579 27.4286 42.7098 27.416 42.7725V42.7754C27.0381 44.6885 25.2979 46.1074 23.2461 45.9863H23.2471C21.4637 45.878 19.9992 44.5131 19.6016 42.7305C19.5086 42.0948 19.1707 41.5023 18.7529 41.0215C18.3251 40.5293 17.7612 40.0917 17.1162 39.7764C15.822 39.1438 14.1099 38.9712 12.5078 39.9834V39.9824C10.9458 40.9326 8.87731 40.7227 7.54785 39.3535L7.4209 39.2168C6.52817 38.2103 6.26805 36.8392 6.60938 35.5527L6.62793 35.4805L6.62988 35.4785L6.64941 35.4131C6.7231 35.1676 6.82179 34.9208 6.93945 34.6904L6.97559 34.6201L7 34.5449C7.34475 33.4839 7.56021 32.0581 7.19824 30.6953C6.81897 29.2678 5.82267 27.9929 3.94434 27.3486L3.9209 27.3408L3.89746 27.334L3.5752 27.2256C1.99616 26.6204 0.898938 25.0534 1.00781 23.2432V23.2412C1.11198 21.4471 2.50147 19.9728 4.29297 19.5947L4.40137 19.5723L4.50293 19.5254C6.14113 18.7741 6.95971 17.4913 7.24609 16.1406C7.52216 14.8382 7.30306 13.5022 6.9668 12.4971L6.93945 12.4141L6.89746 12.3359L6.74805 12.0332C6.07259 10.4954 6.40739 8.61973 7.75977 7.42188C9.04975 6.2792 10.9562 6.17246 12.4756 7.04395L12.5127 7.06543L12.5518 7.08398C13.9789 7.74717 15.5532 7.61808 16.8252 7.06348C18.054 6.52766 19.143 5.52745 19.5508 4.23438C19.5656 4.19881 19.5825 4.15656 19.5957 4.10742C19.5989 4.09563 19.5998 4.08314 19.6025 4.07129L19.6035 4.07227C20.0455 2.23264 21.7489 0.888724 23.7441 1.00977ZM40.2471 34.9678C40.2461 34.9648 40.245 34.9617 40.2441 34.959C40.2418 34.9511 40.2399 34.9423 40.2383 34.9365C40.2397 34.9421 40.2429 34.9532 40.2471 34.9678ZM19.4902 4.35742C19.4943 4.35027 19.503 4.33408 19.5127 4.31543L19.5137 4.31641C19.5071 4.32964 19.5014 4.34088 19.4971 4.34863C19.495 4.35238 19.4924 4.35538 19.4912 4.35742H19.4902Z" fill="#CA7FFE" stroke="#2D262D" stroke-width="2"/>
<path d="M23.7139 1.50879H23.7178C25.1786 1.59382 26.4161 2.65906 26.8398 4.12988L26.8652 4.21582L26.959 4.55371L26.9961 4.59082C27.5251 5.92506 28.695 6.91902 29.9434 7.45801C31.3297 8.05659 33.0715 8.21296 34.6562 7.47656L34.7246 7.44531L34.7881 7.40723C36.1949 6.57438 38.0468 6.80639 39.1963 8.09863V8.09961C40.0367 9.04637 40.2437 10.383 39.8086 11.6006L39.792 11.6494C39.7867 11.6616 39.7801 11.6761 39.7734 11.6924C39.729 11.8004 39.7001 11.8695 39.6699 11.9336L39.6484 11.9795L39.6299 12.0273C39.2166 13.0868 38.8578 14.6481 39.1875 16.2051C39.5432 17.8846 40.6722 19.3911 42.8662 20.1445L42.915 20.1602C44.3076 20.586 45.3172 21.7313 45.4736 23.0957L45.4854 23.2852C45.5914 25.05 44.3929 26.5515 42.7656 26.916L42.6846 26.9336L42.6064 26.96C40.4334 27.7048 39.3052 29.1537 39.0088 30.8379C38.7397 32.3671 39.1939 33.873 39.6377 34.874L39.6719 34.9502L39.7139 35.0225L39.6982 34.9961C39.7031 35.007 39.7082 35.0171 39.7188 35.041C39.7278 35.0615 39.7407 35.0921 39.7559 35.125L39.7656 35.1465L39.7764 35.167C39.7791 35.1724 39.7832 35.182 39.7969 35.2109C39.7997 35.2169 39.8037 35.2241 39.8076 35.2324L39.8184 35.2578C40.3535 36.5825 40.041 38.1717 38.8877 39.1934C37.7738 40.1801 36.1106 40.293 34.7588 39.5176L34.7578 39.5186C32.9881 38.4215 31.104 38.6282 29.7002 39.3203C28.9965 39.6673 28.379 40.1481 27.9072 40.6934C27.4851 41.1813 27.1179 41.7982 26.9766 42.4873C26.9601 42.5375 26.9406 42.6007 26.9258 42.6748L26.9248 42.6787C26.5941 44.352 25.0724 45.5929 23.2764 45.4873H23.2773C21.7407 45.3939 20.4429 44.2109 20.0889 42.6201C19.9703 41.8764 19.5811 41.2125 19.1309 40.6943C18.6581 40.1503 18.04 39.6714 17.3359 39.3271C15.9221 38.6361 14.024 38.4374 12.248 39.5557C10.8348 40.4153 8.95062 40.1883 7.79492 38.8848C7.0252 38.0168 6.78955 36.8231 7.09277 35.6807L7.10156 35.6445L7.12793 35.5576C7.19305 35.3406 7.28087 35.1214 7.38477 34.918L7.43848 34.8125L7.47559 34.6992C7.83826 33.583 8.07674 32.0535 7.68164 30.5664C7.26075 28.9824 6.14703 27.5759 4.10645 26.876L4.07129 26.8633L4.03613 26.8535L3.75391 26.7588C2.36996 26.2285 1.41176 24.8561 1.50684 23.2734V23.2695C1.59665 21.7262 2.7998 20.421 4.39648 20.084L4.55957 20.0498L4.71191 19.9795C6.50842 19.1554 7.41968 17.7334 7.73535 16.2451C8.03562 14.8289 7.79586 13.3985 7.44141 12.3389L7.39941 12.2129L7.33594 12.0977L7.20605 11.832C6.61406 10.4846 6.9091 8.84339 8.0918 7.7959C9.20286 6.81192 10.8714 6.7004 12.2266 7.47754L12.2822 7.50977L12.3408 7.53711C13.9212 8.27159 15.6477 8.12313 17.0254 7.52246C18.3417 6.94844 19.5515 5.86303 20.0195 4.41211C20.0396 4.36237 20.0602 4.30376 20.0781 4.2373C20.0824 4.22137 20.0831 4.2045 20.0869 4.18848L20.0898 4.18945C20.477 2.5775 21.9687 1.40292 23.7139 1.50879ZM19.9609 4.54004C19.9505 4.5609 19.9414 4.57849 19.9346 4.59082C19.9321 4.59529 19.9285 4.59848 19.9268 4.60156C19.9341 4.5886 19.9466 4.56509 19.96 4.53906L19.9609 4.54004Z" fill="#C8F423" stroke="white" stroke-width="3"/>
<mask id="mask0_6892_11411" style="mask-type:alpha" maskUnits="userSpaceOnUse" x="0" y="0" width="47" height="47">
<path d="M23.7441 1.00977H23.7471C25.4367 1.10823 26.8346 2.33116 27.3154 3.97363L27.3457 4.07617C27.3469 4.08042 27.3484 4.08462 27.3496 4.08887L27.4062 4.29297L27.4229 4.30957C27.8712 5.53777 28.9483 6.48377 30.1416 6.99902C31.4253 7.55327 33.0162 7.68807 34.4463 7.02344L34.4912 7.00195L34.5342 6.97656C36.1404 6.02594 38.2568 6.28965 39.5703 7.7666V7.76758C40.5446 8.86515 40.7694 10.3986 40.2793 11.7695L40.2627 11.8154L40.2598 11.8262C40.2584 11.8292 40.2572 11.8328 40.2559 11.8359C40.2506 11.8479 40.2439 11.8642 40.2363 11.8828C40.1925 11.9892 40.1583 12.0694 40.1221 12.1465L40.1084 12.1768L40.0957 12.209C39.7021 13.2181 39.3747 14.6749 39.6768 16.1016C39.9962 17.6097 41.0016 18.9748 43.0283 19.6709L43.0449 19.6768L43.0615 19.6816C44.6333 20.1623 45.8035 21.4737 45.9727 23.0693L45.9844 23.2549C46.1056 25.2712 44.7351 26.9866 42.875 27.4033L42.8213 27.416L42.7686 27.4336C40.7546 28.124 39.7634 29.4334 39.501 30.9248C39.2568 32.3129 39.6686 33.7108 40.0947 34.6719L40.1172 34.7217L40.1455 34.7705C40.1473 34.7743 40.1501 34.7806 40.1543 34.79C40.1605 34.8038 40.1668 34.8173 40.1768 34.8398C40.1856 34.86 40.1969 34.8867 40.21 34.915L40.2168 34.9297L40.2236 34.9434C40.2295 34.955 40.2369 34.9701 40.25 34.998C40.255 35.0086 40.2616 35.0215 40.2686 35.0361L40.2705 35.042L40.2822 35.0703C40.8933 36.5831 40.5375 38.3998 39.2197 39.5674C37.9279 40.7117 36.0268 40.8214 34.5098 39.9512H34.5088C32.9111 38.9538 31.2081 39.1339 29.9209 39.7686C29.276 40.0865 28.7124 40.5267 28.2852 41.0205C27.8925 41.4744 27.5728 42.0271 27.459 42.6201C27.4457 42.6579 27.4286 42.7098 27.416 42.7725V42.7754C27.0381 44.6885 25.2979 46.1074 23.2461 45.9863H23.2471C21.4637 45.878 19.9992 44.5131 19.6016 42.7305C19.5086 42.0948 19.1707 41.5023 18.7529 41.0215C18.3251 40.5293 17.7612 40.0917 17.1162 39.7764C15.822 39.1438 14.1099 38.9712 12.5078 39.9834V39.9824C10.9458 40.9326 8.87731 40.7227 7.54785 39.3535L7.4209 39.2168C6.52817 38.2103 6.26805 36.8392 6.60938 35.5527L6.62793 35.4805L6.62988 35.4785L6.64941 35.4131C6.7231 35.1676 6.82179 34.9208 6.93945 34.6904L6.97559 34.6201L7 34.5449C7.34475 33.4839 7.56021 32.0581 7.19824 30.6953C6.81897 29.2678 5.82267 27.9929 3.94434 27.3486L3.9209 27.3408L3.89746 27.334L3.5752 27.2256C1.99616 26.6204 0.898938 25.0534 1.00781 23.2432V23.2412C1.11198 21.4471 2.50147 19.9728 4.29297 19.5947L4.40137 19.5723L4.50293 19.5254C6.14113 18.7741 6.95971 17.4913 7.24609 16.1406C7.52216 14.8382 7.30306 13.5022 6.9668 12.4971L6.93945 12.4141L6.89746 12.3359L6.74805 12.0332C6.07259 10.4954 6.40739 8.61973 7.75977 7.42188C9.04975 6.2792 10.9562 6.17246 12.4756 7.04395L12.5127 7.06543L12.5518 7.08398C13.9789 7.74717 15.5532 7.61808 16.8252 7.06348C18.054 6.52766 19.143 5.52745 19.5508 4.23438C19.5656 4.19881 19.5825 4.15656 19.5957 4.10742C19.5989 4.09563 19.5998 4.08314 19.6025 4.07129L19.6035 4.07227C20.0455 2.23264 21.7489 0.888724 23.7441 1.00977ZM40.2471 34.9678C40.2461 34.9648 40.245 34.9617 40.2441 34.959C40.2418 34.9511 40.2399 34.9423 40.2383 34.9365C40.2397 34.9421 40.2429 34.9532 40.2471 34.9678ZM19.4902 4.35742C19.4943 4.35027 19.503 4.33408 19.5127 4.31543L19.5137 4.31641C19.5071 4.32964 19.5014 4.34088 19.4971 4.34863C19.495 4.35238 19.4924 4.35538 19.4912 4.35742H19.4902Z" fill="white" stroke="#2D262D" stroke-width="2"/>
</mask>
<g mask="url(#mask0_6892_11411)">
<g opacity="0.32">
<path d="M23.353 23.6401L18.1001 0.00195312H28.6059L23.353 23.6401Z" fill="url(#paint0_radial_6892_11411)"/>
<path d="M23.353 23.6401L36.3532 3.21097L43.7819 10.6397L23.353 23.6401Z" fill="url(#paint1_radial_6892_11411)"/>
<path d="M23.353 23.6401L46.9911 18.387V28.8929L23.353 23.6401Z" fill="url(#paint2_radial_6892_11411)"/>
<path d="M23.3534 23.64L43.7824 36.6403L36.3537 44.0691L23.3534 23.64Z" fill="url(#paint3_radial_6892_11411)"/>
<path d="M23.353 23.6401L18.1001 47.2782H28.6059L23.353 23.6401Z" fill="url(#paint4_radial_6892_11411)"/>
<path d="M23.3526 23.6402L2.92354 36.6405L10.3523 44.0692L23.3526 23.6402Z" fill="url(#paint5_radial_6892_11411)"/>
<path d="M23.353 23.6401L-0.285156 18.3869V28.8927L23.353 23.6401Z" fill="url(#paint6_radial_6892_11411)"/>
<path d="M23.3534 23.64L10.3528 3.21081L2.92403 10.6396L23.3534 23.64Z" fill="url(#paint7_radial_6892_11411)"/>
</g>
<path d="M21.3474 23.8379C22.0506 23.4473 22.5935 23.1387 22.9764 22.9121C23.367 22.6855 23.7459 22.4473 24.1131 22.1973C24.4803 21.9473 24.7381 21.748 24.8865 21.5996C25.0428 21.4512 25.1873 21.2676 25.3201 21.0488C25.4607 20.8301 25.5467 20.623 25.5779 20.4277C25.617 20.2324 25.6482 19.9824 25.6717 19.6777C25.6717 18.959 25.4178 18.3809 24.9099 17.9434C24.4021 17.498 23.7342 17.2754 22.906 17.2754C22.1404 17.2754 21.5076 17.502 21.0076 17.9551C20.5154 18.4082 20.2693 18.9902 20.2693 19.7012C20.2693 20.5293 20.6287 21.2441 21.3474 21.8457L18.3474 23.8848C17.2303 22.7676 16.6717 21.4043 16.6717 19.7949C16.6717 19.0137 16.824 18.2754 17.1287 17.5801C17.4412 16.877 17.8709 16.2637 18.4178 15.7402C18.9646 15.2168 19.6365 14.8027 20.4334 14.498C21.2303 14.1934 22.0935 14.041 23.0232 14.041C24.9529 14.041 26.4764 14.5645 27.5935 15.6113C28.7107 16.6504 29.2693 18.0059 29.2693 19.6777C29.2693 20.623 29.1092 21.4238 28.7889 22.0801C28.4842 22.6973 28.0896 23.2207 27.6053 23.6504C27.1287 24.0723 26.4412 24.5488 25.5428 25.0801C24.2224 25.8613 23.3357 26.4199 22.8826 26.7559C22.3748 27.1465 22.0623 27.5098 21.9451 27.8457H29.3396V31.0801H17.0232C17.0232 29.166 17.4178 27.6621 18.2068 26.5684C19.0115 25.4355 20.0584 24.5254 21.3474 23.8379Z" fill="#2D262D"/>
<path d="M23.7744 0.510742H23.7754C25.7117 0.623354 27.2819 2.02842 27.8057 3.86816L27.8252 3.93652C27.8257 3.9382 27.8267 3.93973 27.8271 3.94141L27.8525 4.03223L27.8584 4.03809C28.2238 5.15093 29.2013 6.04846 30.3398 6.54004C31.5208 7.04992 32.96 7.16206 34.2354 6.56934L34.2578 6.55957L34.2793 6.54688C36.0851 5.47786 38.4667 5.77319 39.9443 7.43555C41.0524 8.68384 41.2949 10.4132 40.75 11.9375L40.7422 11.9609L40.7363 11.9844L40.7354 11.9873V11.9883C40.7331 11.9935 40.7304 11.9993 40.7266 12.0078C40.7205 12.0211 40.709 12.0469 40.6982 12.0732C40.6552 12.1778 40.6175 12.2694 40.5752 12.3594L40.5674 12.375L40.5615 12.3906C40.1875 13.3494 39.8915 14.7018 40.166 15.998C40.4492 17.335 41.3314 18.5596 43.1914 19.1982L43.207 19.2041C44.9721 19.7437 46.3113 21.2396 46.4756 23.0879L46.4746 23.0918L46.4834 23.2256C46.6195 25.4933 45.0766 27.4229 42.9834 27.8916L42.957 27.8975L42.9307 27.9062C41.0756 28.5422 40.2217 29.713 39.9932 31.0117C39.7739 32.2586 40.1434 33.5477 40.5518 34.4688L40.5635 34.4941L40.5771 34.5186C40.6036 34.5639 40.6094 34.5876 40.6641 34.7061L40.667 34.7129L40.6709 34.7197C40.6799 34.7377 40.6895 34.7583 40.7021 34.7852C40.7105 34.8029 40.7208 34.8239 40.7314 34.8457L40.7393 34.8691L40.7451 34.8838C41.4322 36.585 41.0337 38.6289 39.5508 39.9424C38.0826 41.2428 35.9481 41.3502 34.2666 40.3887C32.839 39.486 31.3141 39.6387 30.1416 40.2168C29.5555 40.5058 29.0458 40.9053 28.6631 41.3477C28.2982 41.7694 28.0265 42.2583 27.9414 42.7529C27.9392 42.7584 27.9373 42.7653 27.9346 42.7725C27.9261 42.7951 27.9146 42.8292 27.9062 42.8711V42.8721C27.481 45.0248 25.523 46.6217 23.2158 46.4854H23.2168C21.1812 46.3617 19.5461 44.8067 19.1104 42.8242L19.1084 42.8066C19.0344 42.2933 18.7545 41.7852 18.376 41.3496C17.993 40.9089 17.4827 40.5121 16.8965 40.2256C15.7932 39.6864 14.3794 39.5236 13.0283 40.2568L12.7676 40.4102C10.9557 41.5121 8.53458 41.2268 7.04688 39.5488C6.03098 38.4035 5.74621 36.8545 6.12598 35.4238L6.14355 35.3613V35.3398C6.14448 35.3377 6.14538 35.3354 6.14648 35.333L6.16113 35.3018L6.1709 35.2695C6.25317 34.9954 6.36264 34.7203 6.49414 34.4629L6.5127 34.4277L6.52441 34.3906C6.85128 33.3846 7.04394 32.0619 6.71484 30.8232C6.37715 29.5524 5.49824 28.4099 3.78223 27.8213L3.77051 27.8174L3.75879 27.8145L3.57617 27.7568C1.70659 27.1297 0.382089 25.3187 0.508789 23.2129V23.2119C0.627549 21.1672 2.20331 19.5247 4.18945 19.1055L4.24414 19.0938L4.29492 19.0713C5.77428 18.3928 6.49968 17.2499 6.75684 16.0371C7.00882 14.8485 6.81115 13.6069 6.49316 12.6562L6.47852 12.6143L6.45801 12.5752L6.37012 12.4062C5.50752 10.6478 5.85562 8.44111 7.42871 7.04785C8.89759 5.74671 11.0411 5.64464 12.7246 6.61035L12.7432 6.62109L12.7627 6.62988C14.0365 7.22187 15.4586 7.11398 16.625 6.60547C17.7757 6.10378 18.7517 5.17803 19.0918 4.03223C19.0982 4.01596 19.1076 3.99841 19.1133 3.97754C19.1152 3.97059 19.1156 3.96305 19.1172 3.95605C19.6137 1.8885 21.5288 0.374514 23.7744 0.510742Z" stroke="#2D262D"/>
</g>
<defs>
<radialGradient id="paint0_radial_6892_11411" cx="0" cy="0" r="1" gradientUnits="userSpaceOnUse" gradientTransform="translate(23.353 23.6401) rotate(90) scale(23.6381)">
<stop stop-color="white"/>
<stop offset="1" stop-color="white" stop-opacity="0"/>
</radialGradient>
<radialGradient id="paint1_radial_6892_11411" cx="0" cy="0" r="1" gradientUnits="userSpaceOnUse" gradientTransform="translate(23.353 23.6401) rotate(90) scale(23.6381)">
<stop stop-color="white"/>
<stop offset="1" stop-color="white" stop-opacity="0"/>
</radialGradient>
<radialGradient id="paint2_radial_6892_11411" cx="0" cy="0" r="1" gradientUnits="userSpaceOnUse" gradientTransform="translate(23.353 23.6401) rotate(90) scale(23.6381)">
<stop stop-color="white"/>
<stop offset="1" stop-color="white" stop-opacity="0"/>
</radialGradient>
<radialGradient id="paint3_radial_6892_11411" cx="0" cy="0" r="1" gradientUnits="userSpaceOnUse" gradientTransform="translate(23.353 23.6401) rotate(90) scale(23.6381)">
<stop stop-color="white"/>
<stop offset="1" stop-color="white" stop-opacity="0"/>
</radialGradient>
<radialGradient id="paint4_radial_6892_11411" cx="0" cy="0" r="1" gradientUnits="userSpaceOnUse" gradientTransform="translate(23.353 23.6401) rotate(90) scale(23.6381)">
<stop stop-color="white"/>
<stop offset="1" stop-color="white" stop-opacity="0"/>
</radialGradient>
<radialGradient id="paint5_radial_6892_11411" cx="0" cy="0" r="1" gradientUnits="userSpaceOnUse" gradientTransform="translate(23.353 23.6401) rotate(90) scale(23.6381)">
<stop stop-color="white"/>
<stop offset="1" stop-color="white" stop-opacity="0"/>
</radialGradient>
<radialGradient id="paint6_radial_6892_11411" cx="0" cy="0" r="1" gradientUnits="userSpaceOnUse" gradientTransform="translate(23.353 23.6401) rotate(90) scale(23.6381)">
<stop stop-color="white"/>
<stop offset="1" stop-color="white" stop-opacity="0"/>
</radialGradient>
<radialGradient id="paint7_radial_6892_11411" cx="0" cy="0" r="1" gradientUnits="userSpaceOnUse" gradientTransform="translate(23.353 23.6401) rotate(90) scale(23.6381)">
<stop stop-color="white"/>
<stop offset="1" stop-color="white" stop-opacity="0"/>
</radialGradient>
</defs>
</svg>
