<svg width="47" height="47" viewBox="0 0 47 47" fill="none" xmlns="http://www.w3.org/2000/svg">
<path d="M23.7441 1.0166H23.7471C25.4367 1.11506 26.8346 2.338 27.3154 3.98047L27.3457 4.08301C27.3469 4.08726 27.3484 4.09146 27.3496 4.0957L27.4062 4.2998L27.4229 4.31641C27.8712 5.5446 28.9483 6.49061 30.1416 7.00586C31.4253 7.5601 33.0162 7.69491 34.4463 7.03027L34.4912 7.00879L34.5342 6.9834C36.1404 6.03278 38.2568 6.29649 39.5703 7.77344V7.77441C40.5446 8.87199 40.7694 10.4054 40.2793 11.7764L40.2627 11.8223L40.2598 11.833C40.2584 11.836 40.2572 11.8397 40.2559 11.8428C40.2506 11.8548 40.2439 11.8711 40.2363 11.8896C40.1925 11.996 40.1583 12.0763 40.1221 12.1533L40.1084 12.1836L40.0957 12.2158C39.7021 13.2249 39.3747 14.6818 39.6768 16.1084C39.9962 17.6165 41.0016 18.9816 43.0283 19.6777L43.0449 19.6836L43.0615 19.6885C44.6333 20.1692 45.8035 21.4806 45.9727 23.0762L45.9844 23.2617C46.1056 25.278 44.7351 26.9934 42.875 27.4102L42.8213 27.4229L42.7686 27.4404C40.7546 28.1308 39.7634 29.4402 39.501 30.9316C39.2568 32.3198 39.6686 33.7177 40.0947 34.6787L40.1172 34.7285L40.1455 34.7773C40.1473 34.7811 40.1501 34.7875 40.1543 34.7969C40.1605 34.8106 40.1668 34.8241 40.1768 34.8467C40.1856 34.8668 40.1969 34.8936 40.21 34.9219L40.2168 34.9365L40.2236 34.9502C40.2295 34.9619 40.2369 34.977 40.25 35.0049C40.255 35.0154 40.2616 35.0284 40.2686 35.043L40.2705 35.0488L40.2822 35.0771C40.8933 36.59 40.5375 38.4066 39.2197 39.5742C37.9279 40.7186 36.0268 40.8282 34.5098 39.958H34.5088C32.9111 38.9606 31.2081 39.1408 29.9209 39.7754C29.276 40.0934 28.7124 40.5335 28.2852 41.0273C27.8925 41.4812 27.5728 42.0339 27.459 42.627C27.4457 42.6648 27.4286 42.7166 27.416 42.7793V42.7822C27.0381 44.6954 25.2979 46.1142 23.2461 45.9932H23.2471C21.4637 45.8848 19.9992 44.5199 19.6016 42.7373C19.5086 42.1017 19.1707 41.5091 18.7529 41.0283C18.3251 40.5361 17.7612 40.0985 17.1162 39.7832C15.822 39.1507 14.1099 38.978 12.5078 39.9902V39.9893C10.9458 40.9394 8.87731 40.7295 7.54785 39.3604L7.4209 39.2236C6.52817 38.2171 6.26805 36.846 6.60938 35.5596L6.62793 35.4873L6.62988 35.4854L6.64941 35.4199C6.7231 35.1744 6.82179 34.9276 6.93945 34.6973L6.97559 34.627L7 34.5518C7.34475 33.4907 7.56021 32.0649 7.19824 30.7021C6.81897 29.2747 5.82267 27.9997 3.94434 27.3555L3.9209 27.3477L3.89746 27.3408L3.5752 27.2324C1.99616 26.6272 0.898938 25.0603 1.00781 23.25V23.248C1.11198 21.4539 2.50147 19.9797 4.29297 19.6016L4.40137 19.5791L4.50293 19.5322C6.14113 18.781 6.95971 17.4982 7.24609 16.1475C7.52216 14.845 7.30306 13.509 6.9668 12.5039L6.93945 12.4209L6.89746 12.3428L6.74805 12.04C6.07259 10.5022 6.40739 8.62656 7.75977 7.42871C9.04975 6.28604 10.9562 6.17929 12.4756 7.05078L12.5127 7.07227L12.5518 7.09082C13.9789 7.75401 15.5532 7.62492 16.8252 7.07031C18.054 6.53449 19.143 5.53429 19.5508 4.24121C19.5656 4.20564 19.5825 4.1634 19.5957 4.11426C19.5989 4.10247 19.5998 4.08998 19.6025 4.07812L19.6035 4.0791C20.0455 2.23948 21.7489 0.89556 23.7441 1.0166ZM40.2471 34.9746C40.2461 34.9716 40.245 34.9685 40.2441 34.9658C40.2418 34.9579 40.2399 34.9492 40.2383 34.9434C40.2397 34.9489 40.2429 34.9601 40.2471 34.9746ZM19.4902 4.36426C19.4943 4.3571 19.503 4.34091 19.5127 4.32227L19.5137 4.32324C19.5071 4.33648 19.5014 4.34772 19.4971 4.35547C19.495 4.35922 19.4924 4.36221 19.4912 4.36426H19.4902Z" fill="#CA7FFE" stroke="#2D262D" stroke-width="2"/>
<path d="M23.7139 1.51562H23.7178C25.1786 1.60065 26.4161 2.6659 26.8398 4.13672L26.8652 4.22266L26.959 4.56055L26.9961 4.59766C27.5251 5.93189 28.695 6.92586 29.9434 7.46484C31.3297 8.06342 33.0715 8.2198 34.6562 7.4834L34.7246 7.45215L34.7881 7.41406C36.1949 6.58121 38.0468 6.81323 39.1963 8.10547V8.10645C40.0367 9.05321 40.2437 10.3899 39.8086 11.6074L39.792 11.6562C39.7867 11.6684 39.7801 11.6829 39.7734 11.6992C39.729 11.8072 39.7001 11.8764 39.6699 11.9404L39.6484 11.9863L39.6299 12.0342C39.2166 13.0936 38.8578 14.6549 39.1875 16.2119C39.5432 17.8915 40.6722 19.398 42.8662 20.1514L42.915 20.167C44.3076 20.5928 45.3172 21.7382 45.4736 23.1025L45.4854 23.292C45.5914 25.0568 44.3929 26.5584 42.7656 26.9229L42.6846 26.9404L42.6064 26.9668C40.4334 27.7117 39.3052 29.1606 39.0088 30.8447C38.7397 32.3739 39.1939 33.8798 39.6377 34.8809L39.6719 34.957L39.7139 35.0293L39.6982 35.0029C39.7031 35.0138 39.7082 35.0239 39.7188 35.0479C39.7278 35.0684 39.7407 35.0989 39.7559 35.1318L39.7656 35.1533L39.7764 35.1738C39.7791 35.1792 39.7832 35.1888 39.7969 35.2178C39.7997 35.2237 39.8037 35.2309 39.8076 35.2393L39.8184 35.2646C40.3535 36.5894 40.041 38.1786 38.8877 39.2002C37.7738 40.1869 36.1106 40.2998 34.7588 39.5244L34.7578 39.5254C32.9881 38.4283 31.104 38.6351 29.7002 39.3271C28.9965 39.6741 28.379 40.155 27.9072 40.7002C27.4851 41.1881 27.1179 41.8051 26.9766 42.4941C26.9601 42.5443 26.9406 42.6076 26.9258 42.6816L26.9248 42.6855C26.5941 44.3588 25.0724 45.5997 23.2764 45.4941H23.2773C21.7407 45.4008 20.4429 44.2177 20.0889 42.627C19.9703 41.8832 19.5811 41.2193 19.1309 40.7012C18.6581 40.1572 18.04 39.6782 17.3359 39.334C15.9221 38.643 14.024 38.4443 12.248 39.5625C10.8348 40.4221 8.95062 40.1951 7.79492 38.8916C7.0252 38.0237 6.78955 36.83 7.09277 35.6875L7.10156 35.6514L7.12793 35.5645C7.19305 35.3474 7.28087 35.1282 7.38477 34.9248L7.43848 34.8193L7.47559 34.7061C7.83826 33.5898 8.07674 32.0603 7.68164 30.5732C7.26075 28.9892 6.14703 27.5827 4.10645 26.8828L4.07129 26.8701L4.03613 26.8604L3.75391 26.7656C2.36996 26.2353 1.41176 24.863 1.50684 23.2803V23.2764C1.59665 21.733 2.7998 20.4278 4.39648 20.0908L4.55957 20.0566L4.71191 19.9863C6.50842 19.1623 7.41968 17.7402 7.73535 16.252C8.03562 14.8358 7.79586 13.4053 7.44141 12.3457L7.39941 12.2197L7.33594 12.1045L7.20605 11.8389C6.61406 10.4915 6.9091 8.85023 8.0918 7.80273C9.20286 6.81876 10.8714 6.70724 12.2266 7.48438L12.2822 7.5166L12.3408 7.54395C13.9212 8.27843 15.6477 8.12996 17.0254 7.5293C18.3417 6.95528 19.5515 5.86987 20.0195 4.41895C20.0396 4.36921 20.0602 4.3106 20.0781 4.24414C20.0824 4.2282 20.0831 4.21133 20.0869 4.19531L20.0898 4.19629C20.477 2.58434 21.9687 1.40976 23.7139 1.51562ZM19.9609 4.54688C19.9505 4.56774 19.9414 4.58533 19.9346 4.59766C19.9321 4.60213 19.9285 4.60532 19.9268 4.6084C19.9341 4.59544 19.9466 4.57192 19.96 4.5459L19.9609 4.54688Z" fill="#C8F423" stroke="white" stroke-width="3"/>
<mask id="mask0_6892_11432" style="mask-type:alpha" maskUnits="userSpaceOnUse" x="0" y="0" width="47" height="47">
<path d="M23.7441 1.0166H23.7471C25.4367 1.11506 26.8346 2.338 27.3154 3.98047L27.3457 4.08301C27.3469 4.08726 27.3484 4.09146 27.3496 4.0957L27.4062 4.2998L27.4229 4.31641C27.8712 5.5446 28.9483 6.49061 30.1416 7.00586C31.4253 7.5601 33.0162 7.69491 34.4463 7.03027L34.4912 7.00879L34.5342 6.9834C36.1404 6.03278 38.2568 6.29649 39.5703 7.77344V7.77441C40.5446 8.87199 40.7694 10.4054 40.2793 11.7764L40.2627 11.8223L40.2598 11.833C40.2584 11.836 40.2572 11.8397 40.2559 11.8428C40.2506 11.8548 40.2439 11.8711 40.2363 11.8896C40.1925 11.996 40.1583 12.0763 40.1221 12.1533L40.1084 12.1836L40.0957 12.2158C39.7021 13.2249 39.3747 14.6818 39.6768 16.1084C39.9962 17.6165 41.0016 18.9816 43.0283 19.6777L43.0449 19.6836L43.0615 19.6885C44.6333 20.1692 45.8035 21.4806 45.9727 23.0762L45.9844 23.2617C46.1056 25.278 44.7351 26.9934 42.875 27.4102L42.8213 27.4229L42.7686 27.4404C40.7546 28.1308 39.7634 29.4402 39.501 30.9316C39.2568 32.3198 39.6686 33.7177 40.0947 34.6787L40.1172 34.7285L40.1455 34.7773C40.1473 34.7811 40.1501 34.7875 40.1543 34.7969C40.1605 34.8106 40.1668 34.8241 40.1768 34.8467C40.1856 34.8668 40.1969 34.8936 40.21 34.9219L40.2168 34.9365L40.2236 34.9502C40.2295 34.9619 40.2369 34.977 40.25 35.0049C40.255 35.0154 40.2616 35.0284 40.2686 35.043L40.2705 35.0488L40.2822 35.0771C40.8933 36.59 40.5375 38.4066 39.2197 39.5742C37.9279 40.7186 36.0268 40.8282 34.5098 39.958H34.5088C32.9111 38.9606 31.2081 39.1408 29.9209 39.7754C29.276 40.0934 28.7124 40.5335 28.2852 41.0273C27.8925 41.4812 27.5728 42.0339 27.459 42.627C27.4457 42.6648 27.4286 42.7166 27.416 42.7793V42.7822C27.0381 44.6954 25.2979 46.1142 23.2461 45.9932H23.2471C21.4637 45.8848 19.9992 44.5199 19.6016 42.7373C19.5086 42.1017 19.1707 41.5091 18.7529 41.0283C18.3251 40.5361 17.7612 40.0985 17.1162 39.7832C15.822 39.1507 14.1099 38.978 12.5078 39.9902V39.9893C10.9458 40.9394 8.87731 40.7295 7.54785 39.3604L7.4209 39.2236C6.52817 38.2171 6.26805 36.846 6.60938 35.5596L6.62793 35.4873L6.62988 35.4854L6.64941 35.4199C6.7231 35.1744 6.82179 34.9276 6.93945 34.6973L6.97559 34.627L7 34.5518C7.34475 33.4907 7.56021 32.0649 7.19824 30.7021C6.81897 29.2747 5.82267 27.9997 3.94434 27.3555L3.9209 27.3477L3.89746 27.3408L3.5752 27.2324C1.99616 26.6272 0.898938 25.0603 1.00781 23.25V23.248C1.11198 21.4539 2.50147 19.9797 4.29297 19.6016L4.40137 19.5791L4.50293 19.5322C6.14113 18.781 6.95971 17.4982 7.24609 16.1475C7.52216 14.845 7.30306 13.509 6.9668 12.5039L6.93945 12.4209L6.89746 12.3428L6.74805 12.04C6.07259 10.5022 6.40739 8.62656 7.75977 7.42871C9.04975 6.28604 10.9562 6.17929 12.4756 7.05078L12.5127 7.07227L12.5518 7.09082C13.9789 7.75401 15.5532 7.62492 16.8252 7.07031C18.054 6.53449 19.143 5.53429 19.5508 4.24121C19.5656 4.20564 19.5825 4.1634 19.5957 4.11426C19.5989 4.10247 19.5998 4.08998 19.6025 4.07812L19.6035 4.0791C20.0455 2.23948 21.7489 0.89556 23.7441 1.0166ZM40.2471 34.9746C40.2461 34.9716 40.245 34.9685 40.2441 34.9658C40.2418 34.9579 40.2399 34.9492 40.2383 34.9434C40.2397 34.9489 40.2429 34.9601 40.2471 34.9746ZM19.4902 4.36426C19.4943 4.3571 19.503 4.34091 19.5127 4.32227L19.5137 4.32324C19.5071 4.33648 19.5014 4.34772 19.4971 4.35547C19.495 4.35922 19.4924 4.36221 19.4912 4.36426H19.4902Z" fill="white" stroke="#2D262D" stroke-width="2"/>
</mask>
<g mask="url(#mask0_6892_11432)">
<g opacity="0.32">
<path d="M23.353 23.6469L18.1001 0.00878906H28.6059L23.353 23.6469Z" fill="url(#paint0_radial_6892_11432)"/>
<path d="M23.353 23.6469L36.3532 3.2178L43.7819 10.6466L23.353 23.6469Z" fill="url(#paint1_radial_6892_11432)"/>
<path d="M23.353 23.6469L46.9911 18.3939V28.8997L23.353 23.6469Z" fill="url(#paint2_radial_6892_11432)"/>
<path d="M23.3534 23.6468L43.7824 36.6471L36.3537 44.0759L23.3534 23.6468Z" fill="url(#paint3_radial_6892_11432)"/>
<path d="M23.353 23.6469L18.1001 47.2851H28.6059L23.353 23.6469Z" fill="url(#paint4_radial_6892_11432)"/>
<path d="M23.3526 23.647L2.92354 36.6473L10.3523 44.0761L23.3526 23.647Z" fill="url(#paint5_radial_6892_11432)"/>
<path d="M23.353 23.6469L-0.285156 18.3937V28.8995L23.353 23.6469Z" fill="url(#paint6_radial_6892_11432)"/>
<path d="M23.3534 23.6468L10.3528 3.21764L2.92403 10.6464L23.3534 23.6468Z" fill="url(#paint7_radial_6892_11432)"/>
</g>
<path d="M28.8474 14.2822V17.6455H20.8787C20.8787 18.6143 20.8162 19.4932 20.6912 20.2822C21.5193 19.6416 22.5193 19.3213 23.6912 19.3213C25.4099 19.3213 26.8279 19.833 27.9451 20.8564C29.0623 21.8799 29.6209 23.29 29.6209 25.0869C29.6209 26.9775 29.0349 28.4893 27.8631 29.6221C26.699 30.7549 25.1092 31.3213 23.0935 31.3213C21.3904 31.3213 19.9412 30.8994 18.7459 30.0557C17.5349 29.1963 16.824 27.9463 16.6131 26.3057L20.0935 25.3213C20.2264 26.1729 20.5506 26.8291 21.0662 27.29C21.5896 27.7432 22.2654 27.9697 23.0935 27.9697C23.9842 27.9697 24.6951 27.7275 25.2264 27.2432C25.7576 26.751 26.0232 26.1104 26.0232 25.3213C26.0232 24.5166 25.7537 23.8564 25.2146 23.3408C24.6756 22.8252 23.9685 22.5674 23.0935 22.5674C21.7342 22.5674 20.8123 23.1689 20.3279 24.3721L16.8474 23.5283C17.1521 21.7236 17.3474 20.1533 17.4334 18.8174C17.5271 17.4189 17.574 15.9072 17.574 14.2822H28.8474Z" fill="#2D262D"/>
<path d="M23.7744 0.517578H23.7754C25.7117 0.63019 27.2819 2.03526 27.8057 3.875L27.8252 3.94336C27.8257 3.94503 27.8267 3.94657 27.8271 3.94824L27.8525 4.03906L27.8584 4.04492C28.2238 5.15777 29.2013 6.05529 30.3398 6.54688C31.5208 7.05675 32.96 7.1689 34.2354 6.57617L34.2578 6.56641L34.2793 6.55371C36.0851 5.48469 38.4667 5.78002 39.9443 7.44238C41.0524 8.69068 41.2949 10.42 40.75 11.9443L40.7422 11.9678L40.7363 11.9912L40.7354 11.9941V11.9951C40.7331 12.0003 40.7304 12.0061 40.7266 12.0146C40.7205 12.0279 40.709 12.0537 40.6982 12.0801C40.6552 12.1847 40.6175 12.2763 40.5752 12.3662L40.5674 12.3818L40.5615 12.3975C40.1875 13.3563 39.8915 14.7086 40.166 16.0049C40.4492 17.3419 41.3314 18.5664 43.1914 19.2051L43.207 19.2109C44.9721 19.7506 46.3113 21.2464 46.4756 23.0947L46.4746 23.0986L46.4834 23.2324C46.6195 25.5002 45.0766 27.4298 42.9834 27.8984L42.957 27.9043L42.9307 27.9131C41.0756 28.549 40.2217 29.7198 39.9932 31.0186C39.7739 32.2655 40.1434 33.5546 40.5518 34.4756L40.5635 34.501L40.5771 34.5254C40.6036 34.5708 40.6094 34.5944 40.6641 34.7129L40.667 34.7197L40.6709 34.7266C40.6799 34.7445 40.6895 34.7652 40.7021 34.792C40.7105 34.8097 40.7208 34.8307 40.7314 34.8525L40.7393 34.876L40.7451 34.8906C41.4322 36.5919 41.0337 38.6357 39.5508 39.9492C38.0826 41.2496 35.9481 41.3571 34.2666 40.3955C32.839 39.4929 31.3141 39.6455 30.1416 40.2236C29.5555 40.5127 29.0458 40.9122 28.6631 41.3545C28.2982 41.7762 28.0265 42.2651 27.9414 42.7598C27.9392 42.7652 27.9373 42.7721 27.9346 42.7793C27.9261 42.802 27.9146 42.836 27.9062 42.8779V42.8789C27.481 45.0317 25.523 46.6285 23.2158 46.4922H23.2168C21.1812 46.3686 19.5461 44.8136 19.1104 42.8311L19.1084 42.8135C19.0344 42.3002 18.7545 41.792 18.376 41.3564C17.993 40.9157 17.4827 40.519 16.8965 40.2324C15.7932 39.6932 14.3794 39.5305 13.0283 40.2637L12.7676 40.417C10.9557 41.519 8.53458 41.2337 7.04688 39.5557C6.03098 38.4104 5.74621 36.8613 6.12598 35.4307L6.14355 35.3682V35.3467C6.14448 35.3446 6.14538 35.3423 6.14648 35.3398L6.16113 35.3086L6.1709 35.2764C6.25317 35.0023 6.36264 34.7272 6.49414 34.4697L6.5127 34.4346L6.52441 34.3975C6.85128 33.3915 7.04394 32.0687 6.71484 30.8301C6.37715 29.5592 5.49824 28.4167 3.78223 27.8281L3.77051 27.8242L3.75879 27.8213L3.57617 27.7637C1.70659 27.1366 0.382089 25.3256 0.508789 23.2197V23.2188C0.627549 21.174 2.20331 19.5315 4.18945 19.1123L4.24414 19.1006L4.29492 19.0781C5.77428 18.3997 6.49968 17.2568 6.75684 16.0439C7.00882 14.8554 6.81115 13.6138 6.49316 12.6631L6.47852 12.6211L6.45801 12.582L6.37012 12.4131C5.50752 10.6546 5.85562 8.44794 7.42871 7.05469C8.89759 5.75355 11.0411 5.65147 12.7246 6.61719L12.7432 6.62793L12.7627 6.63672C14.0365 7.22871 15.4586 7.12082 16.625 6.6123C17.7757 6.11061 18.7517 5.18487 19.0918 4.03906C19.0982 4.0228 19.1076 4.00525 19.1133 3.98438C19.1152 3.97742 19.1156 3.96989 19.1172 3.96289C19.6137 1.89534 21.5288 0.38135 23.7744 0.517578Z" stroke="#2D262D"/>
</g>
<defs>
<radialGradient id="paint0_radial_6892_11432" cx="0" cy="0" r="1" gradientUnits="userSpaceOnUse" gradientTransform="translate(23.353 23.6469) rotate(90) scale(23.6381)">
<stop stop-color="white"/>
<stop offset="1" stop-color="white" stop-opacity="0"/>
</radialGradient>
<radialGradient id="paint1_radial_6892_11432" cx="0" cy="0" r="1" gradientUnits="userSpaceOnUse" gradientTransform="translate(23.353 23.6469) rotate(90) scale(23.6381)">
<stop stop-color="white"/>
<stop offset="1" stop-color="white" stop-opacity="0"/>
</radialGradient>
<radialGradient id="paint2_radial_6892_11432" cx="0" cy="0" r="1" gradientUnits="userSpaceOnUse" gradientTransform="translate(23.353 23.6469) rotate(90) scale(23.6381)">
<stop stop-color="white"/>
<stop offset="1" stop-color="white" stop-opacity="0"/>
</radialGradient>
<radialGradient id="paint3_radial_6892_11432" cx="0" cy="0" r="1" gradientUnits="userSpaceOnUse" gradientTransform="translate(23.353 23.6469) rotate(90) scale(23.6381)">
<stop stop-color="white"/>
<stop offset="1" stop-color="white" stop-opacity="0"/>
</radialGradient>
<radialGradient id="paint4_radial_6892_11432" cx="0" cy="0" r="1" gradientUnits="userSpaceOnUse" gradientTransform="translate(23.353 23.6469) rotate(90) scale(23.6381)">
<stop stop-color="white"/>
<stop offset="1" stop-color="white" stop-opacity="0"/>
</radialGradient>
<radialGradient id="paint5_radial_6892_11432" cx="0" cy="0" r="1" gradientUnits="userSpaceOnUse" gradientTransform="translate(23.353 23.6469) rotate(90) scale(23.6381)">
<stop stop-color="white"/>
<stop offset="1" stop-color="white" stop-opacity="0"/>
</radialGradient>
<radialGradient id="paint6_radial_6892_11432" cx="0" cy="0" r="1" gradientUnits="userSpaceOnUse" gradientTransform="translate(23.353 23.6469) rotate(90) scale(23.6381)">
<stop stop-color="white"/>
<stop offset="1" stop-color="white" stop-opacity="0"/>
</radialGradient>
<radialGradient id="paint7_radial_6892_11432" cx="0" cy="0" r="1" gradientUnits="userSpaceOnUse" gradientTransform="translate(23.353 23.6469) rotate(90) scale(23.6381)">
<stop stop-color="white"/>
<stop offset="1" stop-color="white" stop-opacity="0"/>
</radialGradient>
</defs>
</svg>
