<svg xmlns="http://www.w3.org/2000/svg" width="24" height="24" viewBox="0 0 24 24" fill="none">
  <path
    d="M0.894531 11.548C6.38606 11.548 11.5032 18.4418 11.5032 22.202V12.8174L10.2338 11.14L11.5032 9.50789V0.894043C11.5032 4.02756 5.3876 11.548 0.894531 11.548Z"
    fill="black" />
  <path
    d="M22.2025 11.548C16.664 11.548 11.5032 18.4418 11.5032 22.202V12.8174L10.2338 11.14L11.5032 9.50789V0.894043C11.5032 4.02756 17.671 11.548 22.2025 11.548Z"
    fill="black" />
  <path fill-rule="evenodd" clip-rule="evenodd"
    d="M11.5027 0C11.9964 0 12.3967 0.400275 12.3967 0.89404C12.3967 1.43943 12.6863 2.33002 13.3151 3.44C13.9258 4.518 14.7953 5.69637 15.8083 6.78792C16.8221 7.88026 17.9575 8.86186 19.0898 9.56425C20.2341 10.2741 21.3026 10.654 22.202 10.654C22.6957 10.654 23.096 11.0542 23.096 11.548C23.096 12.0418 22.6957 12.442 22.202 12.442C19.7922 12.442 17.3396 13.9612 15.4387 16.0644C14.5008 17.1021 13.7313 18.2466 13.1999 19.3414C12.6626 20.4482 12.3967 21.4462 12.3967 22.202C12.3967 22.6957 11.9964 23.096 11.5027 23.096C11.0089 23.096 10.6086 22.6957 10.6086 22.202C10.6086 21.4446 10.3445 20.4457 9.81173 19.3387C9.2847 18.2436 8.52168 17.0991 7.59188 16.0616C5.70659 13.9579 3.27726 12.442 0.89404 12.442C0.400275 12.442 0 12.0418 0 11.548C0 11.0542 0.400275 10.654 0.89404 10.654C1.78183 10.654 2.83879 10.2756 3.97296 9.56605C5.09486 8.86415 6.22028 7.88295 7.22537 6.79071C8.22967 5.69932 9.09183 4.52098 9.69742 3.44284C10.3208 2.33308 10.6086 1.4414 10.6086 0.89404C10.6086 0.400275 11.0089 0 11.5027 0ZM10.6086 5.37494C10.021 6.2611 9.31638 7.15902 8.54114 8.00148C7.45571 9.18104 6.20979 10.2758 4.92134 11.0819C4.73139 11.2007 4.53887 11.3143 4.34426 11.4216C6.09195 12.192 7.66459 13.4635 8.92348 14.8682C9.55728 15.5755 10.125 16.3306 10.6086 17.0978V13.1176L9.52035 11.6795C9.2762 11.3569 9.27915 10.9105 9.52755 10.5911L10.6086 9.20114V5.37494ZM12.3967 5.35397V9.50789C12.3967 9.7067 12.3304 9.89984 12.2084 10.0568L11.3601 11.1474L12.2156 12.2779C12.3331 12.4332 12.3967 12.6227 12.3967 12.8174V17.12C12.8879 16.3442 13.466 15.5803 14.1121 14.8654C15.3815 13.4609 16.966 12.1911 18.7257 11.4215C18.5307 11.3148 18.3377 11.2019 18.1472 11.0837C16.8485 10.2781 15.5923 9.18373 14.4977 8.00427C13.7089 7.15435 12.9926 6.2479 12.3967 5.35397Z"
    fill="black" />
  <path
    d="M3.39258 11.5484C7.59619 11.5484 11.5132 16.8254 11.5132 19.7037V12.5201L10.5415 11.2361L11.5132 9.98673V3.39307C11.5132 5.79169 6.8319 11.5484 3.39258 11.5484Z"
    fill="#FDCF50" />
  <path
    d="M19.7032 11.5484C15.4637 11.5484 11.5132 16.8254 11.5132 19.7037V12.5201L10.5415 11.2361L11.5132 9.98673V3.39307C11.5132 5.79169 16.2345 11.5484 19.7032 11.5484Z"
    fill="#FDCF50" />
</svg>