<svg width="518" height="242" viewBox="0 0 518 242" fill="none" xmlns="http://www.w3.org/2000/svg">
<path fill-rule="evenodd" clip-rule="evenodd" d="M124.023 101.255C119.968 97.3137 114.907 95.3433 108.841 95.3433C102.775 95.3433 97.7141 97.3137 93.6589 101.255C89.6038 105.162 87.5762 110.312 87.5762 116.703C87.5762 123.095 89.6038 128.261 93.6589 132.201C97.7141 136.109 102.775 138.063 108.841 138.063C114.907 138.063 119.968 136.109 124.023 132.201C128.078 128.261 130.106 123.095 130.106 116.703C130.106 110.312 128.078 105.162 124.023 101.255ZM116.348 124.447C118.001 122.833 119.132 120.606 119.132 116.703C119.132 112.786 117.994 110.595 116.364 109.025L116.348 109.009L116.331 108.993C114.475 107.189 112.243 106.194 108.841 106.194C105.439 106.194 103.207 107.189 101.351 108.993L101.334 109.009L101.318 109.025C99.6883 110.595 98.5496 112.786 98.5496 116.703C98.5496 120.606 99.6813 122.833 101.334 124.447C103.182 126.22 105.421 127.213 108.841 127.213C112.261 127.213 114.501 126.22 116.348 124.447ZM74.1744 102.596C76.1855 98.0257 78.8889 94.0849 82.2847 90.7733C85.6805 87.4617 89.7027 84.8289 94.3513 82.8751C99.0328 80.9212 103.863 79.994 108.841 80.0933C113.819 79.994 118.633 80.9212 123.281 82.8751C127.963 84.8289 131.985 87.4617 135.348 90.7733C138.744 94.0849 141.431 98.0257 143.409 102.596C144.453 104.953 145.213 107.354 145.689 109.8C146.128 112.063 146.324 114.364 146.277 116.703C146.324 119.042 146.128 121.347 145.689 123.618C145.213 126.072 144.453 128.486 143.409 130.86C141.431 135.397 138.744 139.338 135.348 142.683C131.985 145.994 127.963 148.627 123.281 150.581C118.633 152.535 113.819 153.445 108.841 153.313C103.863 153.445 99.0328 152.535 94.3513 150.581C89.7027 148.627 85.6805 145.994 82.2847 142.683C78.8889 139.338 76.1855 135.397 74.1744 130.86C72.1963 126.29 71.2567 121.571 71.3556 116.703C71.2567 111.835 72.1963 107.133 74.1744 102.596ZM60.3805 116.703C60.3383 113.973 60.5451 111.279 60.9973 108.629L54.5628 115.218L60.578 121.636C60.421 120.006 60.3549 118.361 60.3805 116.703ZM74.0113 149.841C71.6869 157.213 64.9307 163.17 55.7481 163.17C50.3213 163.17 45.1504 160.888 41.5264 156.894L36.7933 151.677C34.014 158.419 27.3195 163.17 19.5028 163.17H19.0837C8.54404 163.17 0 154.722 0 144.3V89.1062C0 78.6848 8.54406 70.2365 19.0837 70.2365H19.8755C27.3267 70.2365 33.7374 74.6419 36.5889 80.9621L41.5292 75.8694C45.02 72.2709 49.8444 70.2365 54.8872 70.2365C64.4287 70.2365 71.238 76.8546 72.99 84.6748C73.5052 84.1212 74.0349 83.5789 74.5792 83.0481C79.0156 78.7217 84.2145 75.3458 90.0584 72.8895L90.0713 72.8841L90.0841 72.8788C96.0864 70.3737 102.369 69.1424 108.841 69.2414C115.308 69.1425 121.579 70.3718 127.56 72.8835C133.434 75.3366 138.65 78.7162 143.073 83.0669C144.074 84.0445 145.025 85.0614 145.927 86.1162C147.376 77.1156 155.262 70.2365 164.772 70.2365C175.312 70.2365 183.856 78.6848 183.856 89.1062V99.2462L193.312 99.2462V89.0817C193.312 78.6738 201.845 70.2365 212.371 70.2365C217.031 70.2365 221.3 71.8899 224.611 74.6356C227.837 71.8937 232.033 70.2365 236.621 70.2365H286.533C291.538 70.2365 296.077 72.2086 299.398 75.4097C303.229 72.1836 308.195 70.2365 313.621 70.2365H349.981C355.226 70.2365 359.959 72.4024 363.316 75.8789C366.778 72.3963 371.597 70.2365 376.926 70.2365C387.466 70.2365 396.01 78.6848 396.01 89.1062V99.2462L405.466 99.2462V89.0817C405.466 78.6738 413.999 70.2365 424.525 70.2365C429.184 70.2365 433.453 71.8899 436.764 74.6356C439.99 71.8937 444.187 70.2365 448.774 70.2365H498.687C508.867 70.2365 517.12 78.397 517.12 88.4634C517.12 98.5299 508.867 106.69 498.687 106.69H492.789V144.325C492.789 154.733 484.256 163.17 473.73 163.17C463.205 163.17 454.672 154.733 454.672 144.325V106.69L448.774 106.69C446.972 106.69 445.23 106.435 443.584 105.958V144.325C443.584 154.733 435.051 163.17 424.525 163.17C413.999 163.17 405.466 154.733 405.466 144.325V135.7H396.01V144.3C396.01 154.722 387.466 163.17 376.926 163.17C371.862 163.17 367.259 161.22 363.843 158.037C360.525 161.214 356.003 163.17 351.02 163.17H313.621C301.5 163.17 291.674 153.454 291.674 141.469V105.972C290.042 106.44 288.317 106.69 286.533 106.69H280.636V144.325C280.636 154.733 272.103 163.17 261.577 163.17C251.051 163.17 242.518 154.733 242.518 144.325V106.69L236.621 106.69C234.818 106.69 233.076 106.435 231.43 105.958V144.325C231.43 154.733 222.897 163.17 212.371 163.17C201.845 163.17 193.312 154.733 193.312 144.325V135.7H183.856V144.3C183.856 154.722 175.312 163.17 164.772 163.17C155.271 163.17 147.392 156.305 145.931 147.317C145.034 148.372 144.087 149.39 143.092 150.37C138.665 154.729 133.442 158.116 127.56 160.572C121.579 163.084 115.307 164.298 108.841 164.166C102.37 164.298 96.0863 163.082 90.0841 160.577L90.0713 160.572L90.0584 160.567C84.2145 158.11 79.0156 154.734 74.5792 150.408L74.5597 150.389L74.5404 150.37C74.3625 150.195 74.1861 150.018 74.0113 149.841ZM156.662 144.3C156.662 148.729 160.293 152.32 164.772 152.32C169.252 152.32 172.883 148.729 172.883 144.3V135.7C172.883 129.708 177.796 124.85 183.856 124.85H193.312C199.372 124.85 204.285 129.708 204.285 135.7V144.325C204.285 148.74 207.905 152.32 212.371 152.32C216.837 152.32 220.457 148.74 220.457 144.325V89.0817C220.457 88.8737 220.449 88.6675 220.433 88.4634C220.306 86.8298 219.684 85.3336 218.713 84.122C217.232 82.273 214.942 81.0868 212.371 81.0868C207.905 81.0868 204.285 84.6663 204.285 89.0817V99.2462C204.285 105.239 199.372 110.097 193.312 110.097H183.856C177.796 110.097 172.883 105.239 172.883 99.2462V89.1062C172.883 84.6772 169.252 81.0868 164.772 81.0868C160.293 81.0868 156.662 84.6772 156.662 89.1062V144.3ZM231.43 93.7618C232.773 95.0482 234.603 95.84 236.621 95.84H242.518C248.578 95.84 253.491 100.698 253.491 106.69V144.325C253.491 148.74 257.111 152.32 261.577 152.32C266.042 152.32 269.662 148.74 269.662 144.325V106.69C269.662 100.698 274.575 95.84 280.636 95.84H286.533C288.526 95.84 290.336 95.0675 291.674 93.8087C292.25 93.2672 292.738 92.6358 293.116 91.9371C293.676 90.902 293.993 89.7194 293.993 88.4634C293.993 87.0773 293.607 85.7804 292.934 84.6726C291.63 82.5244 289.251 81.0868 286.533 81.0868H236.621C234.218 81.0868 232.08 82.21 230.716 83.9542C229.741 85.201 229.16 86.7652 229.16 88.4634C229.16 88.6717 229.169 88.8779 229.186 89.0817C229.34 90.9134 230.17 92.5552 231.43 93.7618ZM302.648 141.469C302.648 147.462 307.561 152.32 313.621 152.32H351.02C354.3 152.32 357.085 150.227 358.085 147.318C358.341 146.572 358.48 145.774 358.48 144.943C358.48 144.726 358.471 144.512 358.452 144.3C358.38 143.471 358.169 142.682 357.842 141.954C356.683 139.369 354.064 137.566 351.02 137.566H326.077C322.096 137.566 318.868 134.375 318.868 130.438C318.868 126.501 322.096 123.31 326.077 123.31H346.965C351.085 123.31 354.425 120.007 354.425 115.933C354.425 111.859 351.085 108.557 346.965 108.557H325.299C321.747 108.557 318.868 105.71 318.868 102.198C318.868 98.6867 321.747 95.84 325.299 95.84H349.981C354.102 95.84 357.442 92.5374 357.442 88.4634C357.442 84.3894 354.102 81.0868 349.981 81.0868H313.621C309.967 81.0868 306.73 82.8529 304.736 85.5688C304.093 86.4441 303.579 87.4181 303.222 88.4634C302.85 89.554 302.648 90.7222 302.648 91.9371V141.469ZM368.816 144.3C368.816 144.517 368.824 144.731 368.841 144.943C368.902 145.697 369.068 146.423 369.325 147.104C370.475 150.15 373.444 152.32 376.926 152.32C381.405 152.32 385.036 148.729 385.036 144.3V135.7C385.036 129.708 389.949 124.85 396.01 124.85H405.466C411.526 124.85 416.439 129.708 416.439 135.7V144.325C416.439 148.74 420.059 152.32 424.525 152.32C428.99 152.32 432.61 148.74 432.61 144.325V89.0817C432.61 88.8737 432.602 88.6675 432.586 88.4634C432.46 86.8298 431.837 85.3336 430.867 84.122C429.386 82.273 427.095 81.0868 424.525 81.0868C420.059 81.0868 416.439 84.6663 416.439 89.0817V99.2462C416.439 105.239 411.526 110.097 405.466 110.097H396.01C389.949 110.097 385.036 105.239 385.036 99.2462V89.1062C385.036 84.6772 381.405 81.0868 376.926 81.0868C372.447 81.0868 368.816 84.6772 368.816 89.1062V144.3ZM443.584 93.7618C444.926 95.0482 446.757 95.84 448.774 95.84H454.672C460.732 95.84 465.645 100.698 465.645 106.69V144.325C465.645 148.74 469.265 152.32 473.73 152.32C478.196 152.32 481.816 148.74 481.816 144.325V106.69C481.816 100.698 486.729 95.84 492.789 95.84H498.687C502.807 95.84 506.147 92.5374 506.147 88.4634C506.147 84.3894 502.807 81.0868 498.687 81.0868H448.774C446.372 81.0868 444.234 82.21 442.87 83.9542C441.894 85.201 441.314 86.7652 441.314 88.4634C441.314 88.6717 441.323 88.8779 441.34 89.0817C441.494 90.9134 442.324 92.5552 443.584 93.7618ZM19.0837 152.32C14.6045 152.32 10.9734 148.729 10.9734 144.3V89.1062C10.9734 84.6772 14.6045 81.0868 19.0837 81.0868H19.8755C23.9174 81.0868 27.194 84.3267 27.194 88.3232C27.194 94.8431 35.2296 98.0377 39.7941 93.3325L49.4485 83.3803C50.8697 81.9151 52.834 81.0868 54.8872 81.0868C61.538 81.0868 64.9284 88.9843 60.3084 93.7149L46.6691 107.681C42.6236 111.823 42.5554 118.369 46.5138 122.593L61.7136 138.812C66.5376 143.959 62.8455 152.32 55.7481 152.32C53.4381 152.32 51.237 151.348 49.6944 149.648L40.6101 139.636C35.8989 134.444 27.194 137.739 27.194 144.715C27.194 148.915 23.7505 152.32 19.5028 152.32H19.0837Z" fill="#CA7FFE"/>
<path fill-rule="evenodd" clip-rule="evenodd" d="M139.687 146.724C135.686 150.724 130.942 153.858 125.536 156.149C120.083 158.475 114.387 159.586 108.508 159.452C102.626 159.586 96.9164 158.474 91.4379 156.152L91.4302 156.149L91.4225 156.146C86.0522 153.854 81.3221 150.727 77.3019 146.746L77.2903 146.735L77.2787 146.723C73.2734 142.718 70.1137 138.022 67.7892 132.698L67.7778 132.672L67.7667 132.646C65.4484 127.208 64.3212 121.539 64.4198 115.694C64.3212 109.848 65.4484 104.19 67.7735 98.7758L67.7778 98.7656L67.7822 98.7554C70.1073 93.3912 73.2744 88.6789 77.3019 84.6912C81.3221 80.7108 86.0522 77.5834 91.4225 75.2918L91.4302 75.2885L91.4379 75.2852C96.9166 72.9638 102.625 71.8353 108.508 71.9359C114.388 71.8353 120.083 72.9629 125.537 75.2889C130.937 77.5781 135.676 80.7072 139.674 84.7013C143.699 88.6886 146.848 93.4008 149.138 98.7648C149.343 99.235 149.539 99.707 149.726 100.181V87.6758C149.726 79.5775 156.276 72.9456 164.438 72.9456C172.6 72.9456 179.15 79.5775 179.15 87.6758V97.9705C179.15 100.453 181.144 102.398 183.521 102.398H192.977C195.354 102.398 197.348 100.453 197.348 97.9705V87.651C197.348 79.5664 203.887 72.9456 212.035 72.9456C217.198 72.9456 221.714 75.603 224.331 79.6065C226.806 75.6163 231.22 72.9456 236.284 72.9456H286.196C291.695 72.9456 296.427 76.0938 298.742 80.6609C301.898 76.0114 307.221 72.9456 313.283 72.9456H349.643C355.774 72.9456 360.953 76.8602 362.89 82.2917C365.032 76.834 370.337 72.9456 376.587 72.9456C384.749 72.9456 391.299 79.5776 391.299 87.6758V97.9705C391.299 100.453 393.293 102.398 395.67 102.398H405.126C407.503 102.398 409.497 100.453 409.497 97.9705V87.651C409.497 79.5664 416.036 72.9456 424.184 72.9456C429.347 72.9456 433.863 75.603 436.48 79.6065C438.955 75.6163 443.369 72.9456 448.434 72.9456H498.345C506.148 72.9456 512.407 79.2854 512.407 87.0233C512.407 94.7611 506.148 101.101 498.345 101.101H492.448C490.071 101.101 488.077 103.046 488.077 105.528V143.736C488.077 151.821 481.538 158.442 473.389 158.442C465.24 158.442 458.702 151.821 458.702 143.736V105.528C458.702 103.046 456.708 101.101 454.331 101.101H448.434C444.731 101.101 441.376 99.6734 438.872 97.3464V143.736C438.872 151.821 432.333 158.442 424.184 158.442C416.036 158.442 409.497 151.821 409.497 143.736V134.98C409.497 132.498 407.503 130.553 405.126 130.553H395.67C393.293 130.553 391.299 132.498 391.299 134.98V143.711C391.299 151.81 384.749 158.442 376.587 158.442C370.811 158.442 365.842 155.12 363.43 150.309C361.197 155.1 356.346 158.442 350.681 158.442H313.283C303.54 158.442 295.708 150.523 295.708 140.837V97.3921C293.21 99.6921 289.874 101.101 286.196 101.101H280.299C277.922 101.101 275.928 103.046 275.928 105.528V143.736C275.928 151.821 269.389 158.442 261.24 158.442C253.091 158.442 246.553 151.821 246.553 143.736V105.528C246.553 103.046 244.559 101.101 242.182 101.101H236.284C232.582 101.101 229.227 99.6734 226.723 97.3464V143.736C226.723 151.821 220.184 158.442 212.035 158.442C203.887 158.442 197.348 151.821 197.348 143.736V134.98C197.348 132.498 195.354 130.553 192.977 130.553H183.521C181.144 130.553 179.15 132.498 179.15 134.98V143.711C179.15 151.81 172.6 158.442 164.438 158.442C156.276 158.442 149.726 151.81 149.726 143.711V131.248C149.539 131.725 149.343 132.199 149.139 132.672C146.846 138.007 143.698 142.713 139.687 146.724ZM361.875 135.843V93.9708C359.462 98.2195 354.903 101.101 349.643 101.101H349.367C355.845 102.38 360.688 108.105 360.688 114.912C360.688 122.65 354.429 128.99 346.626 128.99H325.739C325.441 128.99 325.132 129.243 325.132 129.638C325.132 130.033 325.441 130.286 325.739 130.286H350.681C355.263 130.286 359.312 132.472 361.875 135.843ZM4.04004 143.711V87.6758C4.04004 79.5775 10.59 72.9456 18.7523 72.9456H19.5441C27.2692 72.9456 33.4646 79.2217 33.4646 86.8809C33.4646 87.158 33.5345 87.272 33.5745 87.3282C33.636 87.4147 33.7522 87.5192 33.9263 87.5895C34.1003 87.6598 34.248 87.6619 34.3368 87.6451C34.3877 87.6355 34.5022 87.6103 34.6841 87.4199L44.3382 77.3159C47.001 74.5291 50.6901 72.9456 54.5551 72.9456C67.104 72.9456 73.331 87.9855 64.739 96.9175L51.1 111.096C49.4711 112.789 49.4427 115.481 51.0378 117.209L66.2373 133.676C74.904 143.065 68.3455 158.442 55.416 158.442C51.2168 158.442 47.2256 156.649 44.4351 153.526L35.351 143.361C35.1111 143.093 34.9265 143.029 34.8078 143.004C34.6487 142.969 34.424 142.975 34.1765 143.07C33.929 143.165 33.75 143.315 33.6452 143.459C33.564 143.572 33.4646 143.759 33.4646 144.132C33.4646 151.998 27.1023 158.442 19.1714 158.442H18.7523C10.59 158.442 4.04004 151.81 4.04004 143.711Z" fill="#4D55F5"/>
<rect x="110.447" y="183.797" width="291.432" height="56.602" rx="28.301" transform="rotate(-7.4374 110.447 183.797)" fill="#4FB755" stroke="#2D262D" stroke-width="2"/>
<rect x="144.386" y="1.08525" width="218.52" height="56.2505" rx="28.1253" transform="rotate(5.12011 144.386 1.08525)" fill="#4FB755" stroke="#2D262D" stroke-width="2"/>
<path d="M139.019 224.735L137.676 214.378L140.568 214.003C141.568 212.296 142.261 210.821 142.648 209.578C143.045 208.306 143.232 206.945 143.209 205.494C143.187 204.057 143.015 202.098 142.693 199.617L141.484 190.291L160.681 187.801L163.69 211.004L167.21 210.548L168.553 220.905L162.545 221.684L161.955 217.132L144.437 219.404L145.027 223.956L139.019 224.735ZM147.406 213.116L157.48 211.809L155.224 194.413L148.245 195.318L148.701 198.838C149.148 202.496 149.299 205.191 149.153 206.924C149.021 208.656 148.439 210.719 147.406 213.116Z" fill="white"/>
<path d="M169.723 216.125L177.37 185.637L186.898 184.401L202.049 211.933L194.807 212.872L191.782 207.155L178.431 208.887L176.985 215.183L169.723 216.125ZM179.897 202.587L188.758 201.438L182.79 190.159L179.897 202.587Z" fill="white"/>
<path d="M205.103 211.536L201.341 182.528L216.25 180.595C219.068 180.229 221.416 180.617 223.292 181.759C225.167 182.901 226.251 184.597 226.544 186.85C226.953 190.005 225.655 192.423 222.65 194.101C224.566 194.388 226.099 195.053 227.249 196.097C228.411 197.125 229.102 198.489 229.322 200.188C229.653 202.737 229.013 204.836 227.403 206.485C225.793 208.133 223.404 209.163 220.235 209.574L205.103 211.536ZM209.427 192.854L217.498 191.807C218.496 191.678 219.234 191.342 219.713 190.8C220.191 190.258 220.375 189.563 220.265 188.713C220.167 187.958 219.813 187.393 219.202 187.02C218.603 186.632 217.811 186.501 216.827 186.629L208.755 187.676L209.427 192.854ZM210.959 204.668L219.86 203.514C220.871 203.382 221.641 203.022 222.168 202.433C222.706 201.828 222.918 201.081 222.802 200.191C222.687 199.301 222.292 198.632 221.617 198.185C220.955 197.736 220.118 197.577 219.107 197.708L210.206 198.862L210.959 204.668Z" fill="white"/>
<path d="M261.543 204.668L269.189 174.18L278.717 172.944L293.868 200.476L286.626 201.415L283.602 195.698L270.251 197.43L268.805 203.726L261.543 204.668ZM271.717 191.13L280.577 189.981L274.61 178.702L271.717 191.13Z" fill="white"/>
<path d="M232.231 208.176L232.112 207.265C233.385 204.07 233.611 199.31 232.79 192.985L230.957 178.845L255.393 175.675L259.155 204.684L252.52 205.544L249.537 182.544L238.351 183.995L239.324 191.5C240.286 198.917 240.174 204.183 238.987 207.299L232.231 208.176Z" fill="white"/>
<path d="M317.021 173.634L301.283 175.676L304.266 198.676L297.631 199.536L293.868 170.528L316.242 167.626L317.021 173.634Z" fill="white"/>
<path d="M316.181 197.131L323.828 166.643L333.355 165.407L348.506 192.938L341.264 193.877L338.24 188.161L324.889 189.892L323.443 196.189L316.181 197.131ZM326.355 183.593L335.215 182.444L329.248 171.164L326.355 183.593Z" fill="white"/>
<path d="M349.72 192.781L357.367 162.293L366.895 161.057L382.046 188.588L374.804 189.528L371.779 183.811L358.428 185.542L356.982 191.839L349.72 192.781ZM359.895 179.243L368.755 178.094L362.787 166.814L359.895 179.243Z" fill="white"/>
<path d="M170.728 16.3645L175.942 28.2951L183.578 17.5158L190.842 18.1667L178.662 35.0456L177.659 46.2356L171.042 45.6427L172.045 34.4527L163.059 15.6773L170.728 16.3645Z" fill="white"/>
<path d="M211.402 37.9792L198.553 36.8279L197.55 48.0179L190.913 47.4232L193.513 18.4061L200.15 19.0007L199.091 30.8181L211.941 31.9694L212.999 20.1521L219.616 20.7449L217.016 49.7621L210.399 49.1692L211.402 37.9792Z" fill="white"/>
<path d="M221.9 38.9607L228.211 37.058C228.473 39.5971 229.288 41.6488 230.658 43.2129C232.042 44.7647 233.934 45.6482 236.335 45.8634C238.264 46.0362 240.019 45.6563 241.598 44.7235C243.192 43.7785 244.349 42.3999 245.069 40.5879L233.758 39.5743L234.296 33.5645L245.567 34.5744C245.148 32.7282 244.27 31.2217 242.933 30.0549C241.596 28.888 239.983 28.22 238.095 28.0508C236.071 27.8694 234.321 28.277 232.845 29.2734C231.369 30.2698 230.331 31.7542 229.733 33.7268L223.887 30.4493C224.341 29.171 224.997 27.9991 225.854 26.9336C226.712 25.8546 227.742 24.9134 228.942 24.1099C230.157 23.3076 231.583 22.7214 233.22 22.3514C234.873 21.9692 236.637 21.862 238.512 22.03C240.686 22.1977 242.69 22.7444 244.525 23.6703C246.359 24.5962 247.884 25.7867 249.1 27.2419C250.317 28.6836 251.22 30.3691 251.809 32.2984C252.399 34.2142 252.586 36.2164 252.372 38.305C252.112 41.2053 251.288 43.722 249.9 45.855C248.527 47.9757 246.623 49.5796 244.186 50.6668C241.765 51.7416 238.982 52.1382 235.839 51.8566C231.914 51.5049 228.74 50.1938 226.319 47.9236C223.913 45.641 222.44 42.6534 221.9 38.9607Z" fill="white"/>
<path d="M279.743 32.1904L264 30.7798L261.938 53.7872L255.301 53.1925L257.901 24.1753L280.281 26.1806L279.743 32.1904Z" fill="white"/>
<path d="M289.266 26.9856L294.479 38.9162L302.115 28.1369L309.379 28.7878L297.199 45.6667L296.196 56.8567L289.579 56.2639L290.582 45.0738L281.596 26.2985L289.266 26.9856Z" fill="white"/>
<path d="M333.627 35.4479L320.802 59.0615L309.45 58.0443L312.05 29.0272L318.687 29.6219L316.484 54.2075L329.291 30.5719L340.642 31.5891L338.042 60.6062L331.426 60.0133L333.627 35.4479ZM332.455 22.7984C332.319 24.3228 331.685 25.4763 330.554 26.2589C329.438 27.0292 328.071 27.3418 326.452 27.1967C324.833 27.0517 323.543 26.5009 322.581 25.5445C321.621 24.5746 321.21 23.3274 321.346 21.803C321.374 21.4928 321.405 21.2984 321.439 21.2199L325.466 21.5807L325.398 21.8806C325.36 22.3122 325.462 22.6818 325.707 22.9893C325.965 23.298 326.323 23.4728 326.782 23.5139C327.24 23.555 327.624 23.4466 327.933 23.1887C328.241 22.9308 328.415 22.586 328.454 22.1543L328.441 21.8472L332.467 22.208C332.487 22.2913 332.483 22.4882 332.455 22.7984Z" fill="white"/>
<path d="M20.4068 149.795C15.9579 149.795 12.3513 146.159 12.3513 141.674V85.7813C12.3513 81.2963 15.9579 77.6605 20.4068 77.6605C24.8557 77.6605 28.4623 81.2963 28.4623 85.7813V103.214L48.3519 82.3103C51.1782 79.3398 54.8025 77.2517 59.1673 77.6605C64.1706 78.1289 65.6378 85.4146 62.297 88.9022L40.6437 112.068L65.1074 138.553C68.3398 142.07 66.5126 149.795 59.9066 149.795C55.65 149.795 51.5942 147.97 48.7516 144.776L28.4623 121.977V141.674C28.4623 146.159 24.8557 149.795 20.4068 149.795Z" fill="white"/>
<path d="M204.357 121.977H173.166V141.674C173.166 146.159 169.56 149.795 165.111 149.795C160.662 149.795 157.055 146.159 157.055 141.674V85.7813C157.055 81.2963 160.662 77.6605 165.111 77.6605C169.56 77.6605 173.166 81.2963 173.166 85.7813V107.037H204.357V85.7566C204.357 81.2852 207.952 77.6605 212.388 77.6605C216.823 77.6605 220.419 81.2852 220.419 85.7566V141.699C220.419 146.17 216.823 149.795 212.388 149.795C207.952 149.795 204.357 146.17 204.357 141.699V121.977Z" fill="white"/>
<path d="M286.048 77.6605C290.141 77.6605 293.458 81.0049 293.458 85.1305C293.458 89.256 290.141 92.6005 286.048 92.6005H269.292V141.699C269.292 146.17 265.696 149.795 261.261 149.795C256.825 149.795 253.23 146.17 253.23 141.699V92.6005H236.473C232.381 92.6005 229.063 89.256 229.063 85.1305C229.063 81.0049 232.381 77.6605 236.473 77.6605H286.048Z" fill="white"/>
<path d="M302.054 85.9012C302.054 81.35 305.714 77.6605 310.228 77.6605H349.068C353.16 77.6605 356.478 81.0049 356.478 85.1305C356.478 89.256 353.16 92.6005 349.068 92.6005H318.165V105.478H346.071C350.164 105.478 353.481 108.822 353.481 112.948C353.481 117.074 350.164 120.418 346.071 120.418H318.165V134.855H350.099C354.192 134.855 357.509 138.199 357.509 142.325C357.509 146.451 354.192 149.795 350.099 149.795H310.228C305.714 149.795 302.054 146.105 302.054 141.554V85.9012Z" fill="white"/>
<path d="M415.076 121.977H383.886V141.674C383.886 146.159 380.279 149.795 375.83 149.795C371.381 149.795 367.775 146.159 367.775 141.674V85.7813C367.775 81.2963 371.381 77.6605 375.83 77.6605C380.279 77.6605 383.886 81.2963 383.886 85.7813V107.037H415.076V85.7566C415.076 81.2852 418.672 77.6605 423.107 77.6605C427.543 77.6605 431.138 81.2852 431.138 85.7566V141.699C431.138 146.17 427.543 149.795 423.107 149.795C418.672 149.795 415.076 146.17 415.076 141.699V121.977Z" fill="white"/>
<path d="M496.768 77.6605C500.86 77.6605 504.178 81.0049 504.178 85.1305C504.178 89.256 500.86 92.6005 496.768 92.6005H480.011V141.699C480.011 146.17 476.416 149.795 471.98 149.795C467.545 149.795 463.949 146.17 463.949 141.699V92.6005H447.193C443.101 92.6005 439.783 89.256 439.783 85.1305C439.783 81.0049 443.1 77.6605 447.193 77.6605H496.768Z" fill="white"/>
<path d="M93.9675 134.844L86.5898 101.387C84.9995 94.1755 91.8951 87.9906 98.8964 90.3489L130.479 100.987C137.271 103.275 139.177 111.972 133.962 116.888L109.757 139.706C104.391 144.765 95.5553 142.044 93.9675 134.844Z" fill="white"/>
<path fill-rule="evenodd" clip-rule="evenodd" d="M367.778 22.3652C370.323 20.288 374.071 20.6676 376.148 23.2131L384.703 33.6964C386.365 35.7328 389.363 36.0365 391.399 34.3747L393.586 32.5902C400.713 26.7739 411.206 27.8369 417.023 34.9644L418.807 37.1512C420.469 39.1877 423.467 39.4914 425.503 37.8296L427.69 36.0451C434.818 30.2288 445.311 31.2917 451.127 38.4193L459.682 48.9025C461.759 51.448 461.379 55.1955 458.834 57.2728C456.288 59.35 452.541 58.9704 450.464 56.4249L441.909 45.9416C440.247 43.9052 437.249 43.6015 435.213 45.2633L433.026 47.0478C425.898 52.8641 415.405 51.8011 409.589 44.6736L407.804 42.4868C406.143 40.4503 403.145 40.1466 401.108 41.8084L398.921 43.5929C391.794 49.4092 381.301 48.3463 375.485 41.2187L366.93 30.7355C364.853 28.19 365.232 24.4425 367.778 22.3652Z" fill="#CA7FFE"/>
<path fill-rule="evenodd" clip-rule="evenodd" d="M2.62524 176.336C4.8585 173.926 8.62247 173.783 11.0323 176.016L20.9566 185.214C22.8845 187 25.8957 186.886 27.6823 184.958L29.6008 182.888C35.854 176.14 46.3931 175.739 53.1406 181.992L55.2108 183.911C57.1387 185.697 60.1498 185.583 61.9365 183.655L63.855 181.585C70.1081 174.837 80.6472 174.437 87.3948 180.69L97.3191 189.887C99.7289 192.12 99.8721 195.884 97.6388 198.294C95.4055 200.704 91.6416 200.847 89.2317 198.614L79.3074 189.416C77.3795 187.63 74.3684 187.744 72.5818 189.672L70.6632 191.742C64.4101 198.49 53.871 198.891 47.1235 192.638L45.0532 190.719C43.1254 188.932 40.1142 189.047 38.3276 190.975L36.409 193.045C30.1559 199.793 19.6168 200.193 12.8693 193.94L2.94496 184.743C0.535126 182.51 0.391986 178.746 2.62524 176.336Z" fill="#CA7FFE"/>
</svg>
