<?xml version="1.0" encoding="UTF-8"?>
<svg id="Layer_2" data-name="Layer 2" xmlns="http://www.w3.org/2000/svg" viewBox="0 0 159.89 28.76">
  <defs>
    <style>
      .cls-1 {
        fill: #ca7ffe;
      }

      .cls-2 {
        fill: #fff;
      }

      .cls-3 {
        fill: #2d262d;
      }
    </style>
  </defs>
  <g id="Layer_2-2" data-name="Layer 2">
    <rect class="cls-1" x="96.74" y=".08" width="63.16" height="18.38" rx="6.77" ry="6.77"/>
    <g>
      <path class="cls-2" d="m108.95,12s-.04.11-.11.2c-.77.89-1.71,1.33-2.85,1.33s-2.12-.43-2.83-1.29c-.66-.8-.99-1.8-.99-3s.34-2.21,1.01-3.02c.71-.87,1.66-1.31,2.83-1.31s2.11.4,2.76,1.21c.06.08.09.15.09.21,0,.07-.1.26-.31.59s-.33.49-.38.49c-.05,0-.17-.1-.36-.29-.23-.24-.45-.41-.65-.53-.34-.19-.71-.29-1.12-.29-.78,0-1.38.3-1.81.89-.39.53-.58,1.2-.58,2s.19,1.48.57,2.02c.43.61,1.03.91,1.81.91.38,0,.76-.1,1.11-.29.24-.13.48-.3.72-.54.2-.19.32-.29.34-.29.02,0,.15.16.39.47.24.31.35.48.35.52Z"/>
      <path class="cls-2" d="m115.97,13.31s-.03.05-.09.05c-.07,0-.19,0-.34-.02-.15-.01-.27-.02-.34-.02-.08,0-.21,0-.37.02s-.29.02-.37.02c-.09,0-.16-.05-.21-.15-.13-.27-.48-1.09-1.07-2.48-.06-.14-.2-.23-.43-.26-.05,0-.23,0-.54,0-.54,0-.86,0-.97.02-.08.01-.12.11-.12.3,0,.27.01.69.04,1.23.03.55.04.96.04,1.23,0,.08-.04.12-.12.12s-.2,0-.36-.03c-.16-.02-.28-.03-.36-.03-.07,0-.17,0-.31.02-.14.01-.24.02-.31.02-.1,0-.15-.05-.15-.14,0-.44.02-1.09.06-1.96.04-.87.06-1.53.06-1.96,0-1.24-.04-2.56-.14-3.97v-.09c-.01-.08.07-.12.24-.12.34,0,.84,0,1.52-.03.67-.02,1.18-.03,1.51-.03.87,0,1.57.21,2.1.62.58.46.87,1.11.87,1.96,0,.58-.08,1.04-.24,1.37-.16.35-.47.69-.92,1.01-.07.05-.11.1-.11.15,0,.06.23.58.7,1.57.47.99.7,1.52.7,1.58Zm-1.61-5.34c0-.71-.2-1.19-.61-1.43-.3-.18-.85-.26-1.63-.26-.64,0-.96.05-.97.15-.03.21-.04.78-.04,1.7v1.13s.04.02.08.02c.07,0,.19.02.35.03.37.02.78.03,1.21.03,1.08,0,1.63-.46,1.63-1.37Z"/>
      <path class="cls-2" d="m122.35,12.17c0,.06-.02.15-.05.27-.04.15-.06.24-.06.27-.01.14-.04.35-.08.62-.02.07-.07.11-.15.11-.04,0-.11,0-.22-.02-.48-.07-1.23-.11-2.24-.11-.29,0-.72,0-1.3.02-.58.02-1.01.02-1.3.02-.13,0-.19-.06-.19-.17,0-.44.02-1.1.07-1.98s.07-1.54.07-1.98-.02-1.28-.07-2.5c0-.31-.03-.78-.06-1.41v-.08c0-.09.04-.14.15-.14.27,0,.69,0,1.24.02.55.02.96.02,1.24.02s.66,0,1.18-.02c.52-.02.92-.02,1.18-.02.18,0,.28.06.3.17.08.52.12.84.12.97,0,.09-.04.14-.13.14-.33,0-.84-.02-1.52-.06-.68-.04-1.19-.06-1.53-.06-.32,0-.53.04-.61.13-.08.09-.13.3-.13.64v.88c0,.24,0,.38.02.42.04.12.14.18.31.18.05,0,.11,0,.2,0h.2c.77,0,1.46-.01,2.07-.04.24,0,.52-.03.85-.06.08,0,.12.03.12.11,0,.13-.01.32-.04.58-.03.26-.04.45-.04.58,0,.07-.06.11-.18.11-.05,0-.22-.01-.52-.04-.22-.02-.71-.04-1.48-.04-.65,0-1.06,0-1.23.02-.16.01-.25.09-.27.25,0-.03,0,.12,0,.45v.87c0,.41.06.66.19.77.1.08.34.12.74.12h.65c.27,0,1.05-.05,2.32-.15h.09c.08-.01.12.04.12.14Z"/>
      <path class="cls-2" d="m130.55,13.29s-.05.07-.14.07c-.07,0-.18,0-.33-.02s-.25-.02-.33-.02-.19,0-.34.02c-.15.01-.26.02-.34.02-.11,0-.25-.3-.42-.89-.17-.59-.34-.9-.52-.9-.15,0-.52-.01-1.14-.01h-.93c-.65,0-1.02,0-1.11.01-.14.01-.29.31-.45.91-.16.59-.28.89-.37.89h-1.33c-.08,0-.12-.03-.12-.08,0-.04.03-.13.08-.27l1.44-3.95c.12-.32.49-1.23,1.11-2.75.11-.25.26-.63.45-1.14.05-.15.1-.22.15-.22.07,0,.18,0,.33.03s.26.03.33.03.18-.01.32-.03c.14-.02.25-.03.32-.03.04,0,.08.07.15.22.09.22.56,1.4,1.4,3.55,1.18,3.02,1.77,4.54,1.77,4.57Zm-2.74-3.25c0-.11-.18-.62-.53-1.53-.34-.88-.58-1.46-.72-1.73-.81,2.07-1.22,3.16-1.22,3.26,0,.13.15.21.45.24.02,0,.21,0,.58,0h.61c.56,0,.84-.08.84-.24Z"/>
      <path class="cls-2" d="m136.7,6.21c0,.1-.04.15-.11.15-.11,0-.8-.02-2.09-.07-.04,1.2-.05,2.16-.05,2.88,0,.45.02,1.13.05,2.03.03.9.05,1.58.05,2.03,0,.08-.06.12-.17.12-.07,0-.18,0-.32-.02s-.26-.02-.33-.02-.18,0-.32.02c-.15.01-.25.02-.32.02-.1,0-.15-.05-.15-.15,0-.45.02-1.12.06-2.02.04-.9.06-1.57.06-2.02,0-.7-.02-1.66-.06-2.88-1.01.06-1.76.09-2.23.09-.05,0-.07-.02-.07-.06,0-.07.02-.17.05-.31.04-.17.07-.27.08-.31,0-.14.04-.33.08-.57.02-.05.05-.08.1-.08h.07c1.39.09,2.31.13,2.75.13.39,0,1.03-.03,1.93-.09.61-.04.86-.06.76-.06.1,0,.16.04.17.11,0-.04-.01.15-.01.57,0,.05,0,.13.02.24.01.11.02.19.02.24Z"/>
      <path class="cls-2" d="m145.19,9.22c0,1.17-.37,2.17-1.12,3.01-.78.87-1.74,1.31-2.9,1.31s-2.13-.43-2.9-1.3c-.75-.84-1.12-1.84-1.12-3.02s.38-2.17,1.13-3.01c.78-.88,1.74-1.31,2.89-1.31s2.11.44,2.89,1.31c.75.84,1.13,1.84,1.13,3.01Zm-1.42-.02c0-.77-.24-1.44-.72-2.01-.5-.6-1.13-.91-1.89-.91s-1.37.31-1.87.92c-.47.57-.71,1.25-.71,2.01s.24,1.44.71,2.01c.5.61,1.12.92,1.87.92s1.39-.31,1.9-.92c.48-.57.71-1.25.71-2.03Z"/>
      <path class="cls-2" d="m152.53,13.31s-.03.05-.09.05c-.07,0-.19,0-.34-.02-.15-.01-.27-.02-.34-.02-.08,0-.21,0-.37.02s-.29.02-.37.02c-.09,0-.16-.05-.21-.15-.13-.27-.48-1.09-1.07-2.48-.06-.14-.2-.23-.43-.26-.05,0-.23,0-.54,0-.54,0-.86,0-.97.02-.08.01-.12.11-.12.3,0,.27.01.69.04,1.23.03.55.04.96.04,1.23,0,.08-.04.12-.12.12s-.2,0-.36-.03c-.16-.02-.28-.03-.36-.03-.07,0-.17,0-.31.02s-.24.02-.31.02c-.1,0-.15-.05-.15-.14,0-.44.02-1.09.06-1.96.04-.87.06-1.53.06-1.96,0-1.24-.05-2.56-.14-3.97v-.09c0-.08.07-.12.24-.12.34,0,.84,0,1.52-.03.67-.02,1.18-.03,1.51-.03.87,0,1.57.21,2.1.62.58.46.87,1.11.87,1.96,0,.58-.08,1.04-.24,1.37-.16.35-.47.69-.92,1.01-.07.05-.11.1-.11.15,0,.06.24.58.7,1.57.47.99.7,1.52.7,1.58Zm-1.61-5.34c0-.71-.2-1.19-.61-1.43-.3-.18-.85-.26-1.63-.26-.64,0-.96.05-.97.15-.03.21-.04.78-.04,1.7v1.13s.04.02.08.02c.07,0,.19.02.35.03.37.02.78.03,1.21.03,1.08,0,1.63-.46,1.63-1.37Z"/>
    </g>
    <g>
      <path class="cls-3" d="m23.92,28.19c-.64,0-1.25-.28-1.67-.77-.5-.6-.65-1.42-.39-2.15.01-.04,1.12-2.89,1.12-7.41,0-.58-.1-1.27-.57-1.32-.43-.04-1.13.29-1.24.89-.58,3.19-1.55,8.52-7.64,10.26-3.2.91-6.54.2-9.16-1.96C1.23,23.13-.35,18.91.06,14.14.79,5.66,6.44.16,15.08.16c6.94,0,11.2,5.46,11.38,5.69l-3.46,2.66s-3.17-3.98-7.92-3.98c-3.66,0-9.95,1.68-10.67,10-.28,3.31.71,6.17,2.74,7.84,1.5,1.23,3.39,1.65,5.19,1.13,3.23-.92,3.92-3.42,4.55-6.84.5-2.75,3.1-4.71,5.93-4.46,2.09.19,4.54,1.79,4.54,5.67,0,2.43.03,3.38-.37,5.2,1.77-.47,3.54-.58,5.67-1.48-1.76-2.57-2.66-4.96-2.57-8.27.14-5.22,2.88-9.6,7.33-11.72,4.29-2.05,8.78-1.9,11.71.38,1.5,1.17,3.85,3.91,2.79,9.23-1.13,5.65-7.17,9.09-11.33,11.41,4.07,2.63,10.8,2.4,13.31-.5,1.95-2.26,2.54-5.13,2.32-12.34-.19-6.61,2.59-8.85,3.94-9.33,2.44-.85,4.98-.61,6.94,1.99,1.16,1.55,2.23,5.58,2.93,9.08,1.02,5.08,2.39,12.01,5.69,12.29.47.04,1.14-.3,1.46-.66,2.65-2.86,1.64-15.41-.2-22.99h4.87c.56,3.39,3.22,20.72-1.82,26.17-1.24,1.35-2.87,1.98-4.69,1.82-6.57-.56-8.24-8.98-9.6-15.78-.47-2.35-1.2-6.54-1.77-7.3-.86-1.15-1.91-.91-2.37-.51-.98.84-1.11,1.81-1.02,5.08.22,7.37-.01,12.31-3.8,15.74-4.32,3.91-11.69,4.87-19.43.49-.51-.29-1.01-.6-1.49-.94-5.4,2.58-11.29,3.18-11.57,3.23-.13.02-.26.03-.39.03ZM43.42,4.52c-1.27,0-2.7.34-4.12,1.01-2.98,1.42-4.75,4.3-4.84,7.89-.07,2.66.72,4.4,2.25,6.3,3.81-1.87,10.04-4.95,10.92-9.38.32-1.58.37-3.72-1.19-4.93-.77-.6-1.83-.9-3.03-.9Z"/>
      <path class="cls-3" d="m87.33,28.15c-1.26-8.31-.75-20.91-.39-25.96.09-1.22,1.16-2.12,2.38-2.01h0c1.19.11,2.07,1.14,1.98,2.33-.35,4.89-.73,17.86.46,25.64h-4.43Z"/>
    </g>
  </g>
</svg>