<?xml version="1.0" encoding="UTF-8"?>
<svg id="Layer_2" data-name="Layer 2" xmlns="http://www.w3.org/2000/svg" viewBox="0 0 116.82 36.62">
  <defs>
    <style>
      .cls-1 {
        fill: #fff;
      }
    </style>
  </defs>
  <g id="Layer_2-2" data-name="Layer 2">
    <g>
      <path class="cls-1" d="m30.45,35.9c-.81,0-1.59-.35-2.12-.98-.64-.76-.83-1.8-.49-2.74.02-.05,1.43-3.68,1.43-9.43,0-.73-.13-1.62-.72-1.68-.55-.05-1.44.37-1.57,1.13-.74,4.06-1.97,10.84-9.73,13.06-4.07,1.16-8.33.25-11.67-2.5C1.56,29.45-.44,24.08.08,18.01,1.01,7.2,8.2.2,19.2.2c8.84,0,14.26,6.95,14.49,7.24l-4.41,3.39c-.04-.05-4.03-5.07-10.08-5.07-4.65,0-12.67,2.13-13.58,12.73-.36,4.22.91,7.86,3.49,9.98,1.91,1.57,4.32,2.1,6.6,1.44,4.12-1.18,5-4.35,5.79-8.71.64-3.51,3.95-6,7.54-5.67,2.67.24,5.78,2.27,5.78,7.21,0,3.1.04,4.31-.46,6.62,2.25-.6,4.51-.73,7.22-1.88-2.24-3.27-3.38-6.31-3.27-10.53.17-6.64,3.66-12.22,9.33-14.92,5.46-2.6,11.18-2.42,14.91.49,1.91,1.48,4.9,4.98,3.55,11.76-1.44,7.19-9.13,11.57-14.42,14.52,5.19,3.35,13.75,3.06,16.95-.64,2.48-2.87,3.23-6.53,2.96-15.71-.25-8.42,3.3-11.27,5.02-11.87,3.1-1.09,6.35-.78,8.84,2.54,1.48,1.97,2.84,7.11,3.73,11.56,1.3,6.47,3.04,15.29,7.24,15.64.6.05,1.45-.38,1.86-.83,3.37-3.64,2.09-19.62-.25-29.27h6.2c.71,4.31,4.1,26.39-2.31,33.32-1.58,1.72-3.65,2.52-5.97,2.32-8.37-.71-10.49-11.44-12.23-20.09-.6-2.99-1.53-8.32-2.25-9.29-1.1-1.46-2.44-1.15-3.02-.65-1.25,1.07-1.42,2.3-1.3,6.46.28,9.38-.01,15.67-4.83,20.04-5.5,4.98-14.88,6.2-24.74.62-.65-.37-1.29-.76-1.89-1.2-6.88,3.29-14.37,4.05-14.73,4.11-.17.03-.33.04-.5.04ZM55.28,5.76c-1.62,0-3.44.43-5.25,1.29-3.8,1.81-6.04,5.47-6.16,10.05-.09,3.39.92,5.6,2.87,8.02,4.85-2.38,12.78-6.3,13.91-11.94.4-2.01.47-4.74-1.51-6.28-.98-.77-2.33-1.15-3.85-1.15Z"/>
      <path class="cls-1" d="m111.18,35.84c-1.61-10.58-.96-26.63-.49-33.05.11-1.55,1.48-2.7,3.02-2.56h0c1.51.14,2.63,1.46,2.52,2.97-.45,6.23-.93,22.73.58,32.64h-5.64Z"/>
    </g>
  </g>
</svg>