<svg width="281" height="42" viewBox="0 0 281 42" fill="none" xmlns="http://www.w3.org/2000/svg">
<rect x="138.375" y="0.691406" width="142.311" height="40.6604" rx="20.3302" fill="#F75423"/>
<path d="M173.958 29.5497H169.77V13.385L165.569 29.5497H159.267L155.078 13.385V29.5497H150.877V11.1819H158.485L162.418 26.5653L166.35 11.1819H173.958V29.5497Z" fill="white"/>
<path d="M177.314 11.1819H191.507V14.9861H181.516V18.2652H190.725V22.0694H181.516V25.7455H191.776V29.5497H177.314V11.1819Z" fill="white"/>
<path d="M198.654 13.9998V29.5497H194.453V11.1819H201.638L208.363 26.7446V11.1819H212.552V29.5497H205.366L198.654 13.9998Z" fill="white"/>
<path d="M231.611 11.1819V14.9861H225.309V29.5497H221.121V14.9861H214.819V11.1819H231.611Z" fill="white"/>
<path d="M241.935 10.9257C243.224 10.9001 244.471 11.1392 245.675 11.643C246.888 12.1468 247.93 12.8257 248.801 13.6796C249.68 14.5335 250.376 15.5497 250.888 16.7281C251.409 17.898 251.657 19.1105 251.631 20.3658C251.657 21.6211 251.409 22.8379 250.888 24.0163C250.376 25.1862 249.68 26.2024 248.801 27.0648C247.93 27.9187 246.888 28.5976 245.675 29.1014C244.471 29.6052 243.224 29.8401 241.935 29.8059C240.646 29.8401 239.395 29.6052 238.182 29.1014C236.978 28.5976 235.936 27.9187 235.057 27.0648C234.177 26.2024 233.477 25.1862 232.956 24.0163C232.444 22.8379 232.2 21.6211 232.226 20.3658C232.2 19.1105 232.444 17.898 232.956 16.7281C233.477 15.5497 234.177 14.5335 235.057 13.6796C235.936 12.8257 236.978 12.1468 238.182 11.643C239.395 11.1392 240.646 10.9001 241.935 10.9257ZM238.003 24.3622C239.053 25.3698 240.364 25.8736 241.935 25.8736C243.506 25.8736 244.817 25.3698 245.867 24.3622C246.918 23.346 247.443 22.0139 247.443 20.3658C247.443 18.7177 246.918 17.3899 245.867 16.3823C244.817 15.3661 243.506 14.858 241.935 14.858C240.364 14.858 239.053 15.3661 238.003 16.3823C236.952 17.3899 236.427 18.7177 236.427 20.3658C236.427 22.0139 236.952 23.346 238.003 24.3622Z" fill="white"/>
<path d="M269.909 29.5497H265.183C264.944 29.0203 264.786 28.4951 264.709 27.9743C264.641 27.4875 264.607 26.6122 264.607 25.3484C264.607 24.4518 264.376 23.7687 263.915 23.299C263.454 22.8294 262.792 22.5945 261.93 22.5945H258.522V29.5497H254.321V11.1819H263.505C265.401 11.1819 266.899 11.6857 268.001 12.6933C269.111 13.6924 269.666 14.9818 269.666 16.5616C269.666 17.5692 269.333 18.5427 268.667 19.482C268.035 20.3701 267.19 21.0148 266.131 21.4161C266.925 21.6296 267.578 22.0736 268.091 22.7482C268.603 23.4228 268.885 24.2469 268.936 25.2204C268.987 26.1682 269.085 26.9495 269.231 27.5644C269.376 28.1707 269.602 28.6915 269.909 29.127V29.5497ZM258.522 18.7903H263.377C264.103 18.7903 264.654 18.611 265.029 18.2523C265.414 17.8937 265.606 17.4198 265.606 16.8306C265.606 16.2499 265.418 15.7973 265.042 15.4728C264.666 15.1483 264.111 14.9861 263.377 14.9861H258.522V18.7903Z" fill="white"/>
<path d="M34.0843 40.5294C33.1808 40.5294 32.3041 40.1359 31.7048 39.4292C30.9891 38.5795 30.7744 37.4077 31.1502 36.3612C31.168 36.3075 32.7514 32.2376 32.7514 25.8064C32.7514 24.9834 32.6083 23.9906 31.9463 23.928C31.3291 23.8653 30.3361 24.3394 30.184 25.1981C29.361 29.7331 27.9744 37.3272 19.2971 39.8138C14.7437 41.1198 9.97564 40.1001 6.23633 37.0141C1.74558 33.311 -0.490853 27.3001 0.0906184 20.5111C1.12832 8.41775 9.17947 0.582146 21.4888 0.582146C31.3827 0.582146 37.4479 8.35514 37.6984 8.6861L32.7693 12.4787C32.7246 12.425 28.2607 6.8077 21.4888 6.8077C16.2824 6.8077 7.30981 9.19595 6.29 21.0477C5.88744 25.7706 7.30981 29.8404 10.1903 32.2197C12.3284 33.9819 15.021 34.5722 17.5795 33.8387C22.1865 32.5239 23.1706 28.9728 24.0562 24.0979C24.7719 20.1712 28.4754 17.3804 32.501 17.7471C35.4888 18.0155 38.9687 20.2874 38.9687 25.8153C38.9687 29.2769 39.0045 30.6365 38.4499 33.2216C40.9726 32.5507 43.4952 32.3986 46.5368 31.1195C44.032 27.4611 42.7528 24.0532 42.878 19.3304C43.0748 11.8973 46.9751 5.65382 53.3176 2.6305C59.4365 -0.285495 65.8238 -0.0797657 70.0014 3.17613C72.1305 4.83985 75.4851 8.74871 73.9733 16.3339C72.3631 24.3752 63.7573 29.2769 57.8352 32.5865C63.641 36.3343 73.2308 36.0123 76.8002 31.8709C79.5733 28.6508 80.4142 24.563 80.1101 14.2855C79.8328 4.86668 83.8047 1.67341 85.728 0.993605C89.1989 -0.222882 92.8309 0.125964 95.613 3.83804C97.268 6.04739 98.7887 11.7899 99.7907 16.7722C101.24 24.0085 103.19 33.8835 107.895 34.277C108.575 34.3307 109.515 33.8477 109.98 33.3468C113.746 29.268 112.324 11.3874 109.703 0.591091H116.635C117.432 5.42126 121.225 30.1177 114.05 37.8818C112.279 39.8049 109.971 40.6994 107.368 40.4847C98.0015 39.6976 95.622 27.6848 93.6897 17.9976C93.0188 14.6433 91.981 8.6861 91.167 7.60378C89.9414 5.97583 88.4385 6.31573 87.7855 6.87925C86.381 8.07785 86.1932 9.45534 86.3363 14.1156C86.6494 24.6167 86.3184 31.6562 80.9241 36.5401C74.7695 42.1126 64.2672 43.4812 53.2371 37.2378C52.5036 36.8263 51.7969 36.388 51.117 35.896C43.4147 39.5813 35.0326 40.4221 34.63 40.4936C34.4422 40.5294 34.2633 40.5473 34.0754 40.5473L34.0843 40.5294ZM61.8698 6.79875C60.0538 6.79875 58.0141 7.28177 56.0014 8.2478C51.7521 10.2693 49.2384 14.375 49.1042 19.4914C49.0058 23.2839 50.133 25.7616 52.3157 28.4719C57.7458 25.8064 66.6199 21.4145 67.8813 15.1084C68.3286 12.8544 68.4001 9.80419 66.1905 8.07785C65.0902 7.21916 63.5873 6.79875 61.8787 6.79875H61.8698Z" fill="#2D262D"/>
<path d="M124.427 40.4665C122.629 28.6326 123.353 10.6716 123.872 3.48893C123.997 1.75364 125.527 0.4656 127.253 0.617661C128.944 0.769722 130.197 2.24561 130.08 3.93617C129.579 10.9041 129.043 29.375 130.733 40.4665H124.427Z" fill="#2D262D"/>
</svg>
