<svg width="278" height="44" viewBox="0 0 278 44" fill="none" xmlns="http://www.w3.org/2000/svg">
<rect x="147.164" y="0.365234" width="130.078" height="43.2432" rx="21.6216" fill="#4D55F5"/>
<path d="M161.506 31.4038V11.8691H171.546C173.444 11.8691 174.965 12.3278 176.109 13.245C177.253 14.1623 177.826 15.3792 177.826 16.8958C177.826 19.0209 176.758 20.5103 174.624 21.364C175.868 21.7182 176.827 22.2903 177.499 23.0804C178.18 23.8615 178.52 24.8241 178.52 25.9684C178.52 27.6848 177.916 29.0198 176.709 29.9734C175.501 30.927 173.83 31.4038 171.695 31.4038H161.506ZM165.974 19.4024H171.409C172.081 19.4024 172.599 19.2434 172.962 18.9256C173.326 18.6077 173.507 18.1627 173.507 17.5906C173.507 17.082 173.321 16.6779 172.949 16.3782C172.585 16.0694 172.072 15.915 171.409 15.915H165.974V19.4024ZM165.974 27.3579H171.968C172.649 27.3579 173.189 27.1853 173.589 26.8402C173.998 26.486 174.202 26.0093 174.202 25.4099C174.202 24.8105 173.998 24.3337 173.589 23.9795C173.189 23.6253 172.649 23.4482 171.968 23.4482H165.974V27.3579Z" fill="white"/>
<path d="M198.055 31.4038H193.028C192.774 30.8407 192.606 30.2822 192.524 29.7282C192.452 29.2105 192.415 28.2797 192.415 26.9356C192.415 25.982 192.17 25.2555 191.68 24.756C191.189 24.2565 190.485 24.0068 189.568 24.0068H185.945V31.4038H181.476V11.8691H191.244C193.26 11.8691 194.854 12.405 196.025 13.4766C197.206 14.5391 197.796 15.9105 197.796 17.5906C197.796 18.6622 197.442 19.6975 196.734 20.6965C196.062 21.641 195.162 22.3267 194.036 22.7535C194.881 22.9805 195.576 23.4528 196.121 24.1702C196.665 24.8877 196.965 25.7641 197.02 26.7994C197.074 27.8074 197.179 28.6384 197.333 29.2923C197.487 29.9371 197.728 30.491 198.055 30.9542V31.4038ZM185.945 19.9609H191.107C191.879 19.9609 192.465 19.7702 192.865 19.3887C193.273 19.0073 193.478 18.5033 193.478 17.8766C193.478 17.2591 193.278 16.7778 192.878 16.4327C192.479 16.0876 191.888 15.915 191.107 15.915H185.945V19.9609Z" fill="white"/>
<path d="M199.472 31.4038L207.155 11.8691H213.571L221.24 31.4038H216.364L214.851 27.3579H205.861L204.362 31.4038H199.472ZM207.373 23.312H213.339L210.356 15.3292L207.373 23.312Z" fill="white"/>
<path d="M227.766 14.8661V31.4038H223.297V11.8691H230.94L238.091 28.4204V11.8691H242.546V31.4038H234.904L227.766 14.8661Z" fill="white"/>
<path d="M246.129 31.4038V11.8691H253.798C257.077 11.8691 259.638 12.7591 261.481 14.5391C263.334 16.3191 264.26 18.7303 264.26 21.7727C264.26 23.1803 264.019 24.4745 263.538 25.6551C263.066 26.8357 262.394 27.8528 261.522 28.7065C260.65 29.5511 259.565 30.2141 258.266 30.6954C256.968 31.1676 255.528 31.4038 253.948 31.4038H246.129ZM250.597 15.915V27.3579H253.798C255.76 27.3579 257.249 26.8629 258.266 25.873C259.292 24.8741 259.806 23.5073 259.806 21.7727C259.806 19.8928 259.288 18.4488 258.253 17.4407C257.217 16.4236 255.687 15.915 253.662 15.915H250.597Z" fill="white"/>
<path d="M36.2494 43.0807C35.2885 43.0807 34.3561 42.6621 33.7187 41.9106C32.9576 41.0069 32.7292 39.7607 33.1288 38.6477C33.1479 38.5906 34.8318 34.2622 34.8318 27.4224C34.8318 26.5472 34.6796 25.4913 33.9756 25.4247C33.3191 25.3581 32.2631 25.8623 32.1013 26.7755C31.226 31.5986 29.7514 39.6751 20.5228 42.3196C15.6802 43.7085 10.6093 42.6241 6.63246 39.3421C1.85646 35.4037 -0.522033 29.0111 0.0963746 21.7907C1.19999 8.92925 9.76256 0.595925 22.8538 0.595925C33.3762 0.595925 39.8267 8.86266 40.093 9.21464L34.8509 13.2481C34.8033 13.191 30.0558 7.21693 22.8538 7.21693C17.3166 7.21693 7.77414 9.75688 6.68955 22.3615C6.26142 27.3843 7.77414 31.7127 10.8376 34.2432C13.1115 36.1172 15.9752 36.7451 18.6962 35.965C23.5958 34.5666 24.6424 30.79 25.5843 25.6054C26.3454 21.4292 30.2842 18.4612 34.5654 18.8512C37.7431 19.1366 41.444 21.5529 41.444 27.4319C41.444 31.1134 41.4821 32.5594 40.8922 35.3086C43.5752 34.5951 46.2581 34.4334 49.4928 33.0731C46.8289 29.1823 45.4684 25.5579 45.6016 20.535C45.8109 12.6298 49.959 5.98976 56.7044 2.77439C63.212 -0.32683 70.0049 -0.108032 74.4479 3.35468C76.7123 5.12408 80.28 9.28123 78.6721 17.3482C76.9596 25.9003 67.8072 31.1134 61.509 34.6332C67.6835 38.6191 77.8825 38.2766 81.6786 33.8722C84.6279 30.4475 85.5222 26.1001 85.1987 15.1697C84.9038 5.15262 89.128 1.7565 91.1735 1.03352C94.8649 -0.260239 98.7276 0.110765 101.686 4.05863C103.446 6.40833 105.064 12.5156 106.129 17.8143C107.671 25.5103 109.745 36.0126 114.749 36.4311C115.472 36.4882 116.471 35.9745 116.966 35.4418C120.971 31.1039 119.458 12.0875 116.671 0.605437H124.044C124.891 5.74242 128.925 32.0076 121.295 40.2649C119.411 42.3101 116.956 43.2614 114.188 43.0331C104.227 42.196 101.696 29.4201 99.6409 19.1176C98.9274 15.5503 97.8237 9.21464 96.958 8.06358C95.6546 6.33222 94.0562 6.69371 93.3617 7.29303C91.868 8.56776 91.6682 10.0328 91.8204 14.989C92.1534 26.1572 91.8014 33.6439 86.0645 38.8379C79.5189 44.7645 68.3495 46.2199 56.6188 39.5799C55.8386 39.1423 55.087 38.6762 54.364 38.153C46.1725 42.0723 37.2579 42.9665 36.8298 43.0426C36.63 43.0807 36.4397 43.0997 36.2399 43.0997L36.2494 43.0807ZM65.7998 7.20741C63.8684 7.20741 61.6992 7.72111 59.5586 8.74851C55.0395 10.8984 52.3661 15.2649 52.2233 20.7063C52.1187 24.7397 53.3174 27.3748 55.6389 30.2572C61.4138 27.4224 70.8517 22.7515 72.1931 16.0449C72.6688 13.6477 72.7449 10.4038 70.395 8.56776C69.2248 7.65452 67.6264 7.20741 65.8093 7.20741H65.7998Z" fill="#2D262D"/>
<path d="M132.332 43.0142C130.419 30.4286 131.19 11.3266 131.742 3.68771C131.875 1.8422 133.502 0.472341 135.338 0.634061C137.136 0.79578 138.468 2.36541 138.344 4.16336C137.812 11.5739 137.241 31.2181 139.039 43.0142H132.332Z" fill="#2D262D"/>
</svg>
