<svg width="305" height="44" viewBox="0 0 305 44" fill="none" xmlns="http://www.w3.org/2000/svg">
<rect x="145.168" y="0.707031" width="159.616" height="42.656" rx="21.328" fill="#C8F423"/>
<path d="M165.55 15.1502C164.771 15.1502 164.139 15.3204 163.656 15.6608C163.172 16.0012 162.93 16.4312 162.93 16.9508C162.93 17.6137 163.266 18.1422 163.938 18.5364C164.619 18.9306 165.631 19.2531 166.975 19.5039C168.238 19.7368 169.286 20.0056 170.119 20.3102C170.961 20.6058 171.678 20.982 172.269 21.4389C172.86 21.8958 173.286 22.4467 173.546 23.0917C173.805 23.7278 173.935 24.4937 173.935 25.3895C173.935 27.1095 173.228 28.516 171.812 29.6089C170.397 30.7018 168.493 31.2483 166.101 31.2483C164.095 31.2483 162.285 30.8093 160.673 29.9314C159.051 29.0445 157.833 27.5574 157.018 25.4702L160.726 23.132C161.12 24.5295 161.797 25.5911 162.755 26.3167C163.714 27.0423 164.874 27.4052 166.236 27.4052C167.239 27.4052 168.041 27.2394 168.641 26.908C169.241 26.5676 169.541 26.1062 169.541 25.5239C169.541 25.067 169.42 24.6953 169.179 24.4086C168.946 24.113 168.516 23.8532 167.889 23.6292C167.27 23.4053 166.397 23.2127 165.268 23.0514C163.145 22.7468 161.492 22.0839 160.31 21.0627C159.127 20.0414 158.536 18.6484 158.536 16.8836C158.536 15.3428 159.19 14.0528 160.498 13.0136C161.815 11.9655 163.544 11.4414 165.685 11.4414C167.53 11.4414 169.093 11.8535 170.374 12.6777C171.655 13.4929 172.569 14.6843 173.116 16.252L169.541 18.3214C169.201 17.2195 168.708 16.4178 168.063 15.9161C167.427 15.4055 166.59 15.1502 165.55 15.1502Z" fill="#2D262D"/>
<path d="M192.506 11.7102V15.7011H185.895V30.9795H181.501V15.7011H174.889V11.7102H192.506Z" fill="#2D262D"/>
<path d="M194.696 11.7102H199.09V23.132C199.09 24.4131 199.413 25.4254 200.058 26.1689C200.703 26.9035 201.621 27.2708 202.813 27.2708C204.004 27.2708 204.918 26.9035 205.554 26.1689C206.199 25.4254 206.521 24.4131 206.521 23.132V11.7102H210.929V23.132C210.929 25.6224 210.203 27.5978 208.752 29.058C207.301 30.5182 205.321 31.2483 202.813 31.2483C200.304 31.2483 198.324 30.5182 196.873 29.058C195.422 27.5978 194.696 25.6224 194.696 23.132V11.7102Z" fill="#2D262D"/>
<path d="M214.288 30.9795V11.7102H221.854C225.087 11.7102 227.614 12.5881 229.432 14.3439C231.26 16.0997 232.174 18.4782 232.174 21.4792C232.174 22.8678 231.936 24.1443 231.461 25.3089C230.995 26.4735 230.333 27.4768 229.473 28.3189C228.613 29.152 227.542 29.806 226.261 30.2808C224.98 30.7466 223.56 30.9795 222.001 30.9795H214.288ZM218.696 15.7011V26.9886H221.854C223.789 26.9886 225.258 26.5004 226.261 25.5239C227.273 24.5385 227.779 23.1903 227.779 21.4792C227.779 19.6248 227.269 18.2005 226.248 17.2061C225.226 16.2028 223.717 15.7011 221.719 15.7011H218.696Z" fill="#2D262D"/>
<path d="M234.982 11.7102H249.871V15.7011H239.389V19.1411H249.051V23.132H239.389V26.9886H250.153V30.9795H234.982V11.7102Z" fill="#2D262D"/>
<path d="M257.369 14.6664V30.9795H252.961V11.7102H260.5L267.554 28.0367V11.7102H271.949V30.9795H264.41L257.369 14.6664Z" fill="#2D262D"/>
<path d="M291.944 11.7102V15.7011H285.332V30.9795H280.938V15.7011H274.327V11.7102H291.944Z" fill="#2D262D"/>
<path d="M35.7572 42.5007C34.8094 42.5007 33.8896 42.0878 33.2609 41.3465C32.5101 40.455 32.2849 39.2258 32.679 38.1279C32.6978 38.0716 34.3589 33.8019 34.3589 27.055C34.3589 26.1917 34.2087 25.1501 33.5143 25.0844C32.8667 25.0187 31.825 25.5161 31.6655 26.4169C30.8021 31.1745 29.3474 39.1413 20.2442 41.75C15.4673 43.12 10.4652 42.0503 6.54241 38.8129C1.83125 34.928 -0.514945 28.6221 0.095066 21.4998C1.1837 8.81297 9.63 0.592792 22.5435 0.592792C32.923 0.592792 39.2859 8.74729 39.5487 9.09449L34.3777 13.0732C34.3307 13.0169 29.6477 7.12389 22.5435 7.12389C17.0815 7.12389 7.66858 9.62936 6.59872 22.0629C6.1764 27.0175 7.66858 31.2871 10.6905 33.7832C12.9334 35.6318 15.7583 36.2511 18.4423 35.4816C23.2755 34.1022 24.3078 30.3769 25.2369 25.2627C25.9877 21.1432 29.873 18.2155 34.0961 18.6002C37.2306 18.8818 40.8813 21.2652 40.8813 27.0644C40.8813 30.6959 40.9188 32.1223 40.337 34.8342C42.9835 34.1304 45.63 33.9709 48.8208 32.629C46.1931 28.791 44.8511 25.2158 44.9825 20.2612C45.1889 12.4633 49.2807 5.91339 55.9345 2.74168C62.3537 -0.317433 69.0544 -0.101606 73.4371 3.31409C75.6707 5.05947 79.19 9.16017 77.604 17.1176C75.9147 25.5536 66.8865 30.6959 60.6738 34.1679C66.7645 38.0997 76.825 37.7619 80.5695 33.4172C83.4788 30.0391 84.361 25.7507 84.0419 14.9687C83.751 5.08762 87.9178 1.73761 89.9355 1.02445C93.5768 -0.251747 97.3871 0.11422 100.306 4.00848C102.042 6.32627 103.637 12.3507 104.688 17.5774C106.209 25.1689 108.255 35.5286 113.191 35.9414C113.904 35.9977 114.89 35.491 115.378 34.9655C119.329 30.6865 117.836 11.9284 115.087 0.602176H122.36C123.195 5.66941 127.174 31.578 119.648 39.7231C117.79 41.7406 115.368 42.679 112.637 42.4538C102.811 41.628 100.315 29.0256 98.288 18.863C97.5841 15.3441 96.4955 9.09449 95.6415 7.95905C94.3558 6.2512 92.7791 6.60779 92.094 7.19897C90.6206 8.45639 90.4236 9.90149 90.5737 14.7904C90.9022 25.807 90.5549 33.192 84.8959 38.3155C78.4392 44.1616 67.4215 45.5973 55.85 39.0475C55.0805 38.6158 54.3391 38.156 53.6258 37.6399C45.5455 41.506 36.752 42.3881 36.3297 42.4632C36.1326 42.5007 35.9449 42.5195 35.7478 42.5195L35.7572 42.5007ZM64.9063 7.11451C63.0012 7.11451 60.8615 7.62123 58.7499 8.63468C54.2922 10.7554 51.655 15.0626 51.5143 20.4301C51.411 24.4088 52.5935 27.0081 54.8834 29.8514C60.58 27.055 69.8897 22.4476 71.2129 15.832C71.6822 13.4673 71.7572 10.2675 69.4392 8.45639C68.2849 7.55555 66.7082 7.11451 64.9157 7.11451H64.9063Z" fill="#2D262D"/>
<path d="M130.534 42.4347C128.647 30.0199 129.408 11.1773 129.952 3.64217C130.083 1.82172 131.688 0.470454 133.499 0.629978C135.273 0.789502 136.587 2.33782 136.465 4.11136C135.939 11.4213 135.376 30.7988 137.15 42.4347H130.534Z" fill="#2D262D"/>
</svg>
