<?xml version="1.0" encoding="UTF-8"?>
<svg id="Layer_2" data-name="Layer 2" xmlns="http://www.w3.org/2000/svg" viewBox="0 0 153.31 28.83">
  <defs>
    <style>
      .cls-1 {
        fill: #2d262d;
      }

      .cls-2 {
        fill: #f5f4f0;
      }

      .cls-3 {
        fill: #4d55f5;
      }
    </style>
  </defs>
  <g id="Layer_2-2" data-name="Layer 2">
    <g>
      <path class="cls-1" d="m23.92,28.26c-.64,0-1.25-.28-1.67-.77-.5-.6-.65-1.42-.39-2.15.01-.04,1.12-2.89,1.12-7.41,0-.58-.1-1.27-.57-1.32-.43-.04-1.13.29-1.24.89-.58,3.19-1.55,8.52-7.64,10.26-3.2.91-6.54.2-9.16-1.96C1.23,23.2-.35,18.98.06,14.21.79,5.73,6.44.23,15.08.23c6.94,0,11.2,5.46,11.38,5.69l-3.46,2.66s-3.17-3.98-7.92-3.98c-3.66,0-9.95,1.68-10.67,10-.28,3.31.71,6.17,2.74,7.84,1.5,1.23,3.39,1.65,5.19,1.13,3.23-.92,3.92-3.42,4.55-6.84.5-2.75,3.1-4.71,5.93-4.46,2.09.19,4.54,1.79,4.54,5.67,0,2.43.03,3.38-.37,5.2,1.77-.47,3.54-.58,5.67-1.48-1.76-2.57-2.66-4.96-2.57-8.27.14-5.22,2.88-9.6,7.33-11.72,4.29-2.05,8.78-1.9,11.71.38,1.5,1.17,3.85,3.91,2.79,9.23-1.13,5.65-7.17,9.09-11.33,11.41,4.07,2.63,10.8,2.4,13.31-.5,1.95-2.26,2.54-5.13,2.32-12.34-.19-6.61,2.59-8.85,3.94-9.33,2.44-.85,4.98-.61,6.94,1.99,1.16,1.55,2.23,5.58,2.93,9.08,1.02,5.08,2.39,12.01,5.69,12.29.47.04,1.14-.3,1.46-.66,2.65-2.86,1.64-15.41-.2-22.99h4.87c.56,3.39,3.22,20.72-1.82,26.17-1.24,1.35-2.87,1.98-4.69,1.82-6.57-.56-8.24-8.98-9.6-15.78-.47-2.35-1.2-6.54-1.77-7.3-.86-1.15-1.91-.91-2.37-.51-.98.84-1.11,1.81-1.02,5.08.22,7.37-.01,12.31-3.8,15.74-4.32,3.91-11.69,4.87-19.43.49-.51-.29-1.01-.6-1.49-.94-5.4,2.58-11.29,3.18-11.57,3.23-.13.02-.26.03-.39.03ZM43.42,4.59c-1.27,0-2.7.34-4.12,1.01-2.98,1.42-4.75,4.3-4.84,7.89-.07,2.66.72,4.4,2.25,6.3,3.81-1.87,10.04-4.95,10.92-9.38.32-1.58.37-3.72-1.19-4.93-.77-.6-1.83-.9-3.03-.9Z"/>
      <path class="cls-1" d="m87.33,28.22c-1.26-8.31-.75-20.91-.39-25.96.09-1.22,1.16-2.12,2.38-2.01h0c1.19.11,2.07,1.14,1.98,2.33-.35,4.89-.73,17.86.46,25.64h-4.43Z"/>
    </g>
    <g>
      <rect class="cls-3" x="96.74" width="56.57" height="18.38" rx="6.77" ry="6.77"/>
      <g>
        <path class="cls-2" d="m110.66,10.95c0,.75-.23,1.4-.68,1.94-.48.57-1.09.85-1.83.85-.28,0-.69,0-1.25-.02s-.97-.02-1.25-.02c-.2,0-.51,0-.92.03-.41.02-.72.03-.92.03-.11,0-.16-.05-.16-.15,0-.48.02-1.19.07-2.15.05-.96.07-1.67.07-2.15,0-.5-.02-1.26-.07-2.26-.05-1.01-.07-1.76-.07-2.26,0-.1.05-.14.16-.14.39,0,.97,0,1.74,0,.78,0,1.36,0,1.75,0,.91,0,1.64.17,2.18.51.66.41.99,1.05.99,1.92,0,.3-.09.61-.26.93-.17.32-.38.57-.63.73-.13.08-.19.14-.19.16s.06.07.19.14c.33.18.59.45.79.8.2.35.3.72.3,1.1Zm-1.83-3.73c0-.61-.27-1.02-.82-1.23-.33-.13-.87-.19-1.62-.19s-1.09.05-1.09.16c0,.14,0,.36-.02.64-.01.29-.02.5-.02.65,0,.1,0,.25,0,.46,0,.21,0,.36,0,.47,0,.13.49.19,1.47.19,1.39,0,2.09-.38,2.09-1.15Zm.18,3.66c0-.53-.24-.89-.71-1.07-.3-.12-.76-.18-1.4-.18-1.09,0-1.64.06-1.64.18v1.07c0,.16,0,.39.01.71,0,.32.01.56.01.72,0,.04.14.08.42.1.28.02.69.03,1.23.03.68,0,1.18-.09,1.48-.27.39-.23.59-.66.59-1.29Z"/>
        <path class="cls-2" d="m118.8,13.7s-.03.05-.1.05c-.08,0-.21,0-.38-.02-.17-.01-.29-.02-.38-.02-.09,0-.23,0-.41.02s-.32.02-.41.02c-.1,0-.18-.05-.23-.16-.14-.29-.53-1.21-1.18-2.74-.07-.16-.22-.25-.47-.29-.06,0-.25,0-.59,0-.6,0-.95,0-1.07.03-.09.01-.14.12-.14.33,0,.3.01.76.04,1.36.03.6.04,1.06.04,1.35,0,.09-.04.14-.13.14s-.22,0-.39-.03c-.18-.02-.31-.03-.4-.03-.07,0-.19,0-.34.02-.15.01-.26.02-.34.02-.11,0-.16-.05-.16-.15,0-.48.02-1.2.07-2.17.05-.96.07-1.69.07-2.17,0-1.37-.05-2.83-.15-4.38v-.1c-.01-.09.08-.13.27-.13.37,0,.93,0,1.67-.03.74-.02,1.3-.03,1.67-.03.96,0,1.73.23,2.31.69.64.51.96,1.23.96,2.16,0,.64-.09,1.15-.26,1.51-.18.39-.52.76-1.01,1.11-.08.06-.12.11-.12.16,0,.06.26.64.78,1.73.52,1.09.78,1.67.78,1.74Zm-1.78-5.89c0-.78-.23-1.31-.68-1.57-.33-.19-.93-.29-1.8-.29-.7,0-1.06.06-1.07.17-.03.23-.05.86-.05,1.88v1.24s.04.02.08.03c.08,0,.21.02.38.03.41.02.86.03,1.33.03,1.2,0,1.79-.5,1.79-1.51Z"/>
        <path class="cls-2" d="m127.72,13.68c0,.05-.05.08-.16.08-.08,0-.2,0-.36-.02-.16-.01-.28-.02-.36-.02s-.21,0-.37.02c-.16.01-.29.02-.37.02-.12,0-.28-.33-.46-.98-.19-.66-.38-.99-.57-1-.16,0-.58-.01-1.25-.01h-1.03c-.71,0-1.12,0-1.22.01-.16.01-.32.35-.5,1-.18.65-.31.98-.41.98h-1.46c-.09,0-.13-.03-.13-.09,0-.04.03-.14.09-.29l1.59-4.35c.13-.35.54-1.36,1.22-3.03.12-.28.29-.7.49-1.25.05-.16.11-.25.17-.25.08,0,.2.01.36.03.16.02.28.03.36.03s.2-.01.35-.04.27-.04.35-.04c.04,0,.09.08.16.24.1.24.62,1.55,1.54,3.92,1.3,3.33,1.96,5.01,1.96,5.04Zm-3.03-3.59c0-.13-.2-.69-.59-1.69-.38-.97-.64-1.61-.8-1.91-.9,2.29-1.34,3.49-1.34,3.59,0,.15.16.23.49.26.02,0,.23,0,.64,0h.67c.62,0,.93-.09.93-.26Z"/>
        <path class="cls-2" d="m136.63,4.78c0,.5-.02,1.25-.05,2.25-.03,1.01-.05,1.76-.05,2.26,0,.47,0,1.18.01,2.12,0,.94.01,1.65.01,2.12,0,.14-.05.21-.16.21-.06,0-.16,0-.29-.02s-.23-.02-.29-.02c-.07,0-.18,0-.32.02s-.25.02-.32.02c-.08,0-.17-.07-.28-.21-.94-1.26-2.35-3.14-4.26-5.64-.29-.38-.47-.59-.51-.64-.04,0-.06.09-.06.27,0,.67.01,1.67.03,3.01.02,1.34.03,2.34.03,3.01,0,.14-.04.21-.13.21-.07,0-.19,0-.34-.02s-.26-.02-.34-.02c-.08,0-.19,0-.35.02s-.27.02-.35.02c-.11,0-.16-.04-.16-.13,0-.48.02-1.19.07-2.15.05-.96.07-1.68.07-2.16,0-.52-.02-1.47-.06-2.83,0-.36-.03-.89-.06-1.6v-.08c-.01-.06.04-.1.15-.1.28,0,.5-.01.66-.03.06,0,.18-.02.34-.05.14-.03.26-.04.34-.04.04,0,.11.06.2.19,1,1.37,2.52,3.4,4.57,6.11.09.11.18.21.25.29.03-.18.05-.6.05-1.25,0-.56-.02-1.41-.06-2.53-.04-1.13-.06-1.97-.06-2.53,0-.14.04-.21.13-.21.08,0,.2,0,.35.02s.28.02.35.02c.08,0,.21,0,.37-.02s.29-.02.37-.02c.09,0,.14.05.14.14Z"/>
        <path class="cls-2" d="m146.01,9.15c0,1.22-.35,2.27-1.04,3.16-.75.97-1.72,1.45-2.9,1.45-.23,0-.56,0-1.02-.03-.45-.02-.79-.03-1.02-.03-.2,0-.51,0-.92.03-.41.02-.72.03-.92.03-.11,0-.16-.05-.16-.16,0-.47.02-1.18.06-2.14.04-.95.06-1.67.06-2.14,0-.5-.02-1.26-.05-2.27-.03-1.01-.05-1.77-.05-2.27,0-.09.06-.14.17-.14.16,0,.4,0,.72,0,.32,0,.56,0,.72,0,.15,0,.37,0,.68,0,.3,0,.53,0,.69,0,1.5,0,2.62.28,3.36.85.53.41.94.96,1.23,1.64.27.64.41,1.31.41,2.01Zm-1.59,0c0-.94-.27-1.7-.8-2.29-.55-.61-1.3-.92-2.22-.92-.77,0-1.08,0-.93-.01-.51.03-.76.12-.76.28,0,.33,0,.83-.02,1.5-.02.66-.02,1.16-.02,1.5s0,.82.02,1.48c.02.66.02,1.15.02,1.48,0,.16.26.26.78.29-.07,0,.25,0,.95,0,.5,0,.89-.05,1.19-.16.36-.13.69-.37.98-.72.54-.66.81-1.47.81-2.42Z"/>
      </g>
    </g>
  </g>
</svg>