<svg width="317" height="45" viewBox="0 0 317 45" fill="none" xmlns="http://www.w3.org/2000/svg">
<rect x="148.969" y="0.714844" width="168.031" height="43.7729" rx="21.8864" fill="#CA7FFE"/>
<path d="M166.216 21.8952C166.216 23.7062 166.786 25.1725 167.926 26.294C169.066 27.4156 170.45 27.9763 172.077 27.9763C173.713 27.9763 175.042 27.4937 176.062 26.5285C177.092 25.554 177.772 24.2165 178.103 22.5158L182.253 24.1843C181.665 26.648 180.484 28.5785 178.709 29.9758C176.944 31.3639 174.724 32.058 172.049 32.058C169.99 32.058 168.17 31.6167 166.589 30.7342C165.007 29.8517 163.794 28.6428 162.948 27.1076C162.112 25.5632 161.693 23.8258 161.693 21.8952C161.666 20.4979 161.919 19.165 162.452 17.8963C162.994 16.6277 163.725 15.543 164.644 14.6421C165.573 13.732 166.681 13.0149 167.968 12.4909C169.264 11.9577 170.624 11.7049 172.049 11.7325C174.568 11.7325 176.65 12.3484 178.296 13.5803C179.941 14.8029 180.985 16.3795 181.426 18.31L177.275 20.1716C176.99 18.8018 176.379 17.7355 175.441 16.9725C174.504 16.2094 173.345 15.8279 171.966 15.8279C170.349 15.8279 168.983 16.3933 167.871 17.524C166.768 18.6456 166.216 20.1026 166.216 21.8952Z" fill="white"/>
<path d="M201.683 31.7822H196.594C196.337 31.2122 196.167 30.6469 196.084 30.0861C196.011 29.5621 195.974 28.6198 195.974 27.2593C195.974 26.294 195.726 25.5586 195.229 25.053C194.733 24.5474 194.02 24.2946 193.092 24.2946H189.424V31.7822H184.901V12.0083H194.788C196.829 12.0083 198.442 12.5507 199.628 13.6354C200.823 14.711 201.421 16.0991 201.421 17.7998C201.421 18.8846 201.062 19.9326 200.345 20.9438C199.665 21.8998 198.755 22.5939 197.615 23.026C198.47 23.2558 199.173 23.7338 199.724 24.4601C200.276 25.1863 200.579 26.0734 200.635 27.1214C200.69 28.1418 200.795 28.983 200.952 29.6449C201.108 30.2975 201.352 30.8583 201.683 31.3272V31.7822ZM189.424 20.1992H194.65C195.431 20.1992 196.024 20.0061 196.429 19.62C196.842 19.2339 197.049 18.7237 197.049 18.0894C197.049 17.4643 196.847 16.977 196.443 16.6277C196.038 16.2784 195.441 16.1037 194.65 16.1037H189.424V20.1992Z" fill="white"/>
<path d="M204.564 12.0083H219.843V16.1037H209.087V19.6338H219.002V23.7292H209.087V27.6868H220.133V31.7822H204.564V12.0083Z" fill="white"/>
<path d="M221.484 31.7822L229.261 12.0083H235.756L243.519 31.7822H238.583L237.052 27.6868H227.951L226.434 31.7822H221.484ZM229.482 23.5913H235.522L232.502 15.5108L229.482 23.5913Z" fill="white"/>
<path d="M259.653 12.0083V16.1037H252.869V31.7822H248.359V16.1037H241.575V12.0083H259.653Z" fill="white"/>
<path d="M270.767 11.7325C272.155 11.7049 273.497 11.9623 274.794 12.5047C276.099 13.0471 277.221 13.7779 278.158 14.6972C279.105 15.6165 279.854 16.7105 280.406 17.9791C280.967 19.2385 281.233 20.5439 281.206 21.8952C281.233 23.2466 280.967 24.5566 280.406 25.8252C279.854 27.0846 279.105 28.1786 278.158 29.1071C277.221 30.0264 276.099 30.7572 274.794 31.2996C273.497 31.842 272.155 32.0948 270.767 32.058C269.379 32.0948 268.032 31.842 266.727 31.2996C265.431 30.7572 264.309 30.0264 263.362 29.1071C262.415 28.1786 261.662 27.0846 261.101 25.8252C260.549 24.5566 260.287 23.2466 260.315 21.8952C260.287 20.5439 260.549 19.2385 261.101 17.9791C261.662 16.7105 262.415 15.6165 263.362 14.6972C264.309 13.7779 265.431 13.0471 266.727 12.5047C268.032 11.9623 269.379 11.7049 270.767 11.7325ZM266.534 26.1975C267.665 27.2823 269.076 27.8247 270.767 27.8247C272.459 27.8247 273.87 27.2823 275 26.1975C276.131 25.1036 276.697 23.6695 276.697 21.8952C276.697 20.121 276.131 18.6915 275 17.6068C273.87 16.5128 272.459 15.9658 270.767 15.9658C269.076 15.9658 267.665 16.5128 266.534 17.6068C265.403 18.6915 264.838 20.121 264.838 21.8952C264.838 23.6695 265.403 25.1036 266.534 26.1975Z" fill="white"/>
<path d="M300.883 31.7822H295.795C295.537 31.2122 295.367 30.6469 295.285 30.0861C295.211 29.5621 295.174 28.6198 295.174 27.2593C295.174 26.294 294.926 25.5586 294.43 25.053C293.933 24.5474 293.221 24.2946 292.292 24.2946H288.624V31.7822H284.101V12.0083H293.988C296.029 12.0083 297.643 12.5507 298.828 13.6354C300.023 14.711 300.621 16.0991 300.621 17.7998C300.621 18.8846 300.263 19.9326 299.545 20.9438C298.865 21.8998 297.955 22.5939 296.815 23.026C297.67 23.2558 298.373 23.7338 298.925 24.4601C299.477 25.1863 299.78 26.0734 299.835 27.1214C299.89 28.1418 299.996 28.983 300.152 29.6449C300.308 30.2975 300.552 30.8583 300.883 31.3272V31.7822ZM288.624 20.1992H293.85C294.632 20.1992 295.225 20.0061 295.629 19.62C296.043 19.2339 296.25 18.7237 296.25 18.0894C296.25 17.4643 296.048 16.977 295.643 16.6277C295.239 16.2784 294.641 16.1037 293.85 16.1037H288.624V20.1992Z" fill="white"/>
<path d="M36.6935 43.6039C35.7208 43.6039 34.777 43.1802 34.1318 42.4195C33.3613 41.5047 33.1302 40.2433 33.5347 39.1166C33.5539 39.0588 35.2585 34.6774 35.2585 27.7538C35.2585 26.8679 35.1044 25.7991 34.3918 25.7317C33.7273 25.6643 32.6583 26.1746 32.4946 27.099C31.6086 31.9812 30.1158 40.1566 20.7742 42.8336C15.8723 44.2395 10.7393 43.1417 6.71371 39.8196C1.8792 35.833 -0.528427 29.362 0.0975552 22.0532C1.21469 9.03416 9.88215 0.598751 23.1337 0.598751C33.7851 0.598751 40.3145 8.96676 40.5842 9.32305L35.2778 13.4059C35.2296 13.3482 30.424 7.30086 23.1337 7.30086C17.5288 7.30086 7.86937 9.87193 6.77149 22.631C6.33812 27.7153 7.86937 32.0967 10.9704 34.6582C13.2721 36.5552 16.1709 37.1907 18.9252 36.4011C23.8849 34.9856 24.9443 31.1627 25.8977 25.9146C26.6681 21.6873 30.6551 18.6829 34.9889 19.0777C38.2055 19.3666 41.9517 21.8125 41.9517 27.7635C41.9517 31.4901 41.9902 32.9538 41.3932 35.7367C44.109 35.0145 46.8248 34.8508 50.0991 33.4737C47.4026 29.5353 46.0254 25.8665 46.1603 20.7821C46.3721 12.78 50.571 6.05866 57.399 2.8039C63.9863 -0.335308 70.8625 -0.11383 75.3599 3.3913C77.652 5.18238 81.2634 9.39045 79.6359 17.5562C77.9024 26.2131 68.6378 31.4901 62.2625 35.053C68.5126 39.0877 78.8365 38.7411 82.6791 34.2826C85.6646 30.816 86.5698 26.4153 86.2424 15.3511C85.9439 5.21126 90.2198 1.77355 92.2904 1.04171C96.027 -0.267901 99.937 0.107648 102.932 4.10388C104.714 6.48235 106.351 12.6645 107.43 18.0281C108.99 25.8183 111.089 36.4492 116.155 36.8729C116.887 36.9307 117.898 36.4107 118.399 35.8715C122.453 31.4804 120.922 12.2311 118.1 0.60838H125.564C126.421 5.80829 130.504 32.3952 122.781 40.7536C120.874 42.824 118.389 43.7869 115.587 43.5558C105.503 42.7084 102.942 29.776 100.862 19.3473C100.139 15.7363 99.0221 9.32305 98.1457 8.15788C96.8263 6.40532 95.2084 6.77124 94.5054 7.37789C92.9934 8.66824 92.7911 10.1512 92.9452 15.1681C93.2823 26.4731 92.926 34.0515 87.1188 39.3092C80.493 45.3084 69.1868 46.7817 57.3124 40.0603C56.5227 39.6173 55.7619 39.1455 55.0299 38.6159C46.7381 42.5832 37.7143 43.4884 37.2809 43.5654C37.0787 43.6039 36.8861 43.6232 36.6838 43.6232L36.6935 43.6039ZM66.6058 7.29123C64.6508 7.29123 62.4551 7.81122 60.2882 8.8512C55.7137 11.0275 53.0075 15.4474 52.8631 20.9554C52.7571 25.0383 53.9706 27.7057 56.3204 30.6234C62.1661 27.7538 71.7196 23.0258 73.0775 16.237C73.559 13.8104 73.6361 10.5267 71.2573 8.66824C70.0728 7.74381 68.4549 7.29123 66.6154 7.29123H66.6058Z" fill="#2D262D"/>
<path d="M133.954 43.5354C132.018 30.7957 132.798 11.4597 133.357 3.72723C133.492 1.85911 135.138 0.472472 136.997 0.636173C138.817 0.799873 140.166 2.38874 140.04 4.2087C139.501 11.7101 138.923 31.5949 140.743 43.5354H133.954Z" fill="#2D262D"/>
</svg>
